<svg width="800" height="800" viewBox="0 0 800 800" fill="none" xmlns="http://www.w3.org/2000/svg">
<path d="M550 300C550 339.782 534.196 377.936 506.066 406.066C477.936 434.196 439.782 450 400 450C360.218 450 322.064 434.196 293.934 406.066C265.804 377.936 250 339.782 250 300C250 260.218 265.804 222.064 293.934 193.934C322.064 165.804 360.218 150 400 150C439.782 150 477.936 165.804 506.066 193.934C534.196 222.064 550 260.218 550 300V300Z" fill="#011118" fill-opacity="0.2"/>
<path fill-rule="evenodd" clip-rule="evenodd" d="M0 400C0 293.913 42.1427 192.172 117.157 117.157C192.172 42.1427 293.913 0 400 0C506.087 0 607.828 42.1427 682.843 117.157C757.857 192.172 800 293.913 800 400C800 506.087 757.857 607.828 682.843 682.843C607.828 757.857 506.087 800 400 800C293.913 800 192.172 757.857 117.157 682.843C42.1427 607.828 0 506.087 0 400V400ZM400 50C334.089 50.0035 269.518 68.6181 213.72 103.701C157.922 138.785 113.164 188.911 84.5982 248.31C56.0323 307.709 44.8193 373.967 52.2499 439.458C59.6805 504.949 85.4526 567.011 126.6 618.5C162.1 561.3 240.25 500 400 500C559.75 500 637.85 561.25 673.4 618.5C714.547 567.011 740.319 504.949 747.75 439.458C755.181 373.967 743.968 307.709 715.402 248.31C686.836 188.911 642.078 138.785 586.28 103.701C530.482 68.6181 465.911 50.0035 400 50V50Z" fill="#011118" fill-opacity="0.2"/>
</svg>
