<svg width="781" height="840" viewBox="0 0 781 840" fill="none" xmlns="http://www.w3.org/2000/svg">
<path d="M168.172 34.2305H27.7473V180.613H168.172V34.2305Z" fill="#E0E0E0"/>
<path d="M158.651 34.2305H18.226V180.613H158.651V34.2305Z" fill="#FAFAFA"/>
<path d="M158.707 180.669H18.1888V34.1934H158.707V180.669ZM18.2816 180.669H158.614V34.3047H18.2816V180.669Z" fill="#E0E0E0"/>
<path d="M139.776 53.9041H37.1016V160.94H139.776V53.9041Z" fill="white"/>
<path d="M37.1014 161.645C36.3832 162.728 35.5355 163.719 34.5773 164.596C32.9254 166.322 30.624 168.661 28.0442 171.222C25.4643 173.783 23.0886 176.029 21.344 177.625C20.4473 178.56 19.4516 179.393 18.3744 180.112C19.0915 179.045 19.9395 178.073 20.8986 177.217C22.5318 175.472 24.8333 173.134 27.4317 170.572C30.0301 168.011 32.4058 165.765 34.1504 164.151C35.0314 163.202 36.022 162.36 37.1014 161.645V161.645Z" fill="#E0E0E0"/>
<path d="M139.776 161.385C140.86 162.109 141.851 162.963 142.727 163.928C144.453 165.561 146.81 167.863 149.352 170.443C151.895 173.022 154.16 175.398 155.774 177.161C156.712 178.05 157.541 179.047 158.243 180.131C157.174 179.401 156.191 178.555 155.31 177.607C153.584 175.973 151.227 173.653 148.684 171.055C146.142 168.457 143.859 166.099 142.244 164.336C141.303 163.458 140.474 162.467 139.776 161.385V161.385Z" fill="#E0E0E0"/>
<path d="M139.497 54.2011C140.228 53.1227 141.081 52.1325 142.04 51.2501C143.673 49.524 145.975 47.1669 148.573 44.6241C151.171 42.0814 153.528 39.8171 155.273 38.2024C156.161 37.2646 157.158 36.436 158.243 35.7339C157.521 36.808 156.673 37.7925 155.719 38.6664C154.085 40.3924 151.765 42.7496 149.185 45.2923C146.606 47.835 144.211 50.1179 142.467 51.7326C141.58 52.6722 140.583 53.501 139.497 54.2011Z" fill="#E0E0E0"/>
<path d="M36.823 54.461C35.7478 53.7258 34.758 52.873 33.872 51.9182C32.1459 50.285 29.8074 47.9835 27.2646 45.4037C24.7219 42.8238 22.4576 40.4296 20.8429 38.6849C19.8982 37.8031 19.0688 36.8053 18.3744 35.7153C19.4486 36.4374 20.433 37.2848 21.3069 38.2395C23.033 39.8728 25.3901 42.1928 27.9328 44.7726C30.4755 47.3525 32.7584 49.7467 34.3731 51.5099C35.3058 52.3912 36.1284 53.3821 36.823 54.461V54.461Z" fill="#E0E0E0"/>
<path d="M139.497 160.94C139.497 160.94 139.497 160.754 139.497 160.42C139.497 160.086 139.497 159.566 139.497 158.917C139.497 157.58 139.497 155.65 139.497 153.144C139.497 148.078 139.497 140.709 139.497 131.336C139.497 112.591 139.386 85.8829 139.293 53.904L139.683 54.2938H37.3056L37.7696 53.8298C37.7696 93.1214 37.7696 129.926 37.7696 160.865L37.3798 160.476L111.62 160.68L132.444 160.773H138.012H132.574H111.824L37.4355 160.977H36.7117V160.587C36.7117 129.592 36.7117 92.843 36.7117 53.5514V53.106H37.1757H139.553H139.905V53.4957C139.905 85.586 139.738 112.368 139.701 131.169C139.701 140.449 139.701 147.873 139.59 152.903C139.59 155.372 139.59 157.283 139.59 158.601C139.59 159.232 139.59 159.696 139.59 160.049C139.619 160.349 139.587 160.652 139.497 160.94V160.94Z" fill="#E0E0E0"/>
<path d="M105.569 90.3003H71.3076V124.562H105.569V90.3003Z" fill="#EBEBEB"/>
<path d="M761.295 8.85889H561.218V340.044H761.295V8.85889Z" fill="#E0E0E0"/>
<path d="M754.632 8.85889H554.555V340.044H754.632V8.85889Z" fill="#EBEBEB"/>
<path d="M746.113 15.5776H563.074V333.344H746.113V15.5776Z" fill="white"/>
<path d="M710.477 56.8738H597.929V292.048H710.477V56.8738Z" fill="#EBEBEB"/>
<path d="M597.93 208.769C597.67 186.813 617.418 165.357 639.17 162.369C649.545 160.903 660.57 162.963 670.258 158.991C687.556 151.883 692.994 128.961 710.478 122.075L711.276 292.048H597.93V208.769Z" fill="#E0E0E0"/>
<path d="M441.654 550.087H96.3451V709.351H441.654V550.087Z" fill="#F5F5F5"/>
<path d="M433.432 701.853H104.252V558.477H433.432V701.853ZM106.386 699.7H431.298V560.63H106.386V699.7Z" fill="#E0E0E0"/>
<path d="M526.009 550.087H441.654V709.351H526.009V550.087Z" fill="#E0E0E0"/>
<path d="M105.328 602.854H432.356C432.456 602.833 432.546 602.778 432.611 602.699C432.675 602.619 432.711 602.52 432.711 602.418C432.711 602.315 432.675 602.216 432.611 602.136C432.546 602.057 432.456 602.002 432.356 601.981H105.328C105.228 602.002 105.138 602.057 105.073 602.136C105.008 602.216 104.973 602.315 104.973 602.418C104.973 602.52 105.008 602.619 105.073 602.699C105.138 602.778 105.228 602.833 105.328 602.854V602.854Z" fill="#E0E0E0"/>
<path d="M269.918 602.408C270.819 588.002 270.856 573.555 270.03 559.145C270.03 559.027 269.983 558.913 269.899 558.83C269.816 558.746 269.702 558.699 269.584 558.699C269.466 558.699 269.353 558.746 269.269 558.83C269.186 558.913 269.139 559.027 269.139 559.145C268.304 573.555 268.341 588.003 269.25 602.408C269.25 602.497 269.285 602.582 269.348 602.645C269.411 602.707 269.496 602.742 269.584 602.742C269.673 602.742 269.758 602.707 269.821 602.645C269.883 602.582 269.918 602.497 269.918 602.408V602.408Z" fill="#E0E0E0"/>
<path d="M357.948 580.786C357.952 581.671 357.693 582.538 357.204 583.276C356.714 584.014 356.017 584.59 355.2 584.932C354.383 585.273 353.483 585.364 352.614 585.194C351.745 585.023 350.947 584.599 350.319 583.974C349.692 583.349 349.264 582.552 349.09 581.684C348.916 580.816 349.003 579.915 349.341 579.097C349.679 578.279 350.253 577.579 350.989 577.087C351.725 576.594 352.59 576.332 353.476 576.332C354.659 576.332 355.793 576.8 356.632 577.635C357.47 578.47 357.944 579.603 357.948 580.786V580.786Z" fill="#E0E0E0"/>
<path d="M186.305 580.786C186.305 581.667 186.044 582.528 185.555 583.261C185.065 583.993 184.37 584.564 183.556 584.901C182.742 585.238 181.846 585.327 180.982 585.155C180.118 584.983 179.324 584.559 178.701 583.936C178.078 583.313 177.654 582.519 177.482 581.655C177.31 580.791 177.399 579.895 177.736 579.081C178.073 578.267 178.644 577.572 179.376 577.082C180.109 576.593 180.97 576.332 181.851 576.332C182.436 576.332 183.015 576.447 183.556 576.671C184.096 576.894 184.587 577.223 185.001 577.636C185.414 578.05 185.742 578.541 185.966 579.081C186.19 579.622 186.305 580.201 186.305 580.786V580.786Z" fill="#E0E0E0"/>
<path d="M273.296 630.081C273.296 630.962 273.035 631.823 272.546 632.556C272.056 633.288 271.36 633.859 270.546 634.196C269.733 634.534 268.837 634.622 267.973 634.45C267.109 634.278 266.315 633.854 265.692 633.231C265.069 632.608 264.645 631.814 264.473 630.95C264.301 630.086 264.389 629.19 264.727 628.377C265.064 627.563 265.635 626.867 266.367 626.377C267.1 625.888 267.961 625.627 268.842 625.627C269.428 625.624 270.008 625.738 270.549 625.961C271.091 626.184 271.583 626.512 271.997 626.926C272.411 627.34 272.739 627.832 272.962 628.374C273.185 628.915 273.299 629.495 273.296 630.081V630.081Z" fill="#E0E0E0"/>
<path d="M137.623 709.351L119.842 809.334H129.846L162.623 709.351H137.623Z" fill="#E0E0E0"/>
<path d="M417.229 709.351L432.096 809.501H422.092L392.229 709.351H417.229Z" fill="#E0E0E0"/>
<path d="M483.99 709.351L500.823 809.501H490.82L458.989 709.351H483.99Z" fill="#E0E0E0"/>
<path d="M272.999 675.238C272.999 676.119 272.738 676.98 272.249 677.713C271.759 678.445 271.063 679.016 270.249 679.353C269.436 679.69 268.54 679.779 267.676 679.607C266.812 679.435 266.018 679.011 265.395 678.388C264.772 677.765 264.348 676.971 264.176 676.107C264.004 675.243 264.092 674.347 264.43 673.533C264.767 672.719 265.338 672.024 266.07 671.534C266.803 671.045 267.664 670.783 268.545 670.783C269.725 670.788 270.855 671.259 271.689 672.094C272.524 672.928 272.994 674.058 272.999 675.238V675.238Z" fill="#E0E0E0"/>
<path d="M105.328 652.168H432.356C432.456 652.147 432.546 652.092 432.611 652.013C432.675 651.933 432.711 651.834 432.711 651.732C432.711 651.629 432.675 651.53 432.611 651.45C432.546 651.371 432.456 651.316 432.356 651.295H105.328C105.228 651.316 105.138 651.371 105.073 651.45C105.008 651.53 104.973 651.629 104.973 651.732C104.973 651.834 105.008 651.933 105.073 652.013C105.138 652.092 105.228 652.147 105.328 652.168V652.168Z" fill="#E0E0E0"/>
<path d="M337.422 496.02L337.31 474.77L232.912 475.316L233.023 496.567L337.422 496.02Z" fill="#E0E0E0"/>
<path d="M349.96 549.618L349.787 516.6L233.417 517.209L233.59 550.227L349.96 549.618Z" fill="#F5F5F5"/>
<path d="M327.566 549.419C327.25 549.419 326.99 541.995 326.99 532.92C326.99 523.844 327.25 516.401 327.566 516.401C327.881 516.401 328.123 523.825 328.123 532.92C328.123 542.014 327.881 549.419 327.566 549.419Z" fill="#E0E0E0"/>
<path d="M332.447 549.419C332.132 549.419 331.89 541.995 331.89 532.92C331.89 523.844 332.132 516.401 332.447 516.401C332.763 516.401 333.022 523.825 333.022 532.92C333.022 542.014 332.763 549.419 332.447 549.419Z" fill="#E0E0E0"/>
<path d="M251.117 549.419C250.802 549.419 250.56 541.995 250.56 532.92C250.56 523.844 250.802 516.401 251.117 516.401C251.433 516.401 251.692 523.825 251.692 532.92C251.692 542.014 251.433 549.419 251.117 549.419Z" fill="#E0E0E0"/>
<path d="M256.017 549.419C255.701 549.419 255.442 541.995 255.442 532.92C255.442 523.844 255.701 516.401 256.017 516.401C256.567 521.889 256.753 527.407 256.574 532.92C256.752 538.426 256.566 543.938 256.017 549.419V549.419Z" fill="#E0E0E0"/>
<path d="M266.67 533.439C266.67 533.124 278.419 532.864 292.896 532.864C307.373 532.864 319.121 533.124 319.121 533.439C319.121 533.755 307.373 534.015 292.896 534.015C278.419 534.015 266.67 533.755 266.67 533.439Z" fill="#E0E0E0"/>
<path d="M393.665 516.422L393.553 495.171L249.957 495.923L250.068 517.174L393.665 516.422Z" fill="#EBEBEB"/>
<path d="M373.112 513.803C371.745 513.821 370.404 513.433 369.26 512.687C368.115 511.94 367.218 510.87 366.683 509.613C366.148 508.355 365.999 506.967 366.256 505.625C366.513 504.282 367.163 503.047 368.124 502.075C369.085 501.104 370.313 500.44 371.653 500.169C372.992 499.898 374.382 500.031 375.645 500.552C376.909 501.074 377.988 501.959 378.747 503.096C379.505 504.232 379.908 505.569 379.905 506.936C379.91 507.833 379.738 508.722 379.399 509.552C379.061 510.383 378.562 511.139 377.931 511.776C377.3 512.414 376.55 512.921 375.723 513.269C374.896 513.617 374.009 513.798 373.112 513.803V513.803Z" fill="#E0E0E0"/>
<path d="M354.459 509.051V504.801H258.337V509.051H354.459Z" fill="#E0E0E0"/>
<path d="M531.522 379.076L525.007 380.134L507.579 362.631L505.482 349.639C505.482 349.639 495.311 350.66 499.264 367.476C503.218 384.291 501.213 380.189 501.213 380.189C501.213 380.189 479.851 383.734 478.384 385.869C477.308 387.428 480.148 408.753 481.799 420.297C482.106 423.099 483.341 425.718 485.309 427.737C487.277 429.755 489.864 431.056 492.657 431.433C493.439 431.536 494.232 431.536 495.014 431.433C500.341 430.58 526.882 421.838 526.882 421.838L538.129 419.982L531.522 379.076Z" fill="#EBEBEB"/>
<path d="M549.562 372.487L552.754 417.68L541.618 419.481L534.547 375.846L549.562 372.487Z" fill="#EBEBEB"/>
<path d="M162.604 261.517C160.988 257.884 158.292 254.838 154.883 252.793C151.626 250.647 147.775 249.582 143.877 249.749C140.581 249.97 137.448 251.268 134.963 253.445C132.477 255.622 130.777 258.556 130.124 261.795C127.821 259.586 124.873 258.168 121.709 257.747C118.546 257.327 115.33 257.926 112.529 259.456C109.151 261.397 106.47 264.352 104.864 267.901C103.078 271.455 102.43 275.473 103.008 279.408C103.824 284.413 106.232 289.021 109.875 292.549C113.93 296.02 118.752 298.476 123.944 299.713C132.426 301.959 143.525 304.65 143.525 304.65C143.525 304.65 149.817 296.317 155.774 289.802C159.504 285.988 162.266 281.335 163.829 276.235C165.004 271.324 164.575 266.166 162.604 261.517Z" fill="#EBEBEB"/>
<path d="M665.562 412.743C665.098 410.33 663.898 408.119 662.129 406.414C660.475 404.67 658.312 403.494 655.948 403.055C653.932 402.722 651.863 403.063 650.061 404.026C648.258 404.989 646.825 406.52 645.981 408.382C644.904 406.735 643.33 405.474 641.489 404.78C639.647 404.086 637.633 403.995 635.736 404.521C633.429 405.219 631.398 406.621 629.927 408.53C628.362 410.428 627.416 412.76 627.217 415.212C627.014 418.333 627.821 421.437 629.519 424.065C631.461 426.71 634.006 428.854 636.943 430.32C641.731 432.862 648.079 436.036 648.079 436.036C648.079 436.036 653.016 431.879 657.507 428.835C660.288 427.068 662.599 424.655 664.245 421.801C665.648 419.002 666.11 415.825 665.562 412.743V412.743Z" fill="#EBEBEB"/>
<path d="M428.625 27.2333C430.916 26.2035 432.859 24.5317 434.22 22.4202C435.58 20.3087 436.299 17.8482 436.29 15.3364C436.389 13.6964 436.151 12.0537 435.593 10.5085C435.035 8.96335 434.168 7.54825 433.044 6.34972C431.92 5.15118 430.564 4.19439 429.058 3.53783C427.552 2.88126 425.928 2.53872 424.285 2.53113C422.642 2.52355 421.015 2.85109 419.503 3.49373C417.991 4.13636 416.626 5.0806 415.491 6.26871C414.357 7.45682 413.476 8.86385 412.904 10.4038C412.331 11.9437 412.079 13.5842 412.162 15.225C412.114 17.7618 412.818 20.256 414.185 22.3932C415.553 24.5303 417.522 26.2145 419.846 27.2333C401.286 30.0359 402.14 50.1921 402.14 50.1921L446.016 50.3962C446.016 50.3962 447.018 30.0174 428.625 27.2333Z" fill="#EBEBEB"/>
<path d="M75.762 416.066C80.0397 414.448 83.7491 411.611 86.431 407.906C89.113 404.202 90.6498 399.792 90.8513 395.223C91.5937 382.231 82.4065 371.299 70.3054 370.594C58.2042 369.888 47.8106 379.762 47.1053 392.662C46.7711 397.261 47.8052 401.856 50.0775 405.869C52.3498 409.882 55.7586 413.133 59.8746 415.212C25.9098 418.46 25.4458 455.172 25.4458 455.172L105.124 459.849C105.124 459.849 108.892 422.914 75.762 416.066Z" fill="#F5F5F5"/>
<path d="M780.931 809.501C780.931 809.78 606.096 809.984 390.484 809.984C174.872 809.984 0 809.78 0 809.501C0 809.223 174.798 809.019 390.484 809.019C606.17 809.019 780.931 809.241 780.931 809.501Z" fill="#263238"/>
<path d="M646.334 708.869C671.353 695.171 699.434 670.338 710.255 642.219C682.453 657.14 660.08 680.468 646.334 708.869" fill="#455A64"/>
<path d="M647.745 666.793C672.763 653.096 700.845 628.262 711.665 600.144C683.863 615.064 661.49 638.392 647.745 666.793" fill="#455A64"/>
<path d="M651.271 625.664C676.29 611.948 704.371 587.115 715.192 559.015C687.386 573.93 665.012 597.259 651.271 625.664Z" fill="#455A64"/>
<path d="M656.523 582.438C679.705 565.344 704.612 536.78 712.018 507.381C686.215 526.071 666.829 552.29 656.523 582.438Z" fill="#455A64"/>
<path d="M663.428 549.067C679.037 523.769 692.289 487.151 689.041 456.861C671.633 484.414 662.725 516.483 663.428 549.067" fill="#455A64"/>
<path d="M659.939 564.954C653.127 533.551 636.776 494.834 613.427 473.101C620.416 507.334 636.481 539.059 659.939 564.954" fill="#455A64"/>
<path d="M654.964 600.552C645.295 568.425 625.083 529.542 598.95 508.94C609.047 543.957 628.397 575.605 654.964 600.552" fill="#455A64"/>
<path d="M649.489 643.89C639.819 611.781 619.608 572.879 593.494 552.278C603.576 587.297 622.921 618.947 649.489 643.89" fill="#455A64"/>
<path d="M646.909 696.712C637.24 664.584 617.028 625.682 590.895 605.099C600.996 640.115 620.346 671.762 646.909 696.712" fill="#455A64"/>
<path d="M664.022 542.719C663.943 542.884 663.887 543.059 663.855 543.239C663.768 543.635 663.657 544.136 663.521 544.742C663.205 546.153 662.797 548.12 662.258 550.588C661.182 555.674 659.771 563.061 658.175 572.211C656.579 581.361 654.872 592.274 653.22 604.45C651.568 616.625 650.102 630.025 648.858 644.149C647.615 658.274 646.872 671.748 646.353 684.016C645.833 696.285 645.684 707.346 645.703 716.645C645.721 725.944 645.814 733.442 646.018 738.62C646.111 741.163 646.185 743.149 646.223 744.596C646.223 745.227 646.223 745.747 646.315 746.155C646.253 746.169 646.198 746.205 646.16 746.257C646.123 746.309 646.106 746.373 646.113 746.437C646.12 746.501 646.15 746.56 646.198 746.603C646.245 746.645 646.307 746.669 646.371 746.669C646.435 746.669 646.497 746.645 646.545 746.603C646.592 746.56 646.623 746.501 646.629 746.437C646.636 746.373 646.619 746.309 646.582 746.257C646.545 746.205 646.489 746.169 646.427 746.155C646.427 745.747 646.427 745.227 646.427 744.596C646.427 743.149 646.427 741.144 646.427 738.62C646.427 733.423 646.427 725.925 646.427 716.645C646.427 707.365 646.779 696.322 647.299 684.054C647.819 671.785 648.673 658.348 649.879 644.242C651.085 630.137 652.607 616.736 654.166 604.561C655.725 592.386 657.377 581.472 658.899 572.322C660.421 563.172 661.702 555.767 662.611 550.681C663.057 548.176 663.409 546.208 663.65 544.798C663.762 544.167 663.836 543.666 663.91 543.257C663.972 543.084 664.01 542.903 664.022 542.719V542.719Z" fill="#455A64"/>
<path d="M664.022 542.719C663.943 542.884 663.887 543.059 663.855 543.239C663.768 543.635 663.657 544.136 663.521 544.742C663.205 546.153 662.797 548.12 662.258 550.588C661.182 555.674 659.771 563.061 658.175 572.211C656.579 581.361 654.872 592.274 653.22 604.45C651.568 616.625 650.102 630.025 648.858 644.149C647.615 658.274 646.872 671.748 646.353 684.016C645.833 696.285 645.684 707.346 645.703 716.645C645.721 725.944 645.814 733.442 646.018 738.62C646.111 741.163 646.185 743.149 646.223 744.596C646.223 745.227 646.223 745.747 646.315 746.155C646.253 746.169 646.198 746.205 646.16 746.257C646.123 746.309 646.106 746.373 646.113 746.437C646.12 746.501 646.15 746.56 646.198 746.603C646.245 746.645 646.307 746.669 646.371 746.669C646.435 746.669 646.497 746.645 646.545 746.603C646.592 746.56 646.623 746.501 646.629 746.437C646.636 746.373 646.619 746.309 646.582 746.257C646.545 746.205 646.489 746.169 646.427 746.155C646.427 745.747 646.427 745.227 646.427 744.596C646.427 743.149 646.427 741.144 646.427 738.62C646.427 733.423 646.427 725.925 646.427 716.645C646.427 707.365 646.779 696.322 647.299 684.054C647.819 671.785 648.673 658.348 649.879 644.242C651.085 630.137 652.607 616.736 654.166 604.561C655.725 592.386 657.377 581.472 658.899 572.322C660.421 563.172 661.702 555.767 662.611 550.681C663.057 548.176 663.409 546.208 663.65 544.798C663.762 544.167 663.836 543.666 663.91 543.257C663.972 543.084 664.01 542.903 664.022 542.719V542.719Z" fill="#455A64"/>
<path d="M635.458 719.8C647.021 695.264 655.317 660.835 649.433 634.016C636.527 660.642 631.67 690.455 635.458 719.8" fill="#263238"/>
<path d="M615.766 688.23C627.31 663.693 635.625 629.265 629.741 602.445C616.835 629.071 611.978 658.884 615.766 688.23" fill="#263238"/>
<path d="M598.171 656.065C609.715 631.547 618.03 597.1 612.147 570.281C599.234 596.905 594.376 626.72 598.171 656.065" fill="#263238"/>
<path d="M580.817 621.469C589.355 595.485 593.531 560.221 584.529 534.423C574.889 562.467 573.599 592.707 580.817 621.469" fill="#263238"/>
<path d="M569.477 593.091C568.475 565.529 560.197 531.082 542.973 510.833C543.518 540.263 552.738 568.878 569.477 593.091" fill="#263238"/>
<path d="M574.729 606.714C554.313 587.709 523.448 568.889 495.738 566.55C517.516 587.457 545.006 601.434 574.729 606.714" fill="#263238"/>
<path d="M588.557 635.649C565.747 617.776 531.912 601.072 502.754 601.165C527.299 620.92 557.167 632.924 588.557 635.649Z" fill="#263238"/>
<path d="M605.762 670.468C582.952 652.595 549.117 635.89 519.959 635.983C544.504 655.739 574.372 667.743 605.762 670.468Z" fill="#263238"/>
<path d="M629.89 710.576C607.08 692.703 573.263 675.999 544.087 676.091C568.638 695.836 598.503 707.839 629.89 710.576" fill="#263238"/>
<path d="M566.786 588.099C566.81 588.252 566.854 588.402 566.916 588.544C567.046 588.897 567.194 589.324 567.398 589.843C567.862 591.05 568.512 592.702 569.254 594.78C570.925 599.086 573.486 605.23 576.771 612.783C583.341 627.891 593.048 648.511 605.094 670.579C611.144 681.604 617.176 691.96 622.856 701.259C628.535 710.558 633.843 718.817 638.465 725.628C643.086 732.44 646.854 737.952 649.601 741.664C650.937 743.52 651.976 744.894 652.737 745.952L653.572 747.047C653.758 747.288 653.869 747.418 653.888 747.399C653.837 747.252 653.762 747.114 653.665 746.991C653.461 746.675 653.201 746.304 652.904 745.822L649.935 741.441C647.318 737.729 643.606 732.161 639.096 725.239C634.585 718.316 629.352 710.075 623.691 700.776C618.03 691.478 612.072 681.103 606.04 670.097C593.995 648.047 584.195 627.52 577.476 612.561C574.098 605.137 571.444 598.956 569.644 594.706C568.772 592.664 568.066 590.994 567.547 589.843L566.971 588.581C566.936 588.411 566.874 588.248 566.786 588.099V588.099Z" fill="#263238"/>
<path d="M579.759 723.048L695.815 722.417L695.926 744.801L684.011 744.856L674.582 809.222L602.569 809.093L591.897 745.357L579.871 745.413L579.759 723.048Z" fill="#0EA9F1"/>
<path d="M579.871 744.949C579.871 744.652 605.669 744.281 637.407 744.095C669.144 743.909 694.943 744.095 694.943 744.336C694.943 744.578 669.163 745.005 637.407 745.172C605.65 745.339 579.871 745.246 579.871 744.949Z" fill="#263238"/>
<path d="M86.8979 733.053L98.5351 809.501H166.131L181.832 734.148L86.8979 733.053Z" fill="#0EA9F1"/>
<path d="M172.367 782.051C172.367 782.274 155.05 782.441 133.688 782.441C112.325 782.441 94.9901 782.274 94.9901 782.051C94.9901 781.828 112.325 781.661 133.688 781.661C155.05 781.661 172.367 781.828 172.367 782.051Z" fill="#FAFAFA"/>
<path d="M172.627 778.283C172.627 778.506 155.199 778.691 133.651 778.691C112.102 778.691 94.6746 778.506 94.6746 778.283C94.6746 778.06 112.121 777.893 133.651 777.893C155.18 777.893 172.627 778.079 172.627 778.283Z" fill="#FAFAFA"/>
<path d="M172.497 774.033C172.497 774.256 155.069 774.441 133.521 774.441C111.973 774.441 94.5447 774.256 94.5447 774.033C94.5447 773.81 111.991 773.643 133.521 773.643C155.05 773.643 172.497 773.829 172.497 774.033Z" fill="#FAFAFA"/>
<path d="M106.293 805.14C105.36 801.993 104.671 798.779 104.233 795.526C103.539 792.312 103.104 789.047 102.934 785.763C104.585 792.119 105.708 798.6 106.293 805.14V805.14Z" fill="#FAFAFA"/>
<path d="M110.896 804.341C110.211 798.088 109.783 791.81 109.615 785.521C110.365 788.592 110.782 791.734 110.859 794.894C111.205 798.033 111.218 801.2 110.896 804.341V804.341Z" fill="#FAFAFA"/>
<path d="M119.285 804.323C118.327 801.187 117.705 797.958 117.429 794.69C116.926 791.462 116.752 788.191 116.91 784.928C117.528 788.13 117.962 791.364 118.209 794.616C118.756 797.828 119.115 801.069 119.285 804.323V804.323Z" fill="#FAFAFA"/>
<path d="M125.169 804.731C124.518 801.512 124.201 798.234 124.222 794.95C123.987 791.67 124.087 788.374 124.519 785.113C124.873 788.368 125.041 791.64 125.02 794.913C125.255 798.18 125.305 801.458 125.169 804.731V804.731Z" fill="#FAFAFA"/>
<path d="M135.581 804.341C135.079 801.274 134.837 798.169 134.857 795.061C134.594 791.974 134.594 788.869 134.857 785.781C135.357 788.849 135.593 791.953 135.562 795.061C135.836 798.148 135.842 801.253 135.581 804.341V804.341Z" fill="#FAFAFA"/>
<path d="M143.19 804.731C142.813 801.547 142.708 798.337 142.875 795.136C142.764 791.924 142.919 788.708 143.339 785.521C143.716 788.711 143.822 791.928 143.654 795.136C143.766 798.341 143.611 801.551 143.19 804.731V804.731Z" fill="#FAFAFA"/>
<path d="M150.318 803.71C150.403 797.002 151.024 790.312 152.174 783.703C152.239 787.059 152.046 790.416 151.598 793.744C151.437 797.095 151.009 800.427 150.318 803.71V803.71Z" fill="#FAFAFA"/>
<path d="M159.523 802.69C159.527 799.807 159.907 796.937 160.655 794.152C161.137 791.31 161.979 788.541 163.161 785.912C162.754 788.746 162.178 791.554 161.435 794.319C160.95 797.142 160.312 799.937 159.523 802.69V802.69Z" fill="#FAFAFA"/>
<path d="M153.009 582.159C153.017 582.283 153.017 582.407 153.009 582.531C153.009 582.828 152.823 583.18 152.693 583.626C152.396 584.628 151.951 586.001 151.413 587.746C150.874 589.491 150.151 591.718 149.427 594.279C148.703 596.84 147.793 599.847 146.995 603.002C146.197 606.158 145.139 609.795 144.36 613.656C143.58 617.516 142.634 621.618 141.743 625.961C140.128 634.684 138.643 644.317 137.604 654.506C136.565 664.696 136.156 674.44 136.026 683.293C136.026 687.729 136.026 691.942 136.156 695.895C136.286 699.848 136.435 703.505 136.62 706.846C136.806 710.186 137.084 713.212 137.288 715.866C137.493 718.52 137.734 720.821 137.957 722.677C138.179 724.533 138.291 725.925 138.402 726.983C138.402 727.429 138.402 727.8 138.402 728.097C138.402 728.394 138.402 728.487 138.402 728.487C138.388 728.363 138.388 728.239 138.402 728.115C138.402 727.818 138.346 727.447 138.235 727.002C138.086 725.962 137.901 724.533 137.641 722.714C137.381 720.896 137.084 718.576 136.862 715.921C136.639 713.267 136.249 710.242 136.063 706.883C135.878 703.523 135.599 699.867 135.488 695.914C135.377 691.96 135.321 687.729 135.302 683.293C135.302 674.403 135.822 664.64 136.824 654.432C137.827 644.224 139.367 634.554 141.038 625.831C141.928 621.47 142.745 617.331 143.71 613.507C144.675 609.684 145.566 606.083 146.457 602.854C147.348 599.624 148.313 596.71 149 594.168C149.687 591.625 150.503 589.416 151.116 587.653C151.728 585.89 152.211 584.554 152.545 583.57C152.706 583.137 152.836 582.784 152.935 582.512C152.897 582.271 152.99 582.159 153.009 582.159Z" fill="#455A64"/>
<path d="M140.796 629.506C142.667 624 146.385 619.312 151.32 616.236C152.092 615.62 153.004 615.205 153.976 615.027C154.947 614.848 155.947 614.913 156.888 615.215C159.245 616.347 159.449 619.669 158.744 622.193C157.523 626.477 154.803 630.18 151.078 632.624C147.781 635.053 143.663 636.093 139.608 635.519" fill="#455A64"/>
<path d="M136.695 661.485C138.439 654.878 143.71 645.505 149.167 641.422C150.005 640.733 150.969 640.216 152.007 639.9C152.528 639.75 153.079 639.73 153.61 639.844C154.141 639.957 154.635 640.199 155.05 640.549C155.517 641.167 155.822 641.89 155.939 642.655C156.055 643.42 155.98 644.201 155.719 644.93C154.605 649.745 152.17 654.155 148.688 657.663C145.206 661.171 140.815 663.639 136.008 664.789" fill="#455A64"/>
<path d="M135.562 689.622C138.277 683.321 142.62 677.857 148.146 673.79C148.737 673.249 149.431 672.831 150.187 672.564C150.943 672.296 151.744 672.183 152.545 672.231C154.939 672.658 156.016 675.572 155.811 678.003C155.366 682.977 151.58 686.968 147.645 690.049C144.042 692.543 140.131 694.559 136.008 696.044" fill="#455A64"/>
<path d="M136.193 709.89C138.829 705.085 142.492 700.922 146.921 697.696C147.864 696.97 148.964 696.474 150.132 696.248C150.718 696.146 151.32 696.205 151.875 696.417C152.431 696.63 152.918 696.988 153.287 697.454C154.345 699.032 153.287 701.166 152.174 702.688C148.389 707.924 143.041 711.823 136.899 713.824" fill="#455A64"/>
<path d="M135.674 701.63C131.053 695.98 125.928 690.762 120.362 686.04C119.489 685.298 118.394 684.518 117.299 684.871C116.893 685.043 116.545 685.329 116.298 685.695C116.051 686.06 115.915 686.49 115.907 686.931C115.892 687.818 116.089 688.696 116.483 689.492C118.3 693.578 121.016 697.2 124.429 700.09C127.842 702.979 131.864 705.06 136.193 706.178" fill="#455A64"/>
<path d="M136.193 675.312L124.167 660.631C123.107 659.165 121.785 657.907 120.269 656.919C119.495 656.447 118.605 656.197 117.698 656.197C116.791 656.197 115.902 656.447 115.128 656.919C114.433 657.492 113.91 658.246 113.618 659.098C113.327 659.95 113.277 660.866 113.476 661.745C113.91 663.503 114.713 665.148 115.833 666.57C118.174 670.163 121.141 673.306 124.593 675.851C128.138 678.282 131.349 679.859 135.581 679.228" fill="#455A64"/>
<path d="M137.827 645.672C135.476 638.644 131.3 632.367 125.726 627.483C124.849 626.606 123.763 625.967 122.57 625.627C121.335 625.522 120.103 625.852 119.086 626.561C118.069 627.269 117.332 628.311 117.002 629.506C116.618 630.836 116.516 632.232 116.705 633.603C116.893 634.975 117.368 636.292 118.097 637.468C119.537 639.811 121.43 641.843 123.665 643.445C127.715 646.55 132.232 648.993 137.047 650.683" fill="#455A64"/>
<path d="M142.634 619.242C141.483 610.742 137.066 603.652 131.925 596.785C130.848 595.319 129.326 593.797 127.544 594.057C126.98 594.177 126.455 594.438 126.017 594.814C125.58 595.19 125.243 595.67 125.039 596.209C124.628 597.298 124.463 598.465 124.556 599.625C124.777 604.776 126.511 609.749 129.541 613.921C132.572 618.093 136.764 621.28 141.594 623.084" fill="#455A64"/>
<path d="M146.012 605.749C145.446 601.387 145.297 596.981 145.566 592.59C145.849 588.18 147.359 583.937 149.928 580.341C151.034 578.797 152.552 577.594 154.308 576.87C155.188 576.522 156.143 576.404 157.081 576.527C158.02 576.651 158.911 577.011 159.672 577.575C160.317 578.17 160.819 578.903 161.141 579.719C161.462 580.536 161.595 581.414 161.528 582.289C161.382 584.04 160.923 585.75 160.173 587.338C156.981 595.04 151.635 603.578 146.049 605.749" fill="#455A64"/>
<path d="M93.5981 615.883C93.622 616.241 93.622 616.601 93.5981 616.96C93.5981 617.739 93.5981 618.816 93.5981 620.04C93.5981 621.265 93.5981 623.029 93.5981 624.922C93.5981 626.815 93.5981 628.986 93.8394 631.381C94.0436 636.169 94.5076 641.849 95.2314 648.085C95.9553 654.321 97.0874 661.244 98.5537 668.389C100.02 675.535 101.857 682.254 103.676 688.323C105.495 694.392 107.388 699.756 109.133 704.229C109.931 706.475 110.803 708.46 111.509 710.242C112.214 712.024 112.863 713.509 113.365 714.734C113.866 715.959 114.255 716.85 114.571 717.573C114.722 717.903 114.847 718.244 114.942 718.594C114.744 718.293 114.571 717.976 114.422 717.648C114.088 716.942 113.624 716.014 113.086 714.864C112.548 713.713 111.806 712.172 111.063 710.409C110.321 708.646 109.411 706.697 108.558 704.433C106.702 699.978 104.846 694.596 102.99 688.546C101.134 682.495 99.2775 675.721 97.8113 668.556C96.345 661.392 95.2685 654.469 94.5261 648.14C93.7837 641.811 93.5053 636.206 93.5053 631.399C93.394 629.005 93.5053 626.833 93.394 624.922C93.2826 623.01 93.394 621.377 93.394 620.04C93.394 618.704 93.394 617.739 93.5239 616.96C93.4961 616.599 93.5211 616.236 93.5981 615.883Z" fill="#263238"/>
<path d="M95.4727 650.739C95.5413 646.561 97.0639 642.538 99.7786 639.361C100.176 638.785 100.708 638.314 101.329 637.99C101.951 637.667 102.642 637.5 103.342 637.505C105.198 637.784 106.033 639.993 106.089 641.867C106.186 645.041 105.138 648.143 103.138 650.609C101.408 652.974 98.825 654.571 95.9367 655.063" fill="#263238"/>
<path d="M99.5559 673.382C99.3332 668.519 100.892 661.002 103.732 657.049C104.157 656.399 104.706 655.837 105.347 655.397C105.671 655.188 106.041 655.06 106.426 655.024C106.81 654.989 107.198 655.047 107.555 655.193C108.004 655.515 108.366 655.942 108.609 656.438C108.851 656.933 108.968 657.481 108.947 658.033C109.224 661.551 108.514 665.077 106.898 668.215C105.281 671.352 102.822 673.977 99.7972 675.795" fill="#263238"/>
<path d="M104.845 692.796C105.339 687.92 107.119 683.263 110.005 679.303C110.592 678.312 111.545 677.591 112.659 677.298C114.385 677.075 115.759 678.839 116.13 680.528C116.909 683.998 115.165 687.543 113.16 690.494C111.235 692.966 108.995 695.174 106.497 697.065" fill="#263238"/>
<path d="M109.634 706.437C110.392 702.597 111.989 698.972 114.311 695.821C114.795 695.131 115.43 694.56 116.167 694.151C116.541 693.953 116.963 693.862 117.385 693.888C117.808 693.914 118.215 694.057 118.561 694.299C119.638 695.134 119.397 696.805 118.951 698.011C117.506 702.408 114.706 706.235 110.952 708.943" fill="#263238"/>
<path d="M107.5 700.944C103.143 698.089 98.5329 695.642 93.7281 693.631C93.3801 693.416 92.9838 693.291 92.5753 693.268C92.1668 693.246 91.7591 693.326 91.3895 693.501C91.1479 693.705 90.9716 693.976 90.8825 694.28C90.7934 694.583 90.7954 694.906 90.8884 695.209C91.0746 695.813 91.3986 696.366 91.8349 696.823C93.9534 699.2 96.5805 701.068 99.5207 702.289C102.461 703.51 105.639 704.053 108.817 703.876" fill="#263238"/>
<path d="M102.173 682.922L90.8142 675.498C89.7742 674.736 88.6044 674.17 87.362 673.827C86.7418 673.615 86.0703 673.603 85.443 673.794C84.8157 673.985 84.2645 674.368 83.8678 674.89C83.4711 675.412 83.2491 676.046 83.2333 676.702C83.2175 677.357 83.4088 678.001 83.7799 678.542C84.4481 679.643 85.3473 680.587 86.4154 681.307C88.785 683.261 91.4889 684.77 94.3962 685.761C95.6924 686.317 97.0878 686.603 98.498 686.603C99.9082 686.603 101.304 686.317 102.6 685.761" fill="#263238"/>
<path d="M96.939 662.376C93.8175 658.107 89.6237 654.74 84.7822 652.613C83.992 652.205 83.1099 652.006 82.2209 652.038C81.3693 652.242 80.6145 652.735 80.0836 653.431C79.5528 654.128 79.2784 654.986 79.3069 655.861C79.3312 656.852 79.5635 657.827 79.9888 658.722C80.414 659.617 81.0228 660.413 81.7754 661.058C83.2775 662.335 85.0189 663.301 86.898 663.898C90.3253 665.137 93.9272 665.826 97.57 665.939" fill="#263238"/>
<path d="M94.5076 643.352C91.8906 637.784 87.362 633.942 82.3879 630.36C81.33 629.617 79.9751 628.894 78.8243 629.469C78.4639 629.672 78.1597 629.961 77.9394 630.311C77.719 630.661 77.5894 631.061 77.5623 631.473C77.5316 632.297 77.6705 633.118 77.9706 633.886C79.2343 637.354 81.4935 640.371 84.465 642.56C87.4366 644.749 90.9882 646.013 94.6746 646.191" fill="#263238"/>
<path d="M93.8951 633.441C92.5766 630.57 91.5326 627.581 90.777 624.513C90.009 621.451 90.1248 618.233 91.1111 615.233C91.5285 613.94 92.3001 612.789 93.3383 611.911C93.8532 611.501 94.4619 611.225 95.1099 611.108C95.7579 610.992 96.4246 611.038 97.0503 611.243C97.6135 611.515 98.109 611.91 98.5006 612.398C98.8923 612.886 99.1703 613.455 99.3146 614.064C99.5755 615.284 99.6257 616.539 99.4631 617.776C98.9434 623.715 97.1431 630.675 93.8023 633.348" fill="#263238"/>
<path d="M179.067 615.233C179.125 615.589 179.156 615.949 179.16 616.31C179.16 617.089 179.16 618.166 179.271 619.391C179.383 620.616 179.271 622.379 179.271 624.272C179.271 626.165 179.271 628.355 179.16 630.75C179.011 635.557 178.603 641.255 177.916 647.565C177.23 653.875 176.06 660.78 174.65 667.981C173.239 675.182 171.309 681.901 169.453 687.97C167.597 694.039 165.63 699.403 163.885 703.857C163.031 706.103 162.14 708.089 161.379 709.834C160.618 711.578 159.95 713.082 159.375 714.288C158.799 715.495 158.373 716.367 158.02 717.072C157.881 717.405 157.707 717.723 157.5 718.019C157.596 717.669 157.72 717.327 157.871 716.998C158.187 716.274 158.577 715.328 159.078 714.158C159.579 712.989 160.284 711.43 160.934 709.667C161.583 707.904 162.511 705.955 163.328 703.653C165.054 699.199 166.91 693.798 168.766 687.747C170.622 681.697 172.367 674.96 173.889 667.814C175.411 660.668 176.431 653.783 177.211 647.509C177.991 641.236 178.399 635.538 178.603 630.805C178.77 628.411 178.789 626.258 178.844 624.346C178.9 622.435 178.844 620.801 178.844 619.465C178.844 618.129 178.844 617.164 178.844 616.384C178.867 615.992 178.942 615.605 179.067 615.233V615.233Z" fill="#455A64"/>
<path d="M177.174 649.996C177.088 645.844 175.567 641.85 172.868 638.693C172.471 638.116 171.938 637.646 171.317 637.322C170.696 636.998 170.005 636.832 169.304 636.837C167.448 637.116 166.613 639.324 166.558 641.199C166.461 644.372 167.508 647.475 169.509 649.941C171.229 652.316 173.817 653.916 176.71 654.395" fill="#455A64"/>
<path d="M173.091 672.658C173.314 667.777 171.754 660.26 168.915 656.307C168.495 655.652 167.945 655.09 167.3 654.655C166.976 654.445 166.605 654.317 166.221 654.282C165.836 654.246 165.449 654.304 165.091 654.451C164.643 654.772 164.281 655.2 164.038 655.695C163.795 656.191 163.679 656.739 163.699 657.29C163.423 660.809 164.133 664.335 165.749 667.472C167.365 670.61 169.824 673.235 172.85 675.052" fill="#455A64"/>
<path d="M167.745 692.053C167.252 687.178 165.472 682.521 162.586 678.56C161.999 677.569 161.045 676.849 159.932 676.556C158.206 676.333 156.851 678.096 156.461 679.785C155.681 683.256 157.426 686.801 159.43 689.752C161.344 692.221 163.571 694.43 166.056 696.322" fill="#455A64"/>
<path d="M163.013 705.695C162.253 701.859 160.663 698.235 158.354 695.079C157.87 694.388 157.235 693.817 156.498 693.408C156.123 693.212 155.702 693.123 155.28 693.149C154.858 693.175 154.452 693.316 154.104 693.557C153.027 694.392 153.269 696.062 153.714 697.269C155.159 701.666 157.96 705.493 161.713 708.201" fill="#455A64"/>
<path d="M165.147 700.201C169.512 697.35 174.128 694.903 178.937 692.888C179.282 692.673 179.675 692.548 180.08 692.526C180.486 692.503 180.891 692.583 181.257 692.758C181.496 692.965 181.672 693.235 181.764 693.537C181.856 693.839 181.86 694.161 181.777 694.466C181.576 695.064 181.253 695.613 180.83 696.081C178.707 698.457 176.077 700.324 173.134 701.545C170.191 702.766 167.011 703.309 163.829 703.133" fill="#455A64"/>
<path d="M170.474 682.179L181.832 674.755C182.872 673.994 184.042 673.428 185.285 673.085C185.91 672.923 186.568 672.936 187.187 673.123C187.805 673.309 188.361 673.662 188.792 674.143C189.146 674.697 189.334 675.341 189.334 675.999C189.334 676.656 189.146 677.3 188.792 677.855C188.12 678.958 187.222 679.907 186.157 680.639C183.781 682.584 181.079 684.092 178.176 685.093C176.879 685.645 175.484 685.929 174.074 685.929C172.665 685.929 171.27 685.645 169.973 685.093" fill="#455A64"/>
<path d="M175.726 661.633C178.836 657.361 183.025 653.992 187.865 651.871C188.655 651.462 189.537 651.264 190.426 651.295C191.277 651.5 192.032 651.992 192.563 652.689C193.094 653.385 193.368 654.244 193.34 655.119C193.317 656.11 193.085 657.085 192.659 657.98C192.234 658.876 191.625 659.672 190.871 660.316C189.369 661.593 187.628 662.558 185.749 663.155C182.322 664.396 178.72 665.086 175.077 665.197" fill="#455A64"/>
<path d="M178.139 642.609C180.756 637.041 185.285 633.199 190.259 629.617C190.724 629.166 191.3 628.845 191.928 628.685C192.557 628.526 193.216 628.533 193.841 628.708C194.196 628.916 194.494 629.207 194.711 629.556C194.928 629.905 195.056 630.302 195.084 630.712C195.115 631.536 194.976 632.357 194.676 633.125C193.412 636.593 191.153 639.61 188.182 641.799C185.21 643.989 181.658 645.252 177.972 645.43" fill="#455A64"/>
<path d="M178.752 632.698C180.066 629.851 181.11 626.887 181.87 623.845C182.638 620.783 182.522 617.565 181.536 614.565C181.118 613.272 180.347 612.121 179.308 611.243C178.793 610.833 178.185 610.557 177.537 610.44C176.889 610.324 176.222 610.37 175.596 610.575C175.032 610.843 174.534 611.234 174.139 611.719C173.744 612.204 173.462 612.77 173.313 613.377C173.053 614.597 173.002 615.853 173.165 617.089C173.685 623.029 175.485 630.082 178.826 632.661" fill="#455A64"/>
<path d="M79.1399 717.907V732.161C79.1399 733.638 79.7265 735.054 80.7707 736.098C81.8149 737.143 83.2312 737.729 84.7079 737.729H182.593C184.07 737.729 185.486 737.143 186.531 736.098C187.575 735.054 188.161 733.638 188.161 732.161V717.852L79.1399 717.907Z" fill="#0EA9F1"/>
<g opacity="0.4">
<path opacity="0.4" d="M87.6218 737.841L88.4385 742.388L178.77 748.828L181.053 737.841H87.6218Z" fill="black"/>
</g>
<path d="M362.793 788.528L362.069 770.47L330.591 769.282L331.074 791.387L342.525 798.291L362.793 788.528Z" fill="#A1675B"/>
<path d="M330.387 787.266V789.345C330.387 789.345 295.438 803.766 295.123 810.429L364.779 809.408L363.498 786.245C358.374 788.778 352.766 790.179 347.053 790.356C341.341 790.532 335.657 789.478 330.387 787.266V787.266Z" fill="#0EA9F1"/>
<g opacity="0.6">
<path opacity="0.6" d="M356.575 793.744C357.249 793.939 357.827 794.378 358.197 794.974C358.567 795.57 358.704 796.283 358.579 796.973C358.407 797.651 357.983 798.238 357.394 798.614C356.804 798.99 356.093 799.127 355.406 798.997C354.694 798.788 354.084 798.325 353.694 797.694C353.303 797.064 353.159 796.311 353.29 795.581C353.539 794.887 354.048 794.317 354.709 793.992C355.371 793.666 356.133 793.61 356.835 793.837" fill="white"/>
</g>
<g opacity="0.6">
<path opacity="0.6" d="M364.797 809.408L364.5 803.84L297.833 806.866C297.833 806.866 294.752 808.258 295.141 810.448L364.797 809.408Z" fill="white"/>
</g>
<path d="M330.164 789.531C330.164 789.883 331.872 790.013 333.561 791.071C335.25 792.129 336.178 793.558 336.475 793.428C336.772 793.298 336.252 791.331 334.192 790.069C332.132 788.807 330.09 789.234 330.164 789.531Z" fill="#263238"/>
<path d="M322.889 792.667C322.889 793.001 324.299 793.558 325.487 794.969C326.675 796.379 327.009 797.92 327.343 797.901C327.677 797.883 327.863 795.952 326.359 794.189C324.856 792.426 322.907 792.352 322.889 792.667Z" fill="#263238"/>
<path d="M318.88 801.465C319.195 801.465 319.641 799.831 318.731 797.994C317.822 796.156 316.226 795.414 316.096 795.711C315.966 796.008 316.949 796.973 317.673 798.495C318.397 800.017 318.546 801.446 318.88 801.465Z" fill="#263238"/>
<path d="M360.101 748.364L365.614 802.133L390.261 798.031L390.818 745.098L360.101 748.364Z" fill="#A1675B"/>
<path d="M390.169 787.841C390.169 787.841 373.854 801.576 364.407 791.943L362.681 797.214L356.185 834.241C355.95 835.421 356.165 836.646 356.786 837.676C357.408 838.706 358.391 839.467 359.545 839.809C360.427 840.063 361.363 840.063 362.246 839.811C363.129 839.558 363.923 839.062 364.537 838.38C371.089 831.049 395.031 803.914 394.456 800.611L393.509 791.757C393.403 790.854 393.028 790.002 392.432 789.314C391.836 788.626 391.048 788.132 390.169 787.897V787.841Z" fill="#0EA9F1"/>
<g opacity="0.6">
<path opacity="0.6" d="M360.417 839.921L394.178 797.474L394.345 799.33C394.468 800.125 394.409 800.938 394.171 801.707C393.933 802.476 393.522 803.18 392.971 803.766C390.336 808.035 382.8 817.742 364.667 838.232C364.143 838.826 363.482 839.283 362.741 839.564C362.001 839.846 361.203 839.943 360.417 839.847V839.921Z" fill="white"/>
</g>
<g opacity="0.6">
<path opacity="0.6" d="M388.127 792.222C387.832 792.438 387.583 792.711 387.396 793.025C387.21 793.339 387.088 793.688 387.04 794.05C386.991 794.413 387.017 794.781 387.114 795.134C387.212 795.486 387.38 795.815 387.608 796.101C387.836 796.386 388.119 796.623 388.441 796.796C388.763 796.969 389.117 797.076 389.481 797.109C389.845 797.142 390.212 797.101 390.56 796.988C390.908 796.876 391.229 796.694 391.505 796.454C391.802 796.228 392.05 795.944 392.232 795.618C392.415 795.292 392.528 794.933 392.565 794.561C392.601 794.19 392.561 793.815 392.446 793.46C392.331 793.105 392.144 792.777 391.897 792.498C391.649 792.219 391.347 791.993 391.009 791.836C390.67 791.679 390.303 791.594 389.93 791.585C389.557 791.577 389.186 791.645 388.84 791.787C388.495 791.928 388.183 792.14 387.923 792.407" fill="white"/>
</g>
<path d="M369.326 818.985C368.057 817.656 366.553 816.574 364.89 815.793C363.081 815.28 361.193 815.11 359.322 815.292C359.322 815.181 359.823 814.772 360.918 814.512C362.346 814.231 363.824 814.353 365.187 814.865C366.541 815.347 367.723 816.219 368.583 817.371C369.289 818.262 369.437 818.93 369.326 818.985Z" fill="#263238"/>
<path d="M366.542 825.407C365.128 824.787 363.678 824.254 362.199 823.811C360.662 823.676 359.119 823.626 357.577 823.663C358.26 823.156 359.053 822.816 359.891 822.671C360.729 822.526 361.589 822.579 362.403 822.827C365.243 823.366 366.764 825.259 366.542 825.407Z" fill="#263238"/>
<path d="M374.819 810.577C372.726 809.446 370.548 808.478 368.305 807.682C365.96 807.203 363.585 806.887 361.196 806.736C363.596 805.873 366.221 805.873 368.62 806.736C371.079 807.236 373.277 808.599 374.819 810.577V810.577Z" fill="#263238"/>
<path d="M374.597 799.516C374.597 799.794 371.813 798.978 368.435 799.163C365.057 799.349 362.459 800.388 362.329 800.11C364.064 798.789 366.199 798.101 368.379 798.161C370.547 797.866 372.749 798.346 374.597 799.516V799.516Z" fill="#263238"/>
<path d="M366.505 799.256C366.375 798.681 366.375 798.085 366.505 797.511C366.827 795.937 367.458 794.442 368.361 793.112C368.935 792.062 369.842 791.232 370.941 790.755C371.317 790.633 371.721 790.626 372.101 790.735C372.482 790.844 372.821 791.065 373.075 791.368C373.521 791.984 373.714 792.748 373.613 793.502C373.335 795.042 372.532 796.438 371.341 797.453C370.15 798.468 368.644 799.039 367.08 799.07C365.518 799.116 363.978 798.695 362.656 797.862C361.334 797.029 360.289 795.822 359.656 794.393C359.496 794.044 359.413 793.664 359.413 793.279C359.413 792.895 359.496 792.515 359.656 792.166C359.881 791.838 360.201 791.587 360.572 791.444C360.943 791.302 361.348 791.275 361.735 791.368C362.865 791.714 363.884 792.355 364.686 793.224C365.854 794.322 366.821 795.616 367.544 797.047C367.854 797.549 368.05 798.113 368.119 798.699C367.059 796.868 365.733 795.204 364.185 793.762C363.456 793.045 362.565 792.516 361.586 792.221C361.377 792.165 361.155 792.177 360.952 792.253C360.749 792.33 360.575 792.468 360.454 792.648C360.355 792.88 360.303 793.129 360.303 793.381C360.303 793.633 360.355 793.883 360.454 794.115C361.037 795.323 361.952 796.341 363.093 797.048C364.234 797.755 365.553 798.121 366.894 798.105C368.214 798.058 369.48 797.57 370.489 796.718C371.499 795.867 372.193 794.702 372.462 793.409C372.541 792.887 372.429 792.353 372.147 791.906C372.014 791.732 371.828 791.606 371.617 791.546C371.407 791.486 371.183 791.495 370.978 791.572C370.068 791.957 369.293 792.602 368.75 793.428C367.657 795.22 366.897 797.194 366.505 799.256Z" fill="#263238"/>
<path d="M289.982 372.097C289.982 372.097 264.666 420.557 262.513 458.884C260.36 497.21 291.467 607.364 295.772 632.439C298.705 649.551 313.126 735.113 330.48 787.192H357.243C357.243 787.192 339.89 613.637 340.539 595.56C341.189 577.482 347.778 481.23 347.778 481.23L357.188 408.178L289.982 372.097Z" fill="#263238"/>
<path d="M428.105 390.824C425.934 391.548 350.506 404.559 350.506 404.559C350.506 404.559 324.819 602.575 322.666 628.615C320.513 654.655 357.262 787.118 357.262 787.118H394.178C394.178 787.118 393.454 699.607 387.663 672.862C381.872 646.117 381.872 639.584 385.492 622.954C389.111 606.325 422.946 526.442 432.337 482.418C441.728 438.394 428.105 390.824 428.105 390.824Z" fill="#263238"/>
<path d="M344.066 456.861C344.066 456.861 344.066 457.158 344.066 457.733C344.066 458.309 343.917 459.199 343.787 460.276C343.527 462.54 343.138 465.844 342.636 470.001C341.579 478.502 340.075 490.733 338.219 505.804C334.507 536.056 329.162 577.761 323.371 623.827C323.201 629.535 323.574 635.246 324.485 640.883C325.264 646.451 326.211 652.019 327.287 657.328C329.403 668.055 331.779 678.356 334.192 688.119C338.999 707.662 343.843 725.239 347.982 739.79C352.121 754.341 355.647 766.256 358.06 774.404C359.266 778.45 360.213 781.605 360.862 783.814C361.178 784.853 361.401 785.67 361.586 786.245C361.772 786.821 361.79 787.099 361.79 787.099C361.79 787.099 361.679 786.821 361.493 786.283C361.308 785.744 361.029 784.891 360.677 783.87C359.99 781.68 358.988 778.543 357.707 774.59C355.165 766.46 351.564 754.675 347.332 740.05C343.1 725.424 338.182 707.959 333.319 688.416C330.888 678.634 328.475 668.334 326.359 657.569C325.283 652.205 324.318 646.693 323.52 641.088C322.605 635.388 322.232 629.615 322.406 623.845C328.123 577.668 333.653 536.001 337.551 505.785C339.537 490.733 341.152 478.52 342.284 470.038L343.62 460.313C343.769 459.236 343.899 458.457 343.991 457.789C344.084 457.121 344.066 456.861 344.066 456.861Z" fill="#455A64"/>
<path d="M335.398 449.233C334.08 448.032 332.841 446.749 331.686 445.391C328.792 442.283 325.692 439.375 322.406 436.686C319.098 433.974 315.607 431.493 311.957 429.262C310.394 428.416 308.882 427.48 307.428 426.459C309.138 426.983 310.772 427.725 312.291 428.668C316.077 430.733 319.667 433.137 323.019 435.851C326.376 438.567 329.481 441.58 332.299 444.852C333.492 446.192 334.532 447.661 335.398 449.233V449.233Z" fill="#455A64"/>
<path d="M386.976 434.162C386.976 434.347 384.397 434.663 380.462 436.203C375.366 438.257 370.455 440.74 365.781 443.627C360.213 446.987 355.48 450.309 352.065 452.815C348.65 455.32 346.608 456.954 346.497 456.842C346.877 456.388 347.307 455.977 347.778 455.617C348.668 454.801 349.968 453.761 351.638 452.369C355.979 448.926 360.535 445.765 365.28 442.904C369.991 439.962 374.999 437.524 380.22 435.628C381.81 435.078 383.443 434.662 385.102 434.385C385.716 434.238 386.345 434.163 386.976 434.162Z" fill="#455A64"/>
<path d="M437.293 124.841L447.927 122.558L442.675 109.788L434.471 113.872L437.293 124.841Z" fill="#0EA9F1"/>
<path d="M465.856 142.547C468.492 142.269 475.136 145.646 480.89 152.421L481.187 152.718C485.196 157.246 487.702 143.326 487.961 138.204C488.03 137.407 488.277 136.636 488.684 135.947C489.09 135.259 489.646 134.67 490.311 134.225C490.975 133.779 491.731 133.489 492.522 133.375C493.314 133.26 494.121 133.325 494.884 133.564L511.848 141.136L515.245 145.09C517.824 145.851 517.862 144.644 517.379 147.205L512.015 173.858L514.317 185.606L486.161 187.462V174.47C482.064 171.469 478.909 167.361 477.067 162.629C477.067 162.499 476.974 162.388 476.918 162.276C475.913 159.725 474.468 157.369 472.649 155.316C470.662 152.992 468.442 150.877 466.023 149.006C465.834 148.88 465.635 148.769 465.43 148.672C465.043 148.48 464.696 148.215 464.409 147.892C463.935 147.532 463.58 147.039 463.388 146.476C463.197 145.913 463.177 145.306 463.333 144.732C463.488 144.158 463.811 143.644 464.261 143.254C464.71 142.865 465.266 142.619 465.856 142.547V142.547Z" fill="#A1675B"/>
<path d="M481.206 79.6656C481.206 79.6656 499.376 77.4198 526.696 55.686C554.016 33.9522 568.809 3.06836 571.871 3.5138C574.934 3.95924 588.891 -0.996287 609.14 56.7996C629.389 114.595 618.141 126.511 613.093 125.936C608.045 125.36 574.525 112.517 552.792 112.944C531.058 113.371 502.382 121.964 502.382 121.964L481.206 79.6656Z" fill="#0EA9F1"/>
<path d="M440.578 106.299L445.57 118.419L447.797 123.857C449.275 127.442 452.071 130.325 455.611 131.91C459.15 133.495 463.163 133.662 466.822 132.376L506.243 122.688L491.395 73.2808L448.707 86.5697C445.023 88.12 442.1 91.0638 440.578 94.7596C439.055 98.4554 439.055 102.603 440.578 106.299Z" fill="#263238"/>
<path d="M456.057 124.21L469.253 147.632L475.285 145.776L516.488 176.53L526.715 154.258C526.715 154.258 502.754 145.108 498.039 136.886C493.325 128.664 498.299 126.548 498.299 126.548L486.681 114.41L456.057 124.21Z" fill="#263238"/>
<path d="M606.987 57.6162C617.715 88.9084 620.833 116.173 613.965 118.53C607.098 120.887 592.77 97.4089 582.098 66.1538C571.426 34.8987 568.252 7.57839 575.119 5.22126C581.986 2.86414 596.259 26.324 606.987 57.6162Z" fill="#263238"/>
<path d="M579.982 48.3361C579.982 48.3361 596.37 40.1883 602.866 61.9035C609.362 83.6187 592.77 85.5118 592.77 85.5118C586.778 73.7838 582.473 61.2683 579.982 48.3361V48.3361Z" fill="#0EA9F1"/>
<path d="M565.876 21.8696C565.838 23.2222 565.913 24.5755 566.099 25.9157C566.359 28.5141 566.693 32.3004 567.25 36.9404L568.697 44.3644C568.976 45.7192 569.236 47.1113 569.514 48.5589C569.663 49.2642 569.811 50.0066 569.96 50.749C570.108 51.4914 570.349 52.2153 570.553 52.9577C571.407 55.9273 572.28 59.0639 573.208 62.2377C573.43 63.0357 573.672 63.8524 573.894 64.6876C574.117 65.5228 574.488 66.3023 574.767 67.119L576.623 72.0745L578.479 77.0486C578.794 77.8466 579.054 78.6818 579.425 79.4428C579.796 80.2038 580.149 81.0018 580.52 81.7628L584.659 90.5602C584.993 91.247 585.29 91.9522 585.661 92.6204L586.775 94.4764L588.909 98.1884L592.77 105.056C595.387 108.916 597.595 111.979 599.117 114.094C599.857 115.231 600.689 116.305 601.604 117.305C601.027 116.081 600.338 114.913 599.544 113.816C598.097 111.552 596.055 108.396 593.549 104.536L589.837 97.8729L587.777 94.1609C587.406 93.5299 587.053 92.8803 586.682 92.3049C586.311 91.7295 586.051 90.9314 585.717 90.2447C584.436 87.4422 583.081 84.5097 581.671 81.4844L580.613 79.183C580.242 78.4034 579.982 77.5868 579.666 76.7887C579.073 75.1554 578.46 73.5222 577.81 71.8518C577.161 70.1814 576.567 68.5481 575.954 66.9334C575.657 66.1167 575.305 65.3372 575.082 64.5205C574.859 63.7039 574.6 62.8873 574.377 62.0892C573.43 58.8783 572.521 55.7788 571.667 52.8092C571.463 52.0668 571.222 51.3615 571.055 50.6191C570.888 49.8767 570.739 49.1714 570.591 48.4476L569.718 44.3087C569.143 41.636 568.605 39.149 568.122 36.8847C567.454 32.3189 566.934 28.6069 566.544 25.9528C566.445 24.5745 566.221 23.2079 565.876 21.8696V21.8696Z" fill="#263238"/>
<path d="M500.508 127.977C501.415 128.328 502.16 129.002 502.602 129.868C503.043 130.734 503.15 131.733 502.902 132.673C501.844 136.496 500.118 142.473 498.782 146.129C498.418 147.323 497.832 148.437 497.056 149.414C496.672 149.891 496.164 150.252 495.586 150.455C495.009 150.658 494.387 150.696 493.789 150.565C493.18 150.315 492.652 149.902 492.263 149.372C491.873 148.841 491.637 148.214 491.581 147.558C491.478 146.23 491.629 144.895 492.026 143.623C492.898 140.06 494.476 134.715 495.738 130.371C495.882 129.902 496.117 129.466 496.431 129.088C496.745 128.71 497.13 128.398 497.565 128.17C498 127.942 498.476 127.803 498.965 127.76C499.454 127.717 499.947 127.772 500.415 127.922L500.508 127.977Z" fill="#A1675B"/>
<path d="M506.187 134.529C507.106 134.881 507.861 135.563 508.303 136.442C508.746 137.32 508.845 138.332 508.582 139.28C507.524 143.104 505.798 149.099 504.461 152.736C504.098 153.936 503.512 155.056 502.735 156.04C502.348 156.512 501.838 156.868 501.262 157.067C500.685 157.267 500.065 157.304 499.469 157.172C498.857 156.926 498.327 156.514 497.937 155.983C497.547 155.452 497.312 154.822 497.26 154.165C497.158 152.838 497.309 151.502 497.705 150.231C498.578 146.667 500.137 141.322 501.51 136.979C501.654 136.509 501.89 136.073 502.203 135.695C502.517 135.317 502.902 135.005 503.337 134.777C503.772 134.549 504.248 134.41 504.737 134.368C505.227 134.325 505.72 134.38 506.187 134.529Z" fill="#A1675B"/>
<path d="M511.496 138.482C512.315 138.755 512.997 139.334 513.398 140.099C513.8 140.864 513.889 141.754 513.648 142.584C512.683 145.906 511.124 151.084 509.936 154.258C509.59 155.3 509.056 156.268 508.359 157.116C508.017 157.579 507.539 157.922 506.991 158.098C506.444 158.275 505.855 158.274 505.308 158.098C504.761 157.922 504.282 157.578 503.941 157.116C503.599 156.653 503.411 156.095 503.403 155.52C503.326 154.366 503.464 153.208 503.812 152.105C504.628 149.024 506.057 144.384 507.301 140.617C507.438 140.198 507.655 139.81 507.942 139.476C508.229 139.142 508.58 138.867 508.973 138.669C509.366 138.471 509.795 138.352 510.234 138.32C510.673 138.288 511.115 138.343 511.533 138.482H511.496Z" fill="#A1675B"/>
<path d="M518.196 139.484C519.025 139.758 519.716 140.341 520.124 141.113C520.532 141.884 520.626 142.784 520.386 143.623C519.402 146.946 517.843 152.161 516.674 155.335C516.343 156.388 515.807 157.366 515.096 158.212C514.75 158.671 514.268 159.012 513.719 159.185C513.17 159.358 512.581 159.356 512.033 159.178C511.485 159 511.007 158.656 510.664 158.193C510.322 157.731 510.132 157.172 510.122 156.597C510.036 155.437 510.175 154.271 510.53 153.163C511.347 150.064 512.795 145.424 514.038 141.619C514.177 141.199 514.397 140.811 514.685 140.477C514.974 140.142 515.326 139.868 515.721 139.67C516.115 139.472 516.545 139.353 516.986 139.321C517.427 139.29 517.869 139.345 518.288 139.484H518.196Z" fill="#A1675B"/>
<path d="M497.408 149.6C497.78 149.73 499.116 146.686 500.434 142.844C501.752 139.002 502.494 135.754 502.141 135.624C501.789 135.494 500.415 138.538 499.116 142.399C497.817 146.259 497.056 149.47 497.408 149.6Z" fill="#925249"/>
<path d="M503.478 154.945C503.849 155.056 505.334 151.567 506.688 147.15C508.043 142.733 508.916 139.076 508.544 138.946C508.173 138.816 506.688 142.306 505.352 146.723C504.016 151.14 503.125 154.797 503.478 154.945Z" fill="#925249"/>
<path d="M509.454 155.242C509.788 155.39 511.44 152.439 512.758 148.505C514.075 144.57 514.614 141.229 514.205 141.081C513.797 140.932 512.758 144.125 511.44 147.985C510.122 151.845 509.101 155.093 509.454 155.242Z" fill="#925249"/>
<path d="M483.117 92.1934C478.173 94.2201 473.116 95.9614 467.972 97.4087C462.921 99.1223 457.77 100.529 452.549 101.622C457.488 99.6006 462.545 97.8837 467.694 96.4807C472.744 94.742 477.894 93.3103 483.117 92.1934V92.1934Z" fill="#455A64"/>
<path d="M484.732 97.6316C479.786 99.6331 474.729 101.35 469.587 102.773C464.535 104.486 459.385 105.893 454.164 106.986C459.101 104.961 464.159 103.244 469.309 101.845C474.359 100.126 479.51 98.7189 484.732 97.6316V97.6316Z" fill="#455A64"/>
<path d="M486.328 103.07C481.382 105.071 476.326 106.788 471.183 108.211C466.133 109.93 460.982 111.337 455.76 112.424C460.698 110.403 465.756 108.686 470.905 107.283C475.956 105.569 481.107 104.162 486.328 103.07V103.07Z" fill="#455A64"/>
<path d="M487.943 108.545C482.997 110.546 477.94 112.263 472.798 113.686C467.745 115.375 462.594 116.757 457.375 117.825C462.313 115.804 467.371 114.087 472.519 112.684C477.573 110.995 482.723 109.613 487.943 108.545V108.545Z" fill="#455A64"/>
<path d="M506.187 122.688C505.635 122.943 505.056 123.136 504.461 123.263L499.673 124.506L483.841 128.218L467.972 131.93C465.8 132.522 463.593 132.981 461.365 133.304C461.89 133 462.46 132.781 463.054 132.654C464.168 132.283 465.801 131.819 467.805 131.281C471.833 130.167 477.419 128.775 483.618 127.328C489.817 125.88 495.441 124.636 499.524 123.801C501.566 123.374 503.236 123.059 504.369 122.855C504.962 122.703 505.576 122.647 506.187 122.688V122.688Z" fill="#455A64"/>
<path d="M303.531 183.193C296.107 185.272 280.349 192.993 273.204 209.177C270.605 215.079 259.636 292.994 259.636 292.994L294.9 326.402L301.044 252.014L303.531 183.193Z" fill="#455A64"/>
<path d="M282.985 229.538C283.263 229.538 287.253 251.624 291.93 278.963C296.608 306.302 300.19 328.5 299.93 328.537C299.67 328.574 295.661 306.469 290.984 279.13C286.307 251.791 282.817 229.593 282.985 229.538Z" fill="#263238"/>
<path d="M428.087 214.653C428.12 215.023 428.12 215.396 428.087 215.766C428.087 216.583 427.938 217.622 427.827 218.921C427.549 221.78 427.177 225.714 426.713 230.503C425.655 240.395 424.226 253.851 422.649 268.718C421.071 283.585 419.438 297.003 418.306 306.896C417.73 311.684 417.248 315.601 416.895 318.459C416.709 319.721 416.561 320.76 416.45 321.595C416.42 321.962 416.346 322.324 416.227 322.672C416.194 322.308 416.194 321.941 416.227 321.577C416.227 320.742 416.375 319.721 416.468 318.422C416.747 315.545 417.136 311.629 417.6 306.822C418.64 296.929 420.069 283.473 421.665 268.607C423.261 253.74 424.876 240.321 425.99 230.429L427.419 218.866C427.604 217.604 427.753 216.564 427.864 215.729C427.893 215.362 427.968 215.001 428.087 214.653V214.653Z" fill="#263238"/>
<path d="M287.699 325.289C287.569 325.289 286.622 322.653 284.989 318.384C283.039 312.792 280.227 307.538 276.656 302.812C274.205 299.411 270.894 296.722 267.062 295.023C263.229 293.324 259.014 292.675 254.848 293.143C255.434 292.876 256.062 292.712 256.704 292.66C258.554 292.391 260.436 292.435 262.272 292.79C268.268 294.062 273.628 297.399 277.417 302.219C281.058 307.018 283.84 312.412 285.639 318.162C286.381 320.333 286.919 322.115 287.253 323.34C287.492 323.965 287.642 324.621 287.699 325.289V325.289Z" fill="#263238"/>
<path d="M401.602 183.249L422.723 188.149C425.542 188.794 428.161 190.119 430.351 192.009C448.391 207.433 484.565 237.741 484.565 237.741L482.356 183.546L515.115 180.075C515.115 180.075 528.868 251.587 527.698 270.797C526.343 293.069 506.354 298.637 477.234 286.573C459.283 279.351 441.91 270.77 425.266 260.904L401.602 183.249Z" fill="#455A64"/>
<path d="M416.338 322.839C416.338 322.839 427.363 388.523 429.33 397.988C430.815 417.903 286.214 407.101 281.203 390.824L299.689 331.265L286.529 253.814C285.323 225.195 302.213 183.453 302.213 183.453L330.053 177.997L371.145 181.022L404.942 184.103L427.92 224.248L416.338 322.839Z" fill="#455A64"/>
<path d="M295.809 305.058C295.42 301.625 294.844 297.95 292.376 295.518C289.907 293.087 284.952 296.873 281.073 296.706C268.563 296.15 256.536 291.231 243.953 290.674L232.817 302.237C237.048 312.136 241.274 322.004 245.493 331.84C249.205 340.471 253.641 349.881 262.29 353.537C269.621 356.655 278.512 354.558 284.562 349.454C290.552 344.087 294.489 336.804 295.698 328.852C296.904 320.97 296.942 312.952 295.809 305.058V305.058Z" fill="#455A64"/>
<path d="M499.561 271.075C499.128 270.833 498.733 270.527 498.392 270.166C497.378 269.262 496.43 268.288 495.553 267.252C489.68 260.462 486.01 252.047 485.029 243.124C484.881 241.78 484.819 240.429 484.843 239.078C484.808 238.579 484.852 238.078 484.973 237.593C485.14 237.593 485.196 239.69 485.716 243.031C487.021 251.759 490.599 259.991 496.091 266.899C498.114 269.479 499.673 270.945 499.561 271.075Z" fill="#263238"/>
<path d="M440.578 168.549C440.838 166.935 442.434 165.914 443.659 164.837C445.949 162.973 447.682 160.515 448.668 157.732C449.655 154.948 449.856 151.947 449.25 149.057C448.645 146.167 447.255 143.499 445.235 141.346C443.214 139.192 440.64 137.637 437.794 136.849C436.361 136.623 434.982 136.132 433.729 135.401C430.815 133.285 431.483 128.812 430.258 125.435C427.641 118.27 417.173 117.361 413.127 110.902C410.659 106.949 411.16 101.938 411.142 97.279C411.123 92.6204 409.972 87.238 405.815 85.1222C403.588 83.99 400.878 84.0457 398.688 82.8207C394.178 80.2965 394.066 74.0233 392.21 69.1977C390.631 65.4334 387.798 62.3319 384.191 60.4202C380.584 58.5086 376.427 57.9047 372.425 58.7113C372.425 58.7113 375.265 51.5471 366.653 48.3919C356.26 44.6799 355.981 51.9368 351.063 47.6309C348.372 45.3994 345.002 44.1504 341.507 44.0897C338.012 44.029 334.601 45.1601 331.835 47.2968C330.29 48.8099 328.64 50.2116 326.898 51.4914C324.496 52.6029 321.955 53.3833 319.344 53.8114C314.501 55.2704 310.275 58.285 307.319 62.3884C304.363 66.4919 302.843 71.4553 302.992 76.5103L372.834 185.458C375.599 196.018 388.962 204.686 398.372 210.198C400.303 211.444 402.47 212.278 404.738 212.648C407.615 212.865 410.49 212.219 412.998 210.792C418.598 207.943 422.866 203.023 424.894 197.076C428.035 198.291 431.486 198.449 434.724 197.525C437.962 196.602 440.81 194.648 442.838 191.959C444.865 189.271 445.961 185.995 445.958 182.628C445.955 179.261 444.855 175.986 442.823 173.301C441.71 171.909 440.262 170.35 440.578 168.549Z" fill="#263238"/>
<path d="M305.09 93.2329L303.828 85.5861L348.576 70.1071C362.551 66.5436 379.979 78.5148 382.949 92.639C386.271 108.304 389.686 127.587 389.538 139.67C389.241 163.965 371.479 169.644 371.479 169.644L374.82 193.234L322.406 201.568L305.09 93.2329Z" fill="#A1675B"/>
<path d="M376.193 114.763C376.319 115.548 376.136 116.352 375.683 117.006C375.23 117.659 374.541 118.113 373.762 118.27C373.374 118.366 372.97 118.381 372.576 118.316C372.182 118.251 371.805 118.106 371.468 117.891C371.132 117.676 370.842 117.395 370.617 117.064C370.393 116.734 370.237 116.361 370.161 115.969C370.041 115.176 370.233 114.368 370.697 113.714C371.161 113.059 371.86 112.611 372.648 112.461C373.032 112.374 373.43 112.365 373.818 112.434C374.205 112.504 374.575 112.65 374.906 112.864C375.236 113.079 375.52 113.357 375.741 113.683C375.962 114.009 376.116 114.376 376.193 114.763V114.763Z" fill="#263238"/>
<path d="M379.33 103.459C379.014 103.905 376.453 102.531 373.186 103.014C369.92 103.496 367.748 105.501 367.34 105.148C366.931 104.796 367.34 104.22 368.342 103.292C369.616 102.111 371.223 101.353 372.945 101.121C374.65 100.858 376.394 101.151 377.919 101.956C379.033 102.568 379.478 103.255 379.33 103.459Z" fill="#263238"/>
<path d="M346.553 117.825C346.646 118.601 346.441 119.383 345.98 120.014C345.518 120.645 344.834 121.076 344.066 121.221C343.683 121.308 343.286 121.318 342.9 121.25C342.513 121.182 342.144 121.037 341.813 120.825C341.483 120.612 341.199 120.336 340.977 120.012C340.755 119.688 340.6 119.323 340.521 118.938C340.396 118.145 340.586 117.334 341.051 116.679C341.516 116.024 342.218 115.576 343.008 115.431C343.398 115.345 343.803 115.339 344.196 115.414C344.589 115.489 344.962 115.643 345.294 115.867C345.625 116.091 345.908 116.38 346.124 116.717C346.341 117.053 346.487 117.43 346.553 117.825V117.825Z" fill="#263238"/>
<path d="M347.202 108.768C346.868 109.213 344.325 107.858 341.04 108.341C337.755 108.823 335.602 110.809 335.194 110.475C334.786 110.141 335.194 109.547 336.215 108.619C337.486 107.431 339.094 106.666 340.818 106.429C342.522 106.183 344.261 106.475 345.792 107.264C346.905 107.895 347.351 108.545 347.202 108.768Z" fill="#263238"/>
<path d="M362.626 131.336C364.27 130.535 366.01 129.949 367.804 129.592C368.621 129.388 369.4 129.109 369.456 128.515C369.403 127.64 369.079 126.803 368.528 126.121L365.131 120.108C360.361 111.533 356.779 104.443 357.132 104.257C357.485 104.072 361.623 110.846 366.412 119.421C367.581 121.537 368.676 123.56 369.734 125.49C370.401 126.422 370.722 127.558 370.644 128.701C370.567 129.016 370.418 129.309 370.208 129.557C369.999 129.805 369.735 130.001 369.437 130.13C368.992 130.324 368.524 130.461 368.045 130.538C366.281 131.037 364.459 131.306 362.626 131.336V131.336Z" fill="#263238"/>
<path d="M371.386 169.793C359.974 171.655 348.27 170.372 337.532 166.081C337.532 166.081 347.982 181.523 372.24 175.751L371.386 169.793Z" fill="#925249"/>
<path d="M355.61 137.628C354.311 138.278 354.719 139.243 354.014 140.524C353.658 141.133 353.497 141.837 353.554 142.541C353.61 143.244 353.881 143.913 354.329 144.458C355.773 145.735 357.656 146.401 359.582 146.314C362.31 145.943 362.588 143.92 363.145 142.008L363.684 139.651C361.364 139.132 356.612 137.127 355.61 137.628Z" fill="#925249"/>
<path d="M346.163 95.8129C345.977 96.7409 342.637 96.7966 338.869 97.8174C335.101 98.8382 332.132 100.36 331.445 99.6734C331.166 99.3207 331.575 98.3927 332.707 97.3534C334.216 96.0349 336.016 95.0935 337.959 94.6065C339.891 94.0755 341.922 94.0182 343.88 94.4394C345.439 94.7735 346.237 95.3674 346.163 95.8129Z" fill="#263238"/>
<path d="M376.731 94.1422C376.267 94.9774 373.891 94.5319 371.163 94.8846C368.435 95.2372 366.226 96.1281 365.595 95.4228C365.317 95.0702 365.595 94.2721 366.467 93.4369C367.691 92.3891 369.2 91.7305 370.8 91.5453C372.401 91.3602 374.02 91.6569 375.451 92.3975C376.508 93.0286 376.935 93.6967 376.731 94.1422Z" fill="#263238"/>
<path d="M381.316 75.4709C375.257 68.844 367.156 64.4341 358.301 62.9429L320.067 71.0907L310.045 78.3477C309.117 75.972 308.523 74.5058 308.523 74.5058C304.644 72.0373 294.195 67.0818 286.251 77.067C283.356 80.6306 281.463 89.6507 281.778 94.2351C281.908 95.9797 282.242 98.077 280.887 99.1349C280.38 99.4769 279.813 99.7223 279.217 99.8587C274.446 101.534 270.487 104.954 268.135 109.43C265.783 113.907 265.213 119.108 266.54 123.987C266.78 124.609 266.905 125.269 266.912 125.936C266.685 126.966 266.162 127.908 265.408 128.645C263.323 131.37 262.104 134.657 261.909 138.082C261.714 141.507 262.551 144.911 264.313 147.855C265.63 149.508 266.681 151.355 267.431 153.33C268.341 157.042 265.909 160.55 264.072 163.854C258.504 173.746 258.374 187.462 266.503 195.406C268.471 197.262 270.958 198.969 271.849 201.568C272.201 202.869 272.388 204.21 272.405 205.558C272.944 212.37 277.175 219.664 283.95 220.536C287.662 221.019 292.098 219.589 294.956 222.076C296.066 223.302 296.98 224.692 297.666 226.197C299.329 228.904 301.899 230.932 304.919 231.92C307.939 232.907 311.212 232.789 314.153 231.587C317.094 230.386 319.512 228.178 320.976 225.358C322.441 222.538 322.855 219.29 322.146 216.193C325.644 214.486 328.53 211.741 330.41 208.333C332.29 204.925 333.072 201.02 332.651 197.15C332.651 197.15 327.584 173.505 329.218 166.898C330.851 160.29 325.32 146.834 322.295 140.357C319.269 133.879 320.866 118.085 320.995 111.811C320.899 110.027 320.574 108.262 320.03 106.559V106.559C319.641 105.074 319.139 103.422 318.564 101.641C318.293 99.9932 318.107 98.3329 318.007 96.6664C317.923 95.2921 318.161 93.9171 318.701 92.6507C319.242 91.3843 320.07 90.2615 321.121 89.3714C322.171 88.4812 323.415 87.8484 324.753 87.5232C326.091 87.1979 327.486 87.1892 328.828 87.4978C331.77 88.2138 334.862 87.9942 337.673 86.8697C340.484 85.7453 342.874 83.7718 344.511 81.2245C347.416 83.7586 350.951 85.463 354.743 86.1587C358.534 86.8544 362.444 86.5155 366.059 85.1778C369.228 89.238 372.923 92.858 377.047 95.9426C379.11 97.4866 381.456 98.6091 383.953 99.246C386.45 99.8829 389.047 100.022 391.598 99.6546C390.975 90.6695 387.354 82.1534 381.316 75.4709V75.4709Z" fill="#263238"/>
<path d="M377.882 82.7281C377.882 82.7281 377.882 81.8558 377.585 80.3153C377.207 78.1095 376.352 76.0128 375.079 74.1719C373.182 71.3954 370.371 69.3724 367.136 68.4554C365.13 67.9021 363.032 67.7731 360.974 68.0767C358.915 68.3803 356.943 69.1098 355.183 70.2186L354.923 70.4042L354.701 70.163C353.067 68.5018 351.189 67.0998 349.133 66.0055C344.621 63.693 339.461 62.9735 334.489 63.9639C330.451 64.8413 326.74 66.8348 323.78 69.7175C321.77 71.6629 320.124 73.9506 318.917 76.4734C318.082 78.3294 317.803 79.3316 317.729 79.313C317.655 79.2945 317.729 79.0347 317.896 78.5335C318.087 77.7857 318.336 77.0535 318.638 76.3434C320.043 73.0816 322.196 70.1969 324.925 67.9234C327.653 65.6499 330.879 64.0518 334.34 63.2586C338.068 62.4895 341.929 62.6639 345.572 63.766C349.215 64.868 352.525 66.8628 355.202 69.569H354.701C356.545 68.3908 358.619 67.6163 360.785 67.2964C362.95 66.9765 365.159 67.1185 367.266 67.713C370.634 68.6891 373.535 70.8516 375.432 73.8007C376.708 75.7161 377.521 77.9018 377.808 80.1854C377.869 80.8025 377.869 81.4242 377.808 82.0414C377.862 82.2661 377.887 82.4969 377.882 82.7281V82.7281Z" fill="#455A64"/>
<path d="M268.935 124.265C272.05 123.88 275.125 123.216 278.122 122.279C285.302 119.866 291.558 115.288 296.032 109.176C296.292 108.786 296.57 108.415 296.812 108.062L296.923 107.914H297.09C301.038 107.413 304.756 105.782 307.799 103.218C310.289 101.151 312.308 98.5756 313.72 95.6641C314.967 92.957 315.71 90.0447 315.91 87.0708C315.91 87.0708 315.91 87.2935 315.91 87.7018C315.946 88.32 315.946 88.9397 315.91 89.5578C315.702 91.7687 315.118 93.9279 314.184 95.9425C312.817 98.9764 310.787 101.665 308.245 103.812C305.104 106.525 301.228 108.243 297.109 108.749L297.387 108.582L296.608 109.695C294.124 113.13 291.044 116.091 287.513 118.437C284.65 120.36 281.524 121.86 278.233 122.892C276.019 123.596 273.735 124.057 271.422 124.265C270.624 124.265 269.974 124.265 269.566 124.265C269.356 124.292 269.144 124.292 268.935 124.265V124.265Z" fill="#455A64"/>
<path d="M415.262 182.265H255.293C250.496 182.265 246.607 186.154 246.607 190.951V340.229C246.607 345.027 250.496 348.916 255.293 348.916H415.262C420.059 348.916 423.948 345.027 423.948 340.229V190.951C423.948 186.154 420.059 182.265 415.262 182.265Z" fill="white"/>
<path d="M415.243 348.916C415.243 348.916 415.837 348.916 416.969 348.693C418.624 348.334 420.14 347.502 421.331 346.299C422.297 345.301 423.027 344.1 423.467 342.783C423.907 341.466 424.046 340.067 423.874 338.689C423.874 335.423 423.874 331.636 423.874 327.386C423.874 310.329 423.874 285.7 423.725 255.262C423.725 240.024 423.725 223.357 423.725 205.447C423.725 200.974 423.725 196.427 423.725 191.805C423.928 189.55 423.227 187.307 421.776 185.569C421.043 184.711 420.144 184.01 419.133 183.51C418.122 183.009 417.02 182.718 415.893 182.655H386.29H255.312C253.942 182.648 252.593 182.985 251.387 183.633C250.181 184.281 249.157 185.221 248.407 186.367C247.656 187.51 247.209 188.826 247.108 190.19C247.108 191.545 247.108 193.049 247.108 194.459V211.553C247.108 222.875 247.108 234.011 247.108 244.961C247.108 266.862 247.108 288.002 247.108 308.065C247.108 318.149 247.108 327.961 247.108 337.501C247.108 338.671 247.108 339.914 247.108 341.009C247.31 342.679 248.018 344.247 249.135 345.504C250.253 346.762 251.728 347.647 253.363 348.043C254.462 348.266 255.584 348.347 256.704 348.285H266.893H316.708L388.814 348.433L408.432 348.526H413.517H415.262H413.517H408.432H388.814L316.708 348.693H266.893H256.704C255.516 348.762 254.324 348.674 253.159 348.433C251.97 348.144 250.851 347.619 249.869 346.888C248.887 346.158 248.062 345.238 247.442 344.183C246.823 343.11 246.426 341.923 246.273 340.694C246.143 339.432 246.273 338.281 246.273 337.093C246.273 327.553 246.273 317.741 246.273 307.657C246.273 287.538 246.273 266.398 246.273 244.553V194.608C246.273 193.16 246.273 191.768 246.273 190.265C246.386 188.736 246.884 187.262 247.721 185.977C248.561 184.695 249.706 183.64 251.053 182.908C252.4 182.176 253.908 181.79 255.441 181.783H386.42H415.856C417.098 181.851 418.314 182.173 419.428 182.728C420.542 183.284 421.531 184.061 422.333 185.012C423.902 186.906 424.674 189.335 424.486 191.787C424.486 196.414 424.486 200.961 424.486 205.428C424.486 223.339 424.486 240.005 424.486 255.243C424.486 285.682 424.375 310.311 424.338 327.367C424.338 331.618 424.338 335.404 424.338 338.671C424.338 339.487 424.338 340.285 424.338 341.046C424.257 341.777 424.082 342.494 423.818 343.181C423.387 344.38 422.689 345.465 421.776 346.354C420.551 347.569 418.995 348.395 417.303 348.73C416.63 348.895 415.935 348.958 415.243 348.916V348.916Z" fill="#263238"/>
<path d="M255.497 296.205C255.497 296.205 248.574 298.822 246.737 301.458L246.217 319.906C243.842 319.48 237.364 314.116 233.596 311.87C232.543 311.324 231.623 310.554 230.898 309.614C230.174 308.675 229.663 307.589 229.402 306.432C228.141 305.895 227.137 304.89 226.599 303.629C225.878 301.704 225.78 299.6 226.321 297.616C225.079 296.235 224.127 294.619 223.518 292.865C222.405 289.784 226.878 285.162 226.878 285.162C226.795 283.858 226.795 282.55 226.878 281.246C228.189 277.009 229.969 272.931 232.186 269.089C233.17 267.976 242.264 265.6 248.686 265.6C255.107 265.6 254.421 270.76 254.421 270.76C254.369 271.307 254.206 271.838 253.941 272.32C253.676 272.802 253.315 273.225 252.88 273.562L255.961 273.135C263.237 272.727 260.991 279.149 260.991 279.149C270.104 282.341 261.269 287.816 261.418 288.243C261.418 288.243 261.975 289.041 261.418 291.38C260.861 293.718 255.479 296.818 255.479 296.818" fill="#A1675B"/>
<path d="M255.107 273.599C255.107 273.748 253.511 273.952 251.024 274.676C247.713 275.527 244.335 276.099 240.928 276.383C239.972 276.488 239.024 276.649 238.088 276.866C237.68 276.965 237.283 277.102 236.9 277.274C236.547 277.423 236.25 277.701 235.805 277.942C235.461 278.095 235.161 278.331 234.933 278.629C234.654 278.944 234.357 279.204 234.097 279.483C233.559 279.965 233.058 280.466 232.538 280.949C231.804 281.684 231.029 282.378 230.218 283.028C229.662 283.473 229.42 283.789 229.327 283.751C229.235 283.714 229.327 283.269 229.884 282.694L231.889 280.355L233.355 278.759C233.615 278.48 233.893 278.202 234.135 277.887C234.426 277.507 234.792 277.191 235.211 276.959C235.527 276.791 235.879 276.439 236.362 276.216C236.821 275.999 237.3 275.825 237.791 275.696C238.743 275.457 239.71 275.284 240.686 275.177C244.844 274.657 248.11 274.416 250.801 273.822C252.196 273.389 253.676 273.313 255.107 273.599V273.599Z" fill="#925249"/>
<path d="M261.418 279.501C260.154 280.605 258.666 281.422 257.056 281.895C254.198 283.046 250.041 283.919 245.605 285.106C241.824 285.994 238.271 287.663 235.174 290.006C232.873 291.862 231.982 293.588 231.796 293.477C232.299 291.855 233.275 290.42 234.599 289.357C237.676 286.711 241.341 284.84 245.289 283.9C249.818 282.712 253.92 282.044 256.778 281.06C259.636 280.077 261.325 279.297 261.418 279.501Z" fill="#925249"/>
<path d="M234.45 299.249C235.001 298.717 235.626 298.267 236.306 297.913C237.587 297.133 239.461 296.057 241.874 294.813C244.287 293.57 247.127 292.215 250.375 290.841C252.008 290.136 253.734 289.449 255.534 288.781L258.3 287.779C258.797 287.592 259.305 287.437 259.822 287.315C260.47 287.202 261.137 287.349 261.678 287.723C262.165 288.125 262.521 288.662 262.703 289.267C262.885 289.871 262.883 290.516 262.698 291.12C262.347 292.149 261.702 293.052 260.842 293.718C259.314 294.831 257.679 295.788 255.961 296.576C253.104 297.767 250.343 299.175 247.702 300.79C245.325 302.346 243.449 304.557 242.301 307.156C242.317 306.363 242.541 305.589 242.951 304.91C243.958 302.988 245.408 301.334 247.182 300.084C249.797 298.324 252.568 296.808 255.46 295.556C257.089 294.784 258.638 293.851 260.081 292.772C260.778 292.271 261.308 291.572 261.603 290.767C261.71 290.406 261.711 290.021 261.606 289.659C261.501 289.297 261.294 288.973 261.009 288.726C260.508 288.28 259.692 288.596 258.708 288.948L255.961 289.913C254.105 290.563 252.453 291.231 250.82 291.881C247.553 293.199 244.677 294.479 242.264 295.593C237.457 297.857 234.561 299.416 234.45 299.249Z" fill="#925249"/>
<path d="M362.199 145.164C362.366 145.164 361.271 146.537 358.821 146.779C358.196 146.8 357.571 146.731 356.965 146.574C356.205 146.428 355.485 146.124 354.849 145.684C354.143 145.151 353.592 144.44 353.253 143.623C353.009 142.721 352.978 141.775 353.16 140.858C353.354 139.968 353.74 139.132 354.292 138.408C354.506 137.987 354.818 137.624 355.202 137.35C355.433 137.251 355.683 137.199 355.935 137.199C356.187 137.199 356.436 137.251 356.668 137.35L360.51 138.501C361.723 138.786 362.895 139.222 363.999 139.8C362.738 139.765 361.489 139.553 360.287 139.169L356.39 138.222C356.018 138.222 355.777 138.111 355.61 138.222C355.365 138.443 355.164 138.707 355.016 139.002C354.537 139.633 354.201 140.362 354.032 141.136C353.863 141.882 353.863 142.655 354.032 143.401C354.291 144.048 354.713 144.617 355.257 145.053C356.295 145.757 357.512 146.15 358.765 146.185C359.975 146.124 361.152 145.774 362.199 145.164Z" fill="#263238"/>
<path d="M281.537 310.534L282.242 311.981C282.28 312.046 282.331 312.103 282.392 312.147C282.453 312.192 282.522 312.224 282.595 312.241L284.191 312.464C284.278 312.475 284.361 312.511 284.428 312.567C284.496 312.623 284.547 312.697 284.574 312.781C284.601 312.864 284.604 312.954 284.582 313.039C284.56 313.124 284.515 313.202 284.451 313.262L283.3 314.394C283.244 314.445 283.203 314.509 283.18 314.581C283.157 314.653 283.154 314.729 283.17 314.802L283.43 316.399C283.447 316.484 283.439 316.573 283.408 316.654C283.376 316.735 283.323 316.806 283.253 316.859C283.183 316.911 283.1 316.942 283.013 316.95C282.927 316.957 282.839 316.94 282.762 316.9L281.333 316.139C281.264 316.103 281.188 316.084 281.11 316.084C281.033 316.084 280.956 316.103 280.887 316.139L279.458 316.9C279.381 316.94 279.294 316.957 279.207 316.95C279.12 316.942 279.037 316.911 278.967 316.859C278.897 316.806 278.844 316.735 278.812 316.654C278.781 316.573 278.773 316.484 278.79 316.399L279.05 314.802C279.066 314.729 279.063 314.653 279.04 314.581C279.017 314.509 278.976 314.445 278.92 314.394L277.769 313.262C277.705 313.202 277.66 313.124 277.638 313.039C277.616 312.954 277.619 312.864 277.646 312.781C277.673 312.697 277.724 312.623 277.792 312.567C277.859 312.511 277.942 312.475 278.029 312.464L279.625 312.241C279.699 312.224 279.768 312.192 279.828 312.147C279.889 312.103 279.94 312.046 279.978 311.981L280.683 310.534C280.724 310.456 280.786 310.391 280.861 310.346C280.936 310.3 281.022 310.276 281.11 310.276C281.198 310.276 281.284 310.3 281.359 310.346C281.435 310.391 281.496 310.456 281.537 310.534V310.534Z" fill="#E0E0E0"/>
<path d="M395.421 216.36L396.127 217.808C396.165 217.873 396.216 217.929 396.276 217.974C396.337 218.018 396.406 218.05 396.479 218.068L398.075 218.29C398.163 218.301 398.245 218.337 398.313 218.393C398.381 218.449 398.431 218.523 398.458 218.607C398.485 218.691 398.488 218.78 398.467 218.866C398.445 218.951 398.399 219.028 398.335 219.088L397.184 220.221C397.129 220.271 397.087 220.336 397.065 220.407C397.042 220.479 397.038 220.555 397.055 220.629L397.333 222.225C397.345 222.311 397.333 222.399 397.299 222.48C397.265 222.56 397.21 222.629 397.139 222.681C397.069 222.732 396.986 222.764 396.899 222.772C396.812 222.78 396.725 222.764 396.646 222.726L395.217 221.965C395.149 221.928 395.072 221.908 394.994 221.908C394.917 221.908 394.84 221.928 394.772 221.965L393.361 222.726C393.282 222.764 393.195 222.78 393.108 222.772C393.021 222.764 392.938 222.732 392.868 222.681C392.797 222.629 392.742 222.56 392.708 222.48C392.674 222.399 392.662 222.311 392.674 222.225L392.953 220.629C392.96 220.554 392.951 220.478 392.925 220.408C392.899 220.337 392.858 220.273 392.804 220.221L391.654 219.088C391.59 219.028 391.544 218.951 391.522 218.866C391.5 218.78 391.503 218.691 391.53 218.607C391.558 218.523 391.608 218.449 391.676 218.393C391.744 218.337 391.826 218.301 391.913 218.29L393.51 218.068C393.583 218.05 393.652 218.018 393.712 217.974C393.773 217.929 393.824 217.873 393.862 217.808L394.567 216.36C394.608 216.282 394.67 216.217 394.745 216.172C394.82 216.127 394.906 216.103 394.994 216.103C395.082 216.103 395.168 216.127 395.244 216.172C395.319 216.217 395.38 216.282 395.421 216.36V216.36Z" fill="#E0E0E0"/>
<path d="M374.857 316.213L375.562 317.661C375.595 317.73 375.644 317.789 375.706 317.835C375.767 317.88 375.839 317.909 375.915 317.92L377.511 318.143C377.598 318.158 377.679 318.197 377.746 318.255C377.813 318.313 377.862 318.388 377.889 318.472C377.916 318.557 377.919 318.647 377.898 318.733C377.877 318.819 377.833 318.897 377.771 318.96L376.62 320.073C376.563 320.128 376.52 320.195 376.495 320.269C376.469 320.343 376.461 320.422 376.471 320.5L376.75 322.078C376.769 322.166 376.763 322.258 376.731 322.342C376.699 322.426 376.643 322.5 376.57 322.553C376.497 322.606 376.411 322.637 376.32 322.641C376.23 322.646 376.141 322.624 376.063 322.579L374.652 321.818C374.509 321.762 374.35 321.762 374.207 321.818L372.778 322.579C372.699 322.617 372.612 322.632 372.525 322.624C372.438 322.616 372.355 322.585 372.285 322.534C372.214 322.482 372.159 322.413 372.125 322.332C372.091 322.252 372.079 322.164 372.091 322.078L372.37 320.5C372.387 320.424 372.385 320.344 372.362 320.269C372.339 320.194 372.297 320.127 372.24 320.073L371.089 318.96C371.026 318.897 370.982 318.819 370.961 318.733C370.941 318.647 370.944 318.557 370.97 318.472C370.997 318.388 371.047 318.313 371.113 318.255C371.18 318.197 371.262 318.158 371.349 318.143L372.945 317.92C373.021 317.909 373.092 317.88 373.154 317.835C373.215 317.789 373.265 317.73 373.298 317.661L374.003 316.213C374.044 316.135 374.105 316.07 374.18 316.025C374.256 315.979 374.342 315.955 374.43 315.955C374.518 315.955 374.604 315.979 374.679 316.025C374.754 316.07 374.816 316.135 374.857 316.213V316.213Z" fill="#E0E0E0"/>
<path d="M281.908 227.478L283.282 230.225C283.342 230.357 283.435 230.473 283.552 230.56C283.668 230.648 283.805 230.705 283.95 230.726L287.012 231.171C287.176 231.196 287.33 231.267 287.456 231.375C287.582 231.483 287.675 231.624 287.726 231.782C287.776 231.941 287.781 232.11 287.74 232.271C287.699 232.431 287.614 232.578 287.495 232.693L285.305 234.846C285.196 234.945 285.115 235.071 285.07 235.211C285.024 235.351 285.016 235.5 285.045 235.644L285.564 238.688C285.59 238.854 285.569 239.024 285.504 239.179C285.439 239.334 285.333 239.468 285.196 239.566C285.06 239.664 284.899 239.722 284.731 239.734C284.564 239.746 284.396 239.712 284.247 239.634L281.537 238.205C281.407 238.132 281.26 238.094 281.11 238.094C280.961 238.094 280.814 238.132 280.683 238.205L277.973 239.634C277.824 239.712 277.657 239.746 277.489 239.734C277.321 239.722 277.16 239.664 277.024 239.566C276.887 239.468 276.781 239.334 276.716 239.179C276.651 239.024 276.63 238.854 276.656 238.688L277.175 235.644C277.204 235.5 277.196 235.351 277.15 235.211C277.105 235.071 277.024 234.945 276.915 234.846L274.725 232.693C274.606 232.578 274.521 232.431 274.48 232.271C274.439 232.11 274.444 231.941 274.494 231.782C274.545 231.624 274.638 231.483 274.764 231.375C274.89 231.267 275.044 231.196 275.208 231.171L278.27 230.726C278.415 230.705 278.552 230.648 278.668 230.56C278.785 230.473 278.878 230.357 278.939 230.225L280.312 227.478C280.386 227.329 280.499 227.204 280.64 227.116C280.781 227.029 280.944 226.983 281.11 226.983C281.276 226.983 281.439 227.029 281.58 227.116C281.721 227.204 281.834 227.329 281.908 227.478Z" fill="#E0E0E0"/>
<path d="M392.192 301.569L393.324 303.87C393.378 303.981 393.46 304.076 393.56 304.147C393.66 304.219 393.777 304.264 393.899 304.279L396.442 304.65C396.582 304.668 396.714 304.726 396.822 304.816C396.93 304.907 397.01 305.026 397.053 305.161C397.096 305.295 397.1 305.439 397.064 305.575C397.028 305.711 396.954 305.835 396.85 305.931L394.994 307.787C394.909 307.874 394.844 307.979 394.805 308.095C394.767 308.211 394.755 308.334 394.772 308.455L395.217 310.979C395.247 311.119 395.235 311.265 395.184 311.398C395.133 311.532 395.044 311.648 394.928 311.733C394.812 311.817 394.675 311.866 394.532 311.874C394.389 311.882 394.246 311.848 394.122 311.777L391.839 310.589C391.736 310.525 391.617 310.491 391.496 310.491C391.374 310.491 391.255 310.525 391.152 310.589L388.87 311.777C388.745 311.848 388.603 311.882 388.46 311.874C388.317 311.866 388.179 311.817 388.064 311.733C387.948 311.648 387.859 311.532 387.808 311.398C387.756 311.265 387.745 311.119 387.774 310.979L388.22 308.455C388.236 308.334 388.225 308.211 388.186 308.095C388.148 307.979 388.083 307.874 387.997 307.787L386.141 305.931C386.038 305.835 385.964 305.711 385.928 305.575C385.892 305.439 385.896 305.295 385.939 305.161C385.981 305.026 386.062 304.907 386.17 304.816C386.278 304.726 386.41 304.668 386.55 304.65L389.092 304.279C389.213 304.261 389.329 304.214 389.429 304.143C389.529 304.072 389.611 303.979 389.668 303.87L390.8 301.569C390.852 301.427 390.947 301.304 391.072 301.218C391.196 301.131 391.344 301.085 391.496 301.085C391.647 301.085 391.795 301.131 391.92 301.218C392.044 301.304 392.139 301.427 392.192 301.569V301.569Z" fill="#E0E0E0"/>
<path d="M296.014 263.929V287.018H290.668V277.552H280.163V287.018H274.818V263.929H280.163V273.042H290.668V263.929H296.014Z" fill="#263238"/>
<path d="M318.416 279.594H305.09C305.358 280.702 306.02 281.674 306.952 282.33C307.884 282.985 309.023 283.28 310.156 283.157C310.976 283.192 311.794 283.058 312.56 282.764C313.326 282.471 314.024 282.023 314.611 281.45L317.358 284.42C316.422 285.407 315.279 286.177 314.012 286.674C312.746 287.171 311.385 287.384 310.027 287.296C303.902 287.296 299.893 283.436 299.893 278.146C299.879 276.913 300.117 275.69 300.593 274.552C301.069 273.415 301.773 272.387 302.662 271.531C303.55 270.676 304.604 270.011 305.759 269.578C306.914 269.146 308.145 268.954 309.377 269.015C310.615 268.942 311.854 269.132 313.013 269.572C314.172 270.013 315.224 270.694 316.101 271.571C316.978 272.448 317.659 273.5 318.099 274.659C318.54 275.818 318.73 277.057 318.657 278.295C318.509 278.61 318.453 279.167 318.416 279.594ZM304.923 276.606H313.664C313.486 275.576 312.95 274.642 312.15 273.969C311.35 273.295 310.339 272.926 309.293 272.926C308.248 272.926 307.236 273.295 306.437 273.969C305.637 274.642 305.101 275.576 304.923 276.606V276.606Z" fill="#263238"/>
<path d="M321.961 262.593H327.102V287.074H321.961V262.593Z" fill="#263238"/>
<path d="M351.23 278.146C351.302 279.342 351.125 280.539 350.71 281.662C350.295 282.785 349.65 283.81 348.818 284.67C347.985 285.531 346.982 286.209 345.873 286.661C344.765 287.113 343.574 287.329 342.377 287.296C341.383 287.344 340.391 287.176 339.469 286.804C338.546 286.433 337.715 285.866 337.031 285.143V293.421H331.89V269.293H336.809V271.335C337.502 270.555 338.364 269.943 339.328 269.545C340.293 269.146 341.335 268.971 342.377 269.033C343.57 269.001 344.758 269.216 345.864 269.666C346.97 270.116 347.971 270.79 348.803 271.647C349.635 272.503 350.281 273.523 350.698 274.642C351.116 275.761 351.297 276.954 351.23 278.146V278.146ZM346.014 278.146C345.939 277.271 345.61 276.437 345.069 275.745C344.528 275.053 343.797 274.534 342.966 274.25C342.135 273.966 341.239 273.931 340.387 274.147C339.536 274.363 338.766 274.822 338.171 275.468C337.576 276.115 337.182 276.92 337.036 277.786C336.891 278.652 337.001 279.542 337.352 280.347C337.703 281.152 338.281 281.838 339.015 282.32C339.749 282.803 340.607 283.061 341.486 283.065C342.116 283.073 342.742 282.948 343.321 282.698C343.9 282.449 344.42 282.08 344.847 281.616C345.275 281.152 345.599 280.603 345.8 280.005C346.002 279.408 346.074 278.774 346.014 278.146V278.146Z" fill="#263238"/>
<path d="M360.306 269.664H364.853V273.729H360.436V287.111H355.294V273.729H352.548V269.757H355.294V268.978C355.229 268.072 355.364 267.164 355.689 266.316C356.013 265.468 356.52 264.702 357.173 264.072C357.827 263.442 358.61 262.963 359.469 262.669C360.328 262.375 361.241 262.273 362.143 262.37C363.52 262.313 364.884 262.648 366.078 263.335L364.723 267.047C364.124 266.578 363.387 266.317 362.626 266.305C361.104 266.305 360.287 267.122 360.287 268.885L360.306 269.664Z" fill="#263238"/>
<path d="M385.306 269.275V287.018H380.425V284.865C379.725 285.641 378.864 286.256 377.902 286.666C376.941 287.077 375.902 287.273 374.857 287.241C370.402 287.241 367.284 284.735 367.284 279.241V269.219H372.425V278.499C372.425 281.469 373.743 282.786 376.026 282.786C378.309 282.786 380.109 281.264 380.109 277.998V269.275H385.306Z" fill="#263238"/>
<path d="M390.113 262.593H395.254V287.074H390.113V262.593Z" fill="#263238"/>
<path d="M306.407 298.302H298.297V296.205H316.968V298.302H308.802V319.294H306.352L306.407 298.302Z" fill="#263238"/>
<path d="M319.381 296.465C319.39 296.02 319.575 295.597 319.895 295.288C320.215 294.979 320.643 294.808 321.088 294.813C321.308 294.806 321.526 294.842 321.732 294.919C321.937 294.996 322.126 295.113 322.286 295.263C322.446 295.413 322.575 295.593 322.666 295.793C322.757 295.993 322.807 296.209 322.814 296.428C322.77 296.852 322.57 297.246 322.253 297.531C321.936 297.817 321.524 297.975 321.098 297.975C320.671 297.975 320.259 297.817 319.942 297.531C319.625 297.246 319.425 296.852 319.381 296.428V296.465ZM319.9 301.94H322.258V319.294H319.938L319.9 301.94Z" fill="#263238"/>
<path d="M346.367 310.608C346.429 311.769 346.25 312.931 345.84 314.02C345.43 315.109 344.798 316.1 343.985 316.932C343.173 317.764 342.196 318.419 341.117 318.854C340.038 319.289 338.881 319.496 337.718 319.461C336.417 319.505 335.127 319.212 333.972 318.61C332.818 318.009 331.839 317.119 331.129 316.027V325.697H328.791V301.94H331.074V305.374C331.765 304.235 332.75 303.303 333.926 302.676C335.102 302.049 336.424 301.75 337.755 301.81C338.911 301.778 340.06 301.985 341.132 302.419C342.204 302.852 343.174 303.502 343.983 304.328C344.792 305.154 345.421 306.138 345.831 307.219C346.241 308.299 346.424 309.453 346.367 310.608V310.608ZM344.029 310.608C343.97 309.34 343.541 308.118 342.794 307.092C342.047 306.066 341.015 305.282 339.827 304.838C338.638 304.393 337.345 304.308 336.108 304.592C334.872 304.876 333.745 305.517 332.87 306.435C331.994 307.353 331.408 308.509 331.183 309.758C330.958 311.007 331.105 312.294 331.606 313.46C332.106 314.626 332.938 315.619 333.999 316.317C335.059 317.014 336.301 317.384 337.57 317.382C338.451 317.399 339.327 317.233 340.141 316.895C340.956 316.557 341.691 316.054 342.301 315.418C342.912 314.781 343.383 314.025 343.687 313.197C343.991 312.37 344.12 311.488 344.066 310.608H344.029Z" fill="#263238"/>
<path d="M348.761 317.308L349.801 315.452C351.618 316.698 353.778 317.347 355.981 317.308C359.285 317.308 360.64 316.176 360.64 314.468C360.64 309.94 349.374 313.503 349.374 306.636C349.374 303.815 351.824 301.699 356.241 301.699C358.398 301.667 360.522 302.225 362.384 303.314L361.363 305.17C359.848 304.163 358.06 303.645 356.241 303.685C353.104 303.685 351.731 304.91 351.731 306.562C351.731 311.239 362.978 307.712 362.978 314.376C362.978 317.382 360.343 319.331 355.814 319.331C353.305 319.444 350.828 318.734 348.761 317.308V317.308Z" fill="#263238"/>
<path d="M349.262 232.47C349.262 229.813 348.548 227.205 347.196 224.918C345.844 222.631 343.902 220.749 341.575 219.468C339.248 218.186 336.619 217.553 333.963 217.634C331.308 217.715 328.722 218.506 326.477 219.927C324.232 221.347 322.409 223.344 321.198 225.709C319.987 228.074 319.433 230.72 319.594 233.372C319.754 236.024 320.623 238.584 322.11 240.786C323.597 242.988 325.648 244.75 328.048 245.889V249.601H341.04C341.04 249.601 341.133 247.504 341.152 245.611C343.579 244.375 345.619 242.495 347.05 240.178C348.48 237.86 349.246 235.194 349.262 232.47Z" fill="#0EA9F1"/>
<path d="M341.078 252.088H328.085C327.847 252.103 327.612 252.024 327.432 251.868C327.251 251.712 327.139 251.491 327.12 251.253V251.253C327.139 251.015 327.251 250.794 327.432 250.638C327.612 250.481 327.847 250.402 328.085 250.418H341.078C341.316 250.402 341.551 250.481 341.731 250.638C341.912 250.794 342.024 251.015 342.043 251.253V251.253C342.024 251.491 341.912 251.712 341.731 251.868C341.551 252.024 341.316 252.103 341.078 252.088Z" fill="#263238"/>
<path d="M340.075 252.83H328.939C328.718 252.83 328.505 252.918 328.349 253.075C328.192 253.232 328.104 253.444 328.104 253.666C328.104 253.887 328.192 254.099 328.349 254.256C328.505 254.413 328.718 254.501 328.939 254.501H330.164L331.797 257.6C331.887 257.779 332.025 257.93 332.196 258.034C332.366 258.139 332.562 258.195 332.763 258.194H336.642C336.841 258.191 337.036 258.134 337.205 258.029C337.375 257.925 337.514 257.777 337.607 257.6L339.184 254.501H340.02C340.241 254.501 340.453 254.413 340.61 254.256C340.767 254.099 340.855 253.887 340.855 253.666C340.855 253.444 340.767 253.232 340.61 253.075C340.453 252.918 340.241 252.83 340.02 252.83H340.075Z" fill="#263238"/>
<path d="M337.458 257.86C337.192 257.804 336.931 257.723 336.679 257.619C336.075 257.45 335.449 257.374 334.823 257.396C334.191 257.412 333.565 257.525 332.967 257.73C332.722 257.846 332.467 257.939 332.206 258.009C332.417 257.84 332.656 257.708 332.911 257.619C333.5 257.371 334.129 257.233 334.767 257.211C335.399 257.195 336.028 257.295 336.623 257.508C336.921 257.573 337.204 257.692 337.458 257.86V257.86Z" fill="#455A64"/>
<path d="M339.277 254.538C339.277 254.538 337.254 254.631 334.748 254.631C332.243 254.631 330.238 254.631 330.238 254.538C330.238 254.445 332.261 254.538 334.748 254.538C337.236 254.538 339.277 254.501 339.277 254.538Z" fill="#455A64"/>
<path d="M338.498 255.874C338.13 255.943 337.758 255.98 337.384 255.986L334.73 256.078C333.672 256.078 332.744 256.078 332.057 256.078C331.687 256.107 331.314 256.107 330.944 256.078C331.313 256.033 331.687 256.033 332.057 256.078H334.73H337.384C337.746 255.967 338.12 255.899 338.498 255.874V255.874Z" fill="#455A64"/>
<path d="M374.226 220.183C371.217 221.25 368.108 222.009 364.946 222.448C361.867 223.199 358.721 223.634 355.554 223.747C358.565 222.692 361.674 221.94 364.834 221.501C367.913 220.75 371.059 220.309 374.226 220.183Z" fill="#263238"/>
<path d="M356.464 202.774C355.222 205.343 353.697 207.764 351.916 209.994C350.394 212.4 348.607 214.629 346.59 216.638C347.831 214.069 349.356 211.648 351.137 209.418C352.659 207.012 354.446 204.783 356.464 202.774V202.774Z" fill="#263238"/>
<path d="M332.93 191.508C333.407 194.82 333.568 198.17 333.412 201.512C333.568 204.854 333.407 208.204 332.93 211.516C332.453 208.204 332.291 204.854 332.447 201.512C332.291 198.17 332.453 194.82 332.93 191.508V191.508Z" fill="#263238"/>
<path d="M320.272 215.469C318.666 214.375 317.25 213.027 316.077 211.479C314.674 210.139 313.502 208.578 312.606 206.857C314.219 207.934 315.638 209.277 316.801 210.829C318.207 212.173 319.379 213.741 320.272 215.469V215.469Z" fill="#263238"/>
<path d="M316.541 225.046C313.097 224.85 309.679 224.328 306.333 223.487C302.924 222.956 299.569 222.117 296.311 220.981C299.756 221.167 303.175 221.689 306.519 222.54C309.929 223.069 313.284 223.907 316.541 225.046V225.046Z" fill="#263238"/>
<path d="M315.854 235.236C314.196 236.373 312.367 237.238 310.435 237.797C308.614 238.64 306.673 239.191 304.681 239.43C306.335 238.301 308.158 237.442 310.082 236.887C311.911 236.045 313.857 235.488 315.854 235.236V235.236Z" fill="#263238"/>
<path d="M365.02 238.576C363.19 238.42 361.4 237.949 359.73 237.184C357.949 236.717 356.265 235.938 354.756 234.883C358.369 235.506 361.844 236.763 365.02 238.595V238.576Z" fill="#263238"/>
<path d="M330.424 220.499C330.424 220.647 329.403 220.926 327.918 221.798C325.982 222.904 324.4 224.539 323.358 226.511C322.316 228.483 321.857 230.711 322.035 232.934C322.146 234.642 322.517 235.681 322.369 235.737C321.774 234.946 321.425 233.997 321.367 233.008C320.995 230.634 321.402 228.203 322.526 226.079C323.65 223.955 325.431 222.251 327.603 221.223C328.449 220.702 329.432 220.45 330.424 220.499V220.499Z" fill="white"/>
<path d="M334.786 219.701C334.786 219.961 334.563 220.239 334.192 220.313C333.82 220.387 333.468 220.22 333.431 219.961C333.394 219.701 333.653 219.422 334.025 219.348C334.396 219.274 334.674 219.441 334.786 219.701Z" fill="white"/>
<path d="M347.202 229.946C347.547 230.681 347.675 231.498 347.573 232.303C347.523 234.238 347.054 236.139 346.199 237.876C345.343 239.613 344.122 241.143 342.618 242.362C341.449 243.272 340.595 243.606 340.521 243.513C342.535 241.857 344.173 239.79 345.325 237.45C346.477 235.111 347.117 232.552 347.202 229.946V229.946Z" fill="white"/>
<path d="M224.706 143.011L216.595 126.474C221.694 112.581 221.413 97.2844 215.806 83.589C210.2 69.8937 199.674 58.7906 186.297 52.4619C172.92 46.1332 157.659 45.0366 143.515 49.3876C129.371 53.7387 117.365 63.2227 109.858 75.9757C102.351 88.7287 99.8852 103.828 102.945 118.307C106.006 132.786 114.371 145.596 126.396 154.221C138.422 162.845 153.238 166.66 167.933 164.915C182.629 163.171 196.14 155.993 205.812 144.792V144.792L224.706 143.011Z" fill="white"/>
<path d="M224.706 143.011L223.537 143.159L219.955 143.549L205.831 145.015C205.802 145.021 205.773 145.02 205.745 145.013C205.717 145.007 205.691 144.994 205.668 144.976C205.646 144.959 205.627 144.937 205.613 144.912C205.6 144.886 205.591 144.858 205.589 144.83C205.589 144.83 205.589 144.83 205.589 144.718L205.942 144.941C199.53 152.435 191.352 158.214 182.148 161.756C179.278 162.869 176.324 163.751 173.313 164.392C170.075 165.032 166.793 165.429 163.495 165.58C148.155 166.304 133.136 161.025 121.624 150.862C115.157 145.149 109.998 138.11 106.497 130.223C102.772 121.832 101.056 112.686 101.486 103.515C101.862 93.9003 104.61 84.5276 109.485 76.2319L111.341 73.0767L113.513 70.1256L114.589 68.6594L115.796 67.2859L118.209 64.5762C119.044 63.7224 119.953 62.9429 120.826 62.1077C121.685 61.2725 122.589 60.4856 123.535 59.7506C125.378 58.2631 127.312 56.8932 129.326 55.6488C136.898 50.8515 145.464 47.8448 154.373 46.8574C163.282 45.87 172.299 46.928 180.737 49.9509C195.267 55.0837 207.241 65.6479 214.145 79.4242C215.63 82.413 216.871 85.5163 217.857 88.7042C218.713 91.6663 219.382 94.6789 219.862 97.7244C221.27 107.471 220.205 117.415 216.762 126.641V126.492C219.361 131.893 221.365 136.051 222.72 138.909L224.223 142.064L224.706 143.104L224.131 142.009C223.76 141.266 223.221 140.153 222.516 138.853C221.124 136.051 219.064 131.968 216.41 126.659C216.397 126.637 216.39 126.611 216.39 126.585C216.39 126.559 216.397 126.534 216.41 126.511C219.73 117.332 220.718 107.472 219.287 97.8172C218.785 94.8095 218.103 91.8345 217.245 88.9084C216.237 85.8004 214.996 82.7728 213.533 79.8511C209.872 72.5351 204.718 66.0676 198.404 60.8653C192.09 55.6629 184.757 51.8413 176.875 49.6468C168.994 47.4523 160.741 46.9335 152.647 48.1239C144.553 49.3143 136.798 52.1875 129.883 56.5583C127.889 57.7777 125.979 59.1294 124.166 60.6043C123.239 61.3207 122.353 62.0891 121.512 62.9058C120.659 63.7224 119.656 64.5019 118.933 65.3557L116.557 68.0098L115.388 69.3461L114.311 70.7938L112.195 73.7077L110.339 76.8072C105.549 84.9698 102.846 94.188 102.47 103.645C102.036 112.671 103.707 121.675 107.351 129.945C110.78 137.735 115.844 144.698 122.199 150.361C133.543 160.404 148.339 165.66 163.477 165.023C166.731 164.893 169.971 164.508 173.165 163.872C176.148 163.259 179.077 162.409 181.925 161.33C191.065 157.868 199.207 152.2 205.626 144.83C205.66 144.795 205.704 144.774 205.751 144.769C205.799 144.764 205.846 144.776 205.886 144.802C205.926 144.829 205.955 144.868 205.969 144.914C205.982 144.96 205.979 145.009 205.96 145.052V145.052L205.756 144.755L219.769 143.549L223.481 143.252L224.706 143.011Z" fill="#263238"/>
<path d="M133.651 110.011L141.297 102.364L156.071 115.486L185.062 87.5906L192.17 95.2559L154.976 130.26L133.651 110.011Z" fill="#0EA9F1"/>
</svg>
