<svg width="197" height="47" viewBox="0 0 197 47" fill="none" xmlns="http://www.w3.org/2000/svg">
<path d="M2.412 36V10.08H6.228V25.524L13.068 18.144H17.64L10.044 26.244L18.756 36H13.932L6.228 26.856V36H2.412ZM26.8937 36.432C25.1897 36.432 23.6537 36.048 22.2857 35.28C20.9417 34.488 19.8737 33.396 19.0817 32.004C18.2897 30.588 17.8937 28.944 17.8937 27.072C17.8937 25.2 18.2897 23.568 19.0817 22.176C19.8977 20.76 20.9897 19.668 22.3577 18.9C23.7257 18.108 25.2497 17.712 26.9297 17.712C28.6337 17.712 30.1577 18.108 31.5017 18.9C32.8697 19.668 33.9497 20.76 34.7417 22.176C35.5577 23.568 35.9657 25.2 35.9657 27.072C35.9657 28.944 35.5577 30.588 34.7417 32.004C33.9497 33.396 32.8697 34.488 31.5017 35.28C30.1337 36.048 28.5977 36.432 26.8937 36.432ZM26.8937 33.156C27.8057 33.156 28.6457 32.928 29.4137 32.472C30.2057 32.016 30.8417 31.344 31.3217 30.456C31.8017 29.544 32.0417 28.416 32.0417 27.072C32.0417 25.728 31.8017 24.612 31.3217 23.724C30.8657 22.812 30.2417 22.128 29.4497 21.672C28.6817 21.216 27.8417 20.988 26.9297 20.988C26.0177 20.988 25.1657 21.216 24.3737 21.672C23.6057 22.128 22.9817 22.812 22.5017 23.724C22.0217 24.612 21.7817 25.728 21.7817 27.072C21.7817 28.416 22.0217 29.544 22.5017 30.456C22.9817 31.344 23.6057 32.016 24.3737 32.472C25.1417 32.928 25.9817 33.156 26.8937 33.156ZM38.2925 36V18.144H41.6765L41.9645 21.276C42.5165 20.172 43.3205 19.308 44.3765 18.684C45.4565 18.036 46.6925 17.712 48.0845 17.712C50.2445 17.712 51.9365 18.384 53.1605 19.728C54.4085 21.072 55.0325 23.076 55.0325 25.74V36H51.2525V26.136C51.2525 22.68 49.8365 20.952 47.0045 20.952C45.5885 20.952 44.4125 21.456 43.4765 22.464C42.5645 23.472 42.1085 24.912 42.1085 26.784V36H38.2925ZM57.7268 36V18.144H61.1108L61.3988 21.276C61.9508 20.172 62.7548 19.308 63.8108 18.684C64.8908 18.036 66.1268 17.712 67.5188 17.712C69.6788 17.712 71.3708 18.384 72.5948 19.728C73.8428 21.072 74.4668 23.076 74.4668 25.74V36H70.6868V26.136C70.6868 22.68 69.2708 20.952 66.4388 20.952C65.0228 20.952 63.8468 21.456 62.9108 22.464C61.9988 23.472 61.5428 24.912 61.5428 26.784V36H57.7268ZM85.5132 36.432C83.7612 36.432 82.2012 36.048 80.8332 35.28C79.4892 34.488 78.4332 33.396 77.6652 32.004C76.8972 30.612 76.5132 28.992 76.5132 27.144C76.5132 25.272 76.8852 23.628 77.6292 22.212C78.3972 20.796 79.4532 19.692 80.7972 18.9C82.1652 18.108 83.7492 17.712 85.5492 17.712C87.3012 17.712 88.8252 18.108 90.1212 18.9C91.4172 19.668 92.4252 20.7 93.1452 21.996C93.8652 23.292 94.2252 24.72 94.2252 26.28C94.2252 26.52 94.2132 26.784 94.1892 27.072C94.1892 27.336 94.1772 27.636 94.1532 27.972H80.2572C80.3772 29.7 80.9412 31.02 81.9492 31.932C82.9812 32.82 84.1692 33.264 85.5132 33.264C86.5932 33.264 87.4932 33.024 88.2132 32.544C88.9572 32.04 89.5092 31.368 89.8692 30.528H93.6852C93.2052 32.208 92.2452 33.612 90.8052 34.74C89.3892 35.868 87.6252 36.432 85.5132 36.432ZM85.5132 20.844C84.2412 20.844 83.1132 21.228 82.1292 21.996C81.1452 22.74 80.5452 23.868 80.3292 25.38H90.4092C90.3372 23.988 89.8452 22.884 88.9332 22.068C88.0212 21.252 86.8812 20.844 85.5132 20.844ZM104.845 36.432C103.093 36.432 101.521 36.036 100.129 35.244C98.7607 34.452 97.6807 33.36 96.8887 31.968C96.1207 30.552 95.7367 28.92 95.7367 27.072C95.7367 25.224 96.1207 23.604 96.8887 22.212C97.6807 20.796 98.7607 19.692 100.129 18.9C101.521 18.108 103.093 17.712 104.845 17.712C107.053 17.712 108.901 18.288 110.389 19.44C111.901 20.592 112.873 22.152 113.305 24.12H109.309C109.069 23.136 108.541 22.368 107.725 21.816C106.909 21.264 105.949 20.988 104.845 20.988C103.909 20.988 103.045 21.228 102.253 21.708C101.461 22.164 100.825 22.848 100.345 23.76C99.8647 24.648 99.6247 25.752 99.6247 27.072C99.6247 28.392 99.8647 29.508 100.345 30.42C100.825 31.308 101.461 31.992 102.253 32.472C103.045 32.952 103.909 33.192 104.845 33.192C105.949 33.192 106.909 32.916 107.725 32.364C108.541 31.812 109.069 31.032 109.309 30.024H113.305C112.897 31.944 111.937 33.492 110.425 34.668C108.913 35.844 107.053 36.432 104.845 36.432ZM122.78 36C121.028 36 119.636 35.58 118.604 34.74C117.572 33.876 117.056 32.352 117.056 30.168V21.348H113.996V18.144H117.056L117.524 13.608H120.872V18.144H125.912V21.348H120.872V30.168C120.872 31.152 121.076 31.836 121.484 32.22C121.916 32.58 122.648 32.76 123.68 32.76H125.732V36H122.78ZM130.206 14.76C129.486 14.76 128.886 14.544 128.406 14.112C127.95 13.656 127.722 13.092 127.722 12.42C127.722 11.748 127.95 11.196 128.406 10.764C128.886 10.308 129.486 10.08 130.206 10.08C130.926 10.08 131.514 10.308 131.97 10.764C132.45 11.196 132.69 11.748 132.69 12.42C132.69 13.092 132.45 13.656 131.97 14.112C131.514 14.544 130.926 14.76 130.206 14.76ZM128.298 36V18.144H132.114V36H128.298ZM143.704 36.432C142 36.432 140.464 36.048 139.096 35.28C137.752 34.488 136.684 33.396 135.892 32.004C135.1 30.588 134.704 28.944 134.704 27.072C134.704 25.2 135.1 23.568 135.892 22.176C136.708 20.76 137.8 19.668 139.168 18.9C140.536 18.108 142.06 17.712 143.74 17.712C145.444 17.712 146.968 18.108 148.312 18.9C149.68 19.668 150.76 20.76 151.552 22.176C152.368 23.568 152.776 25.2 152.776 27.072C152.776 28.944 152.368 30.588 151.552 32.004C150.76 33.396 149.68 34.488 148.312 35.28C146.944 36.048 145.408 36.432 143.704 36.432ZM143.704 33.156C144.616 33.156 145.456 32.928 146.224 32.472C147.016 32.016 147.652 31.344 148.132 30.456C148.612 29.544 148.852 28.416 148.852 27.072C148.852 25.728 148.612 24.612 148.132 23.724C147.676 22.812 147.052 22.128 146.26 21.672C145.492 21.216 144.652 20.988 143.74 20.988C142.828 20.988 141.976 21.216 141.184 21.672C140.416 22.128 139.792 22.812 139.312 23.724C138.832 24.612 138.592 25.728 138.592 27.072C138.592 28.416 138.832 29.544 139.312 30.456C139.792 31.344 140.416 32.016 141.184 32.472C141.952 32.928 142.792 33.156 143.704 33.156ZM155.103 36V18.144H158.487L158.775 21.276C159.327 20.172 160.131 19.308 161.187 18.684C162.267 18.036 163.503 17.712 164.895 17.712C167.055 17.712 168.747 18.384 169.971 19.728C171.219 21.072 171.843 23.076 171.843 25.74V36H168.063V26.136C168.063 22.68 166.647 20.952 163.815 20.952C162.399 20.952 161.223 21.456 160.287 22.464C159.375 23.472 158.919 24.912 158.919 26.784V36H155.103ZM181.665 36.432C179.409 36.432 177.549 35.88 176.085 34.776C174.621 33.672 173.781 32.208 173.565 30.384H177.417C177.609 31.2 178.065 31.908 178.785 32.508C179.505 33.084 180.453 33.372 181.629 33.372C182.781 33.372 183.621 33.132 184.149 32.652C184.677 32.172 184.941 31.62 184.941 30.996C184.941 30.084 184.569 29.472 183.825 29.16C183.105 28.824 182.097 28.524 180.801 28.26C179.793 28.044 178.785 27.756 177.777 27.396C176.793 27.036 175.965 26.532 175.293 25.884C174.645 25.212 174.321 24.312 174.321 23.184C174.321 21.624 174.921 20.328 176.121 19.296C177.321 18.24 179.001 17.712 181.161 17.712C183.153 17.712 184.761 18.192 185.985 19.152C187.233 20.112 187.965 21.468 188.181 23.22H184.509C184.389 22.452 184.029 21.852 183.429 21.42C182.853 20.988 182.073 20.772 181.089 20.772C180.129 20.772 179.385 20.976 178.857 21.384C178.329 21.768 178.065 22.272 178.065 22.896C178.065 23.52 178.425 24.012 179.145 24.372C179.889 24.732 180.861 25.056 182.061 25.344C183.261 25.608 184.365 25.92 185.373 26.28C186.405 26.616 187.233 27.12 187.857 27.792C188.481 28.464 188.793 29.448 188.793 30.744C188.817 32.376 188.181 33.732 186.885 34.812C185.613 35.892 183.873 36.432 181.665 36.432Z" fill="#011118"/>
<path d="M192.671 36.216C191.951 36.216 191.351 35.988 190.871 35.532C190.415 35.052 190.187 34.488 190.187 33.84C190.187 33.168 190.415 32.604 190.871 32.148C191.351 31.668 191.951 31.428 192.671 31.428C193.391 31.428 193.979 31.668 194.435 32.148C194.891 32.604 195.119 33.168 195.119 33.84C195.119 34.488 194.891 35.052 194.435 35.532C193.979 35.988 193.391 36.216 192.671 36.216Z" fill="#0EA9F1"/>
<circle cx="130" cy="12" r="3" fill="#0EA9F1"/>
<circle cx="193" cy="34" r="3" fill="#0EA9F1"/>
</svg>
