<svg width="796" height="228" viewBox="0 0 796 228" fill="none" xmlns="http://www.w3.org/2000/svg">
<rect x="49" y="84" width="180" height="60" rx="30" fill="#E7F6FE"/>
<path d="M79.672 122L73.456 105.2H76.168L81.208 119.36L86.272 105.2H88.96L82.744 122H79.672ZM93.9057 122.288C92.7697 122.288 91.7457 122.032 90.8337 121.52C89.9377 120.992 89.2257 120.264 88.6977 119.336C88.1697 118.392 87.9057 117.296 87.9057 116.048C87.9057 114.8 88.1697 113.712 88.6977 112.784C89.2417 111.84 89.9697 111.112 90.8817 110.6C91.7937 110.072 92.8097 109.808 93.9297 109.808C95.0657 109.808 96.0817 110.072 96.9777 110.6C97.8897 111.112 98.6097 111.84 99.1377 112.784C99.6817 113.712 99.9537 114.8 99.9537 116.048C99.9537 117.296 99.6817 118.392 99.1377 119.336C98.6097 120.264 97.8897 120.992 96.9777 121.52C96.0657 122.032 95.0417 122.288 93.9057 122.288ZM93.9057 120.104C94.5137 120.104 95.0737 119.952 95.5857 119.648C96.1137 119.344 96.5377 118.896 96.8577 118.304C97.1777 117.696 97.3377 116.944 97.3377 116.048C97.3377 115.152 97.1777 114.408 96.8577 113.816C96.5537 113.208 96.1377 112.752 95.6097 112.448C95.0977 112.144 94.5377 111.992 93.9297 111.992C93.3217 111.992 92.7537 112.144 92.2257 112.448C91.7137 112.752 91.2977 113.208 90.9777 113.816C90.6577 114.408 90.4977 115.152 90.4977 116.048C90.4977 116.944 90.6577 117.696 90.9777 118.304C91.2977 118.896 91.7137 119.344 92.2257 119.648C92.7377 119.952 93.2977 120.104 93.9057 120.104ZM101.505 122V104.72H104.049V122H101.505ZM110.462 122.288C109.022 122.288 107.886 121.84 107.054 120.944C106.238 120.048 105.83 118.712 105.83 116.936V110.096H108.374V116.672C108.374 118.976 109.318 120.128 111.207 120.128C112.15 120.128 112.926 119.792 113.535 119.12C114.142 118.448 114.446 117.488 114.446 116.24V110.096H116.99V122H114.735L114.543 119.912C114.174 120.648 113.631 121.232 112.911 121.664C112.207 122.08 111.391 122.288 110.462 122.288ZM119.027 122V110.096H121.283L121.475 112.184C121.843 111.448 122.379 110.872 123.083 110.456C123.803 110.024 124.627 109.808 125.555 109.808C126.995 109.808 128.123 110.256 128.939 111.152C129.771 112.048 130.187 113.384 130.187 115.16V122H127.667V115.424C127.667 113.12 126.723 111.968 124.835 111.968C123.891 111.968 123.107 112.304 122.483 112.976C121.875 113.648 121.571 114.608 121.571 115.856V122H119.027ZM136.975 122C135.807 122 134.879 121.72 134.191 121.16C133.503 120.584 133.159 119.568 133.159 118.112V112.232H131.119V110.096H133.159L133.471 107.072H135.703V110.096H139.063V112.232H135.703V118.112C135.703 118.768 135.839 119.224 136.111 119.48C136.399 119.72 136.887 119.84 137.575 119.84H138.943V122H136.975ZM145.749 122.288C144.581 122.288 143.541 122.032 142.629 121.52C141.733 120.992 141.029 120.264 140.517 119.336C140.005 118.408 139.749 117.328 139.749 116.096C139.749 114.848 139.997 113.752 140.493 112.808C141.005 111.864 141.709 111.128 142.605 110.6C143.517 110.072 144.573 109.808 145.773 109.808C146.941 109.808 147.957 110.072 148.821 110.6C149.685 111.112 150.357 111.8 150.837 112.664C151.317 113.528 151.557 114.48 151.557 115.52C151.557 115.68 151.549 115.856 151.533 116.048C151.533 116.224 151.525 116.424 151.509 116.648H142.245C142.325 117.8 142.701 118.68 143.373 119.288C144.061 119.88 144.853 120.176 145.749 120.176C146.469 120.176 147.069 120.016 147.549 119.696C148.045 119.36 148.413 118.912 148.653 118.352H151.197C150.877 119.472 150.237 120.408 149.277 121.16C148.333 121.912 147.157 122.288 145.749 122.288ZM145.749 111.896C144.901 111.896 144.149 112.152 143.493 112.664C142.837 113.16 142.437 113.912 142.293 114.92H149.013C148.965 113.992 148.637 113.256 148.029 112.712C147.421 112.168 146.661 111.896 145.749 111.896ZM158.565 122.288C157.397 122.288 156.357 122.032 155.445 121.52C154.549 120.992 153.845 120.264 153.333 119.336C152.821 118.408 152.565 117.328 152.565 116.096C152.565 114.848 152.813 113.752 153.309 112.808C153.821 111.864 154.525 111.128 155.421 110.6C156.333 110.072 157.389 109.808 158.589 109.808C159.757 109.808 160.773 110.072 161.637 110.6C162.501 111.112 163.173 111.8 163.653 112.664C164.133 113.528 164.373 114.48 164.373 115.52C164.373 115.68 164.365 115.856 164.349 116.048C164.349 116.224 164.341 116.424 164.325 116.648H155.061C155.141 117.8 155.517 118.68 156.189 119.288C156.877 119.88 157.669 120.176 158.565 120.176C159.285 120.176 159.885 120.016 160.365 119.696C160.861 119.36 161.229 118.912 161.469 118.352H164.013C163.693 119.472 163.053 120.408 162.093 121.16C161.149 121.912 159.973 122.288 158.565 122.288ZM158.565 111.896C157.717 111.896 156.965 112.152 156.309 112.664C155.653 113.16 155.253 113.912 155.109 114.92H161.829C161.781 113.992 161.453 113.256 160.845 112.712C160.237 112.168 159.477 111.896 158.565 111.896ZM165.813 122V110.096H168.093L168.309 112.352C168.725 111.568 169.301 110.952 170.037 110.504C170.789 110.04 171.693 109.808 172.749 109.808V112.472H172.053C171.349 112.472 170.717 112.592 170.157 112.832C169.613 113.056 169.173 113.448 168.837 114.008C168.517 114.552 168.357 115.312 168.357 116.288V122H165.813ZM175.17 107.84C174.69 107.84 174.29 107.696 173.97 107.408C173.666 107.104 173.514 106.728 173.514 106.28C173.514 105.832 173.666 105.464 173.97 105.176C174.29 104.872 174.69 104.72 175.17 104.72C175.65 104.72 176.042 104.872 176.346 105.176C176.666 105.464 176.826 105.832 176.826 106.28C176.826 106.728 176.666 107.104 176.346 107.408C176.042 107.696 175.65 107.84 175.17 107.84ZM173.898 122V110.096H176.442V122H173.898ZM178.6 122V110.096H180.856L181.048 112.184C181.416 111.448 181.952 110.872 182.656 110.456C183.376 110.024 184.2 109.808 185.128 109.808C186.568 109.808 187.696 110.256 188.512 111.152C189.344 112.048 189.76 113.384 189.76 115.16V122H187.24V115.424C187.24 113.12 186.296 111.968 184.408 111.968C183.464 111.968 182.68 112.304 182.056 112.976C181.448 113.648 181.144 114.608 181.144 115.856V122H178.6ZM196.428 118.352C195.804 118.352 195.228 118.28 194.7 118.136L193.668 119.144C193.844 119.256 194.06 119.352 194.316 119.432C194.572 119.512 194.932 119.584 195.396 119.648C195.86 119.712 196.492 119.776 197.292 119.84C198.876 119.984 200.02 120.368 200.724 120.992C201.428 121.6 201.78 122.416 201.78 123.44C201.78 124.144 201.588 124.808 201.204 125.432C200.836 126.072 200.252 126.584 199.452 126.968C198.668 127.368 197.66 127.568 196.428 127.568C194.764 127.568 193.412 127.248 192.372 126.608C191.348 125.984 190.836 125.032 190.836 123.752C190.836 123.256 190.964 122.76 191.22 122.264C191.492 121.784 191.916 121.328 192.492 120.896C192.156 120.752 191.86 120.6 191.604 120.44C191.364 120.264 191.148 120.088 190.956 119.912V119.336L193.02 117.224C192.092 116.424 191.628 115.376 191.628 114.08C191.628 113.296 191.812 112.584 192.18 111.944C192.564 111.288 193.116 110.768 193.836 110.384C194.556 110 195.42 109.808 196.428 109.808C197.1 109.808 197.724 109.904 198.3 110.096H202.74V111.776L200.628 111.896C201.012 112.552 201.204 113.28 201.204 114.08C201.204 114.88 201.012 115.6 200.628 116.24C200.26 116.88 199.716 117.392 198.996 117.776C198.292 118.16 197.436 118.352 196.428 118.352ZM196.428 116.36C197.164 116.36 197.756 116.168 198.204 115.784C198.668 115.384 198.9 114.824 198.9 114.104C198.9 113.368 198.668 112.808 198.204 112.424C197.756 112.04 197.164 111.848 196.428 111.848C195.676 111.848 195.068 112.04 194.604 112.424C194.156 112.808 193.932 113.368 193.932 114.104C193.932 114.824 194.156 115.384 194.604 115.784C195.068 116.168 195.676 116.36 196.428 116.36ZM193.236 123.512C193.236 124.2 193.54 124.712 194.148 125.048C194.756 125.4 195.516 125.576 196.428 125.576C197.308 125.576 198.02 125.384 198.564 125C199.108 124.632 199.38 124.136 199.38 123.512C199.38 123.048 199.196 122.648 198.828 122.312C198.46 121.992 197.764 121.792 196.74 121.712C195.972 121.664 195.292 121.592 194.7 121.496C194.14 121.8 193.756 122.128 193.548 122.48C193.34 122.832 193.236 123.176 193.236 123.512Z" fill="#0EA9F1"/>
<rect x="253" y="84" width="180" height="60" rx="30" fill="#E7F6FE"/>
<path d="M285.192 122.288C283.528 122.288 282.088 121.928 280.872 121.208C279.672 120.472 278.744 119.456 278.088 118.16C277.432 116.848 277.104 115.336 277.104 113.624C277.104 111.896 277.432 110.384 278.088 109.088C278.744 107.776 279.672 106.752 280.872 106.016C282.088 105.28 283.528 104.912 285.192 104.912C287.16 104.912 288.768 105.392 290.016 106.352C291.264 107.312 292.056 108.656 292.392 110.384H289.56C289.336 109.408 288.856 108.632 288.12 108.056C287.384 107.48 286.4 107.192 285.168 107.192C283.488 107.192 282.16 107.768 281.184 108.92C280.208 110.056 279.72 111.624 279.72 113.624C279.72 115.608 280.208 117.168 281.184 118.304C282.16 119.44 283.488 120.008 285.168 120.008C286.4 120.008 287.384 119.736 288.12 119.192C288.856 118.648 289.336 117.904 289.56 116.96H292.392C292.056 118.624 291.264 119.928 290.016 120.872C288.768 121.816 287.16 122.288 285.192 122.288ZM299.46 122.288C298.324 122.288 297.3 122.032 296.388 121.52C295.492 120.992 294.78 120.264 294.252 119.336C293.724 118.392 293.46 117.296 293.46 116.048C293.46 114.8 293.724 113.712 294.252 112.784C294.796 111.84 295.524 111.112 296.436 110.6C297.348 110.072 298.364 109.808 299.484 109.808C300.62 109.808 301.636 110.072 302.532 110.6C303.444 111.112 304.164 111.84 304.692 112.784C305.236 113.712 305.508 114.8 305.508 116.048C305.508 117.296 305.236 118.392 304.692 119.336C304.164 120.264 303.444 120.992 302.532 121.52C301.62 122.032 300.596 122.288 299.46 122.288ZM299.46 120.104C300.068 120.104 300.628 119.952 301.14 119.648C301.668 119.344 302.092 118.896 302.412 118.304C302.732 117.696 302.892 116.944 302.892 116.048C302.892 115.152 302.732 114.408 302.412 113.816C302.108 113.208 301.692 112.752 301.164 112.448C300.652 112.144 300.092 111.992 299.484 111.992C298.876 111.992 298.308 112.144 297.78 112.448C297.268 112.752 296.852 113.208 296.532 113.816C296.212 114.408 296.052 115.152 296.052 116.048C296.052 116.944 296.212 117.696 296.532 118.304C296.852 118.896 297.268 119.344 297.78 119.648C298.292 119.952 298.852 120.104 299.46 120.104ZM307.06 122V110.096H309.316L309.508 112.184C309.876 111.448 310.412 110.872 311.116 110.456C311.836 110.024 312.66 109.808 313.588 109.808C315.028 109.808 316.156 110.256 316.972 111.152C317.804 112.048 318.22 113.384 318.22 115.16V122H315.7V115.424C315.7 113.12 314.756 111.968 312.868 111.968C311.924 111.968 311.14 112.304 310.516 112.976C309.908 113.648 309.604 114.608 309.604 115.856V122H307.06ZM320.016 122V110.096H322.272L322.464 112.184C322.832 111.448 323.368 110.872 324.072 110.456C324.792 110.024 325.616 109.808 326.544 109.808C327.984 109.808 329.112 110.256 329.928 111.152C330.76 112.048 331.176 113.384 331.176 115.16V122H328.656V115.424C328.656 113.12 327.712 111.968 325.824 111.968C324.88 111.968 324.096 112.304 323.472 112.976C322.864 113.648 322.56 114.608 322.56 115.856V122H320.016ZM338.54 122.288C337.372 122.288 336.332 122.032 335.42 121.52C334.524 120.992 333.82 120.264 333.308 119.336C332.796 118.408 332.54 117.328 332.54 116.096C332.54 114.848 332.788 113.752 333.284 112.808C333.796 111.864 334.5 111.128 335.396 110.6C336.308 110.072 337.364 109.808 338.564 109.808C339.732 109.808 340.748 110.072 341.612 110.6C342.476 111.112 343.148 111.8 343.628 112.664C344.108 113.528 344.348 114.48 344.348 115.52C344.348 115.68 344.34 115.856 344.324 116.048C344.324 116.224 344.316 116.424 344.3 116.648H335.036C335.116 117.8 335.492 118.68 336.164 119.288C336.852 119.88 337.644 120.176 338.54 120.176C339.26 120.176 339.86 120.016 340.34 119.696C340.836 119.36 341.204 118.912 341.444 118.352H343.988C343.668 119.472 343.028 120.408 342.068 121.16C341.124 121.912 339.948 122.288 338.54 122.288ZM338.54 111.896C337.692 111.896 336.94 112.152 336.284 112.664C335.628 113.16 335.228 113.912 335.084 114.92H341.804C341.756 113.992 341.428 113.256 340.82 112.712C340.212 112.168 339.452 111.896 338.54 111.896ZM351.428 122.288C350.26 122.288 349.212 122.024 348.284 121.496C347.372 120.968 346.652 120.24 346.124 119.312C345.612 118.368 345.356 117.28 345.356 116.048C345.356 114.816 345.612 113.736 346.124 112.808C346.652 111.864 347.372 111.128 348.284 110.6C349.212 110.072 350.26 109.808 351.428 109.808C352.9 109.808 354.132 110.192 355.124 110.96C356.132 111.728 356.78 112.768 357.068 114.08H354.404C354.244 113.424 353.892 112.912 353.348 112.544C352.804 112.176 352.164 111.992 351.428 111.992C350.804 111.992 350.228 112.152 349.7 112.472C349.172 112.776 348.748 113.232 348.428 113.84C348.108 114.432 347.948 115.168 347.948 116.048C347.948 116.928 348.108 117.672 348.428 118.28C348.748 118.872 349.172 119.328 349.7 119.648C350.228 119.968 350.804 120.128 351.428 120.128C352.164 120.128 352.804 119.944 353.348 119.576C353.892 119.208 354.244 118.688 354.404 118.016H357.068C356.796 119.296 356.156 120.328 355.148 121.112C354.14 121.896 352.9 122.288 351.428 122.288ZM363.384 122C362.216 122 361.288 121.72 360.6 121.16C359.912 120.584 359.568 119.568 359.568 118.112V112.232H357.528V110.096H359.568L359.88 107.072H362.112V110.096H365.472V112.232H362.112V118.112C362.112 118.768 362.248 119.224 362.52 119.48C362.808 119.72 363.296 119.84 363.984 119.84H365.352V122H363.384ZM368.335 107.84C367.855 107.84 367.455 107.696 367.135 107.408C366.831 107.104 366.679 106.728 366.679 106.28C366.679 105.832 366.831 105.464 367.135 105.176C367.455 104.872 367.855 104.72 368.335 104.72C368.815 104.72 369.207 104.872 369.511 105.176C369.831 105.464 369.991 105.832 369.991 106.28C369.991 106.728 369.831 107.104 369.511 107.408C369.207 107.696 368.815 107.84 368.335 107.84ZM367.063 122V110.096H369.607V122H367.063ZM377.334 122.288C376.198 122.288 375.174 122.032 374.262 121.52C373.366 120.992 372.654 120.264 372.126 119.336C371.598 118.392 371.334 117.296 371.334 116.048C371.334 114.8 371.598 113.712 372.126 112.784C372.67 111.84 373.398 111.112 374.31 110.6C375.222 110.072 376.238 109.808 377.358 109.808C378.494 109.808 379.51 110.072 380.406 110.6C381.318 111.112 382.038 111.84 382.566 112.784C383.11 113.712 383.382 114.8 383.382 116.048C383.382 117.296 383.11 118.392 382.566 119.336C382.038 120.264 381.318 120.992 380.406 121.52C379.494 122.032 378.47 122.288 377.334 122.288ZM377.334 120.104C377.942 120.104 378.502 119.952 379.014 119.648C379.542 119.344 379.966 118.896 380.286 118.304C380.606 117.696 380.766 116.944 380.766 116.048C380.766 115.152 380.606 114.408 380.286 113.816C379.982 113.208 379.566 112.752 379.038 112.448C378.526 112.144 377.966 111.992 377.358 111.992C376.75 111.992 376.182 112.144 375.654 112.448C375.142 112.752 374.726 113.208 374.406 113.816C374.086 114.408 373.926 115.152 373.926 116.048C373.926 116.944 374.086 117.696 374.406 118.304C374.726 118.896 375.142 119.344 375.654 119.648C376.166 119.952 376.726 120.104 377.334 120.104ZM384.933 122V110.096H387.189L387.381 112.184C387.749 111.448 388.285 110.872 388.989 110.456C389.709 110.024 390.533 109.808 391.461 109.808C392.901 109.808 394.029 110.256 394.845 111.152C395.677 112.048 396.093 113.384 396.093 115.16V122H393.573V115.424C393.573 113.12 392.629 111.968 390.741 111.968C389.797 111.968 389.013 112.304 388.389 112.976C387.781 113.648 387.477 114.608 387.477 115.856V122H384.933ZM402.641 122.288C401.137 122.288 399.897 121.92 398.921 121.184C397.945 120.448 397.385 119.472 397.241 118.256H399.809C399.937 118.8 400.241 119.272 400.721 119.672C401.201 120.056 401.833 120.248 402.617 120.248C403.385 120.248 403.945 120.088 404.297 119.768C404.649 119.448 404.825 119.08 404.825 118.664C404.825 118.056 404.577 117.648 404.081 117.44C403.601 117.216 402.929 117.016 402.065 116.84C401.393 116.696 400.721 116.504 400.049 116.264C399.393 116.024 398.841 115.688 398.393 115.256C397.961 114.808 397.745 114.208 397.745 113.456C397.745 112.416 398.145 111.552 398.945 110.864C399.745 110.16 400.865 109.808 402.305 109.808C403.633 109.808 404.705 110.128 405.521 110.768C406.353 111.408 406.841 112.312 406.985 113.48H404.537C404.457 112.968 404.217 112.568 403.817 112.28C403.433 111.992 402.913 111.848 402.257 111.848C401.617 111.848 401.121 111.984 400.769 112.256C400.417 112.512 400.241 112.848 400.241 113.264C400.241 113.68 400.481 114.008 400.961 114.248C401.457 114.488 402.105 114.704 402.905 114.896C403.705 115.072 404.441 115.28 405.113 115.52C405.801 115.744 406.353 116.08 406.769 116.528C407.185 116.976 407.393 117.632 407.393 118.496C407.409 119.584 406.985 120.488 406.121 121.208C405.273 121.928 404.113 122.288 402.641 122.288Z" fill="#0EA9F1"/>
<rect x="457" y="84" width="130" height="60" rx="30" fill="#E7F6FE"/>
<path d="M484.64 122V107.264H479.672V105.2H492.128V107.264H487.184V122H484.64ZM496.409 122.288C494.969 122.288 493.833 121.84 493.001 120.944C492.185 120.048 491.777 118.712 491.777 116.936V110.096H494.321V116.672C494.321 118.976 495.265 120.128 497.153 120.128C498.097 120.128 498.873 119.792 499.481 119.12C500.089 118.448 500.393 117.488 500.393 116.24V110.096H502.937V122H500.681L500.489 119.912C500.121 120.648 499.577 121.232 498.857 121.664C498.153 122.08 497.337 122.288 496.409 122.288ZM509.966 122C508.798 122 507.87 121.72 507.182 121.16C506.494 120.584 506.15 119.568 506.15 118.112V112.232H504.11V110.096H506.15L506.462 107.072H508.694V110.096H512.054V112.232H508.694V118.112C508.694 118.768 508.83 119.224 509.102 119.48C509.39 119.72 509.878 119.84 510.566 119.84H511.934V122H509.966ZM518.74 122.288C517.604 122.288 516.58 122.032 515.668 121.52C514.772 120.992 514.06 120.264 513.532 119.336C513.004 118.392 512.74 117.296 512.74 116.048C512.74 114.8 513.004 113.712 513.532 112.784C514.076 111.84 514.804 111.112 515.716 110.6C516.628 110.072 517.644 109.808 518.764 109.808C519.9 109.808 520.916 110.072 521.812 110.6C522.724 111.112 523.444 111.84 523.972 112.784C524.516 113.712 524.788 114.8 524.788 116.048C524.788 117.296 524.516 118.392 523.972 119.336C523.444 120.264 522.724 120.992 521.812 121.52C520.9 122.032 519.876 122.288 518.74 122.288ZM518.74 120.104C519.348 120.104 519.908 119.952 520.42 119.648C520.948 119.344 521.372 118.896 521.692 118.304C522.012 117.696 522.172 116.944 522.172 116.048C522.172 115.152 522.012 114.408 521.692 113.816C521.388 113.208 520.972 112.752 520.444 112.448C519.932 112.144 519.372 111.992 518.764 111.992C518.156 111.992 517.588 112.144 517.06 112.448C516.548 112.752 516.132 113.208 515.812 113.816C515.492 114.408 515.332 115.152 515.332 116.048C515.332 116.944 515.492 117.696 515.812 118.304C516.132 118.896 516.548 119.344 517.06 119.648C517.572 119.952 518.132 120.104 518.74 120.104ZM526.339 122V110.096H528.619L528.835 112.352C529.251 111.568 529.827 110.952 530.563 110.504C531.315 110.04 532.219 109.808 533.275 109.808V112.472H532.579C531.875 112.472 531.243 112.592 530.683 112.832C530.139 113.056 529.699 113.448 529.363 114.008C529.043 114.552 528.883 115.312 528.883 116.288V122H526.339ZM535.696 107.84C535.216 107.84 534.816 107.696 534.496 107.408C534.192 107.104 534.04 106.728 534.04 106.28C534.04 105.832 534.192 105.464 534.496 105.176C534.816 104.872 535.216 104.72 535.696 104.72C536.176 104.72 536.568 104.872 536.872 105.176C537.192 105.464 537.352 105.832 537.352 106.28C537.352 106.728 537.192 107.104 536.872 107.408C536.568 107.696 536.176 107.84 535.696 107.84ZM534.424 122V110.096H536.968V122H534.424ZM539.127 122V110.096H541.383L541.575 112.184C541.943 111.448 542.479 110.872 543.183 110.456C543.903 110.024 544.727 109.808 545.655 109.808C547.095 109.808 548.223 110.256 549.039 111.152C549.871 112.048 550.287 113.384 550.287 115.16V122H547.767V115.424C547.767 113.12 546.823 111.968 544.935 111.968C543.991 111.968 543.207 112.304 542.583 112.976C541.975 113.648 541.671 114.608 541.671 115.856V122H539.127ZM556.955 118.352C556.331 118.352 555.755 118.28 555.227 118.136L554.195 119.144C554.371 119.256 554.587 119.352 554.843 119.432C555.099 119.512 555.459 119.584 555.923 119.648C556.387 119.712 557.019 119.776 557.819 119.84C559.403 119.984 560.547 120.368 561.251 120.992C561.955 121.6 562.307 122.416 562.307 123.44C562.307 124.144 562.115 124.808 561.731 125.432C561.363 126.072 560.779 126.584 559.979 126.968C559.195 127.368 558.187 127.568 556.955 127.568C555.291 127.568 553.939 127.248 552.899 126.608C551.875 125.984 551.363 125.032 551.363 123.752C551.363 123.256 551.491 122.76 551.747 122.264C552.019 121.784 552.443 121.328 553.019 120.896C552.683 120.752 552.387 120.6 552.131 120.44C551.891 120.264 551.675 120.088 551.483 119.912V119.336L553.547 117.224C552.619 116.424 552.155 115.376 552.155 114.08C552.155 113.296 552.339 112.584 552.707 111.944C553.091 111.288 553.643 110.768 554.363 110.384C555.083 110 555.947 109.808 556.955 109.808C557.627 109.808 558.251 109.904 558.827 110.096H563.267V111.776L561.155 111.896C561.539 112.552 561.731 113.28 561.731 114.08C561.731 114.88 561.539 115.6 561.155 116.24C560.787 116.88 560.243 117.392 559.523 117.776C558.819 118.16 557.963 118.352 556.955 118.352ZM556.955 116.36C557.691 116.36 558.283 116.168 558.731 115.784C559.195 115.384 559.427 114.824 559.427 114.104C559.427 113.368 559.195 112.808 558.731 112.424C558.283 112.04 557.691 111.848 556.955 111.848C556.203 111.848 555.595 112.04 555.131 112.424C554.683 112.808 554.459 113.368 554.459 114.104C554.459 114.824 554.683 115.384 555.131 115.784C555.595 116.168 556.203 116.36 556.955 116.36ZM553.763 123.512C553.763 124.2 554.067 124.712 554.675 125.048C555.283 125.4 556.043 125.576 556.955 125.576C557.835 125.576 558.547 125.384 559.091 125C559.635 124.632 559.907 124.136 559.907 123.512C559.907 123.048 559.723 122.648 559.355 122.312C558.987 121.992 558.291 121.792 557.267 121.712C556.499 121.664 555.819 121.592 555.227 121.496C554.667 121.8 554.283 122.128 554.075 122.48C553.867 122.832 553.763 123.176 553.763 123.512Z" fill="#0EA9F1"/>
<rect x="611" y="84" width="185" height="60" rx="30" fill="#E7F6FE"/>
<path d="M634.704 122V105.2H637.704L643.392 116.384L649.056 105.2H652.056V122H649.512V109.592L644.376 119.6H642.408L637.248 109.616V122H634.704ZM659.742 122.288C658.574 122.288 657.534 122.032 656.622 121.52C655.726 120.992 655.022 120.264 654.51 119.336C653.998 118.408 653.742 117.328 653.742 116.096C653.742 114.848 653.99 113.752 654.486 112.808C654.998 111.864 655.702 111.128 656.598 110.6C657.51 110.072 658.566 109.808 659.766 109.808C660.934 109.808 661.95 110.072 662.814 110.6C663.678 111.112 664.35 111.8 664.83 112.664C665.31 113.528 665.55 114.48 665.55 115.52C665.55 115.68 665.542 115.856 665.526 116.048C665.526 116.224 665.518 116.424 665.502 116.648H656.238C656.318 117.8 656.694 118.68 657.366 119.288C658.054 119.88 658.846 120.176 659.742 120.176C660.462 120.176 661.062 120.016 661.542 119.696C662.038 119.36 662.406 118.912 662.646 118.352H665.19C664.87 119.472 664.23 120.408 663.27 121.16C662.326 121.912 661.15 122.288 659.742 122.288ZM659.742 111.896C658.894 111.896 658.142 112.152 657.486 112.664C656.83 113.16 656.43 113.912 656.286 114.92H663.006C662.958 113.992 662.63 113.256 662.022 112.712C661.414 112.168 660.654 111.896 659.742 111.896ZM666.989 122V110.096H669.245L669.437 112.184C669.805 111.448 670.341 110.872 671.045 110.456C671.765 110.024 672.589 109.808 673.517 109.808C674.957 109.808 676.085 110.256 676.901 111.152C677.733 112.048 678.149 113.384 678.149 115.16V122H675.629V115.424C675.629 113.12 674.685 111.968 672.797 111.968C671.853 111.968 671.069 112.304 670.445 112.976C669.837 113.648 669.533 114.608 669.533 115.856V122H666.989ZM684.938 122C683.77 122 682.842 121.72 682.154 121.16C681.466 120.584 681.122 119.568 681.122 118.112V112.232H679.082V110.096H681.122L681.434 107.072H683.666V110.096H687.026V112.232H683.666V118.112C683.666 118.768 683.802 119.224 684.074 119.48C684.362 119.72 684.85 119.84 685.538 119.84H686.906V122H684.938ZM692.481 122.288C691.473 122.288 690.641 122.12 689.985 121.784C689.329 121.448 688.841 121.008 688.521 120.464C688.201 119.904 688.041 119.296 688.041 118.64C688.041 117.488 688.489 116.576 689.385 115.904C690.281 115.232 691.561 114.896 693.225 114.896H696.345V114.68C696.345 113.752 696.089 113.056 695.577 112.592C695.081 112.128 694.433 111.896 693.633 111.896C692.929 111.896 692.313 112.072 691.785 112.424C691.273 112.76 690.961 113.264 690.849 113.936H688.305C688.385 113.072 688.673 112.336 689.169 111.728C689.681 111.104 690.321 110.632 691.089 110.312C691.873 109.976 692.729 109.808 693.657 109.808C695.321 109.808 696.609 110.248 697.521 111.128C698.433 111.992 698.889 113.176 698.889 114.68V122H696.681L696.465 119.96C696.129 120.616 695.641 121.168 695.001 121.616C694.361 122.064 693.521 122.288 692.481 122.288ZM692.985 120.224C693.673 120.224 694.249 120.064 694.713 119.744C695.193 119.408 695.561 118.968 695.817 118.424C696.089 117.88 696.257 117.28 696.321 116.624H693.489C692.481 116.624 691.761 116.8 691.329 117.152C690.913 117.504 690.705 117.944 690.705 118.472C690.705 119.016 690.905 119.448 691.305 119.768C691.721 120.072 692.281 120.224 692.985 120.224ZM700.655 122V104.72H703.199V122H700.655ZM710.067 122V104.72H712.611V112.016C713.011 111.328 713.563 110.792 714.267 110.408C714.987 110.008 715.779 109.808 716.643 109.808C718.067 109.808 719.187 110.256 720.003 111.152C720.819 112.048 721.227 113.384 721.227 115.16V122H718.707V115.424C718.707 113.12 717.787 111.968 715.947 111.968C714.987 111.968 714.187 112.304 713.547 112.976C712.923 113.648 712.611 114.608 712.611 115.856V122H710.067ZM728.592 122.288C727.424 122.288 726.384 122.032 725.472 121.52C724.576 120.992 723.872 120.264 723.36 119.336C722.848 118.408 722.592 117.328 722.592 116.096C722.592 114.848 722.84 113.752 723.336 112.808C723.848 111.864 724.552 111.128 725.448 110.6C726.36 110.072 727.416 109.808 728.616 109.808C729.784 109.808 730.8 110.072 731.664 110.6C732.528 111.112 733.2 111.8 733.68 112.664C734.16 113.528 734.4 114.48 734.4 115.52C734.4 115.68 734.392 115.856 734.376 116.048C734.376 116.224 734.368 116.424 734.352 116.648H725.088C725.168 117.8 725.544 118.68 726.216 119.288C726.904 119.88 727.696 120.176 728.592 120.176C729.312 120.176 729.912 120.016 730.392 119.696C730.888 119.36 731.256 118.912 731.496 118.352H734.04C733.72 119.472 733.08 120.408 732.12 121.16C731.176 121.912 730 122.288 728.592 122.288ZM728.592 111.896C727.744 111.896 726.992 112.152 726.336 112.664C725.68 113.16 725.28 113.912 725.136 114.92H731.856C731.808 113.992 731.48 113.256 730.872 112.712C730.264 112.168 729.504 111.896 728.592 111.896ZM739.871 122.288C738.863 122.288 738.031 122.12 737.375 121.784C736.719 121.448 736.231 121.008 735.911 120.464C735.591 119.904 735.431 119.296 735.431 118.64C735.431 117.488 735.879 116.576 736.775 115.904C737.671 115.232 738.951 114.896 740.615 114.896H743.735V114.68C743.735 113.752 743.479 113.056 742.967 112.592C742.471 112.128 741.823 111.896 741.023 111.896C740.319 111.896 739.703 112.072 739.175 112.424C738.663 112.76 738.351 113.264 738.239 113.936H735.695C735.775 113.072 736.063 112.336 736.559 111.728C737.071 111.104 737.711 110.632 738.479 110.312C739.263 109.976 740.119 109.808 741.047 109.808C742.711 109.808 743.999 110.248 744.911 111.128C745.823 111.992 746.279 113.176 746.279 114.68V122H744.071L743.855 119.96C743.519 120.616 743.031 121.168 742.391 121.616C741.751 122.064 740.911 122.288 739.871 122.288ZM740.375 120.224C741.063 120.224 741.639 120.064 742.103 119.744C742.583 119.408 742.951 118.968 743.207 118.424C743.479 117.88 743.647 117.28 743.711 116.624H740.879C739.871 116.624 739.151 116.8 738.719 117.152C738.303 117.504 738.095 117.944 738.095 118.472C738.095 119.016 738.295 119.448 738.695 119.768C739.111 120.072 739.671 120.224 740.375 120.224ZM748.046 122V104.72H750.59V122H748.046ZM757.603 122C756.435 122 755.507 121.72 754.819 121.16C754.131 120.584 753.787 119.568 753.787 118.112V112.232H751.747V110.096H753.787L754.099 107.072H756.331V110.096H759.691V112.232H756.331V118.112C756.331 118.768 756.467 119.224 756.739 119.48C757.027 119.72 757.515 119.84 758.203 119.84H759.571V122H757.603ZM761.114 122V104.72H763.658V112.016C764.058 111.328 764.61 110.792 765.314 110.408C766.034 110.008 766.826 109.808 767.69 109.808C769.114 109.808 770.234 110.256 771.05 111.152C771.866 112.048 772.274 113.384 772.274 115.16V122H769.754V115.424C769.754 113.12 768.834 111.968 766.994 111.968C766.034 111.968 765.234 112.304 764.594 112.976C763.97 113.648 763.658 114.608 763.658 115.856V122H761.114Z" fill="#0EA9F1"/>
<rect y="168" width="240" height="60" rx="30" fill="#E7F6FE"/>
<path d="M25.704 206V189.2H31.152C33.12 189.2 34.736 189.544 36 190.232C37.28 190.92 38.224 191.896 38.832 193.16C39.456 194.408 39.768 195.896 39.768 197.624C39.768 199.336 39.456 200.824 38.832 202.088C38.224 203.336 37.28 204.304 36 204.992C34.736 205.664 33.12 206 31.152 206H25.704ZM28.248 203.84H31.056C32.576 203.84 33.776 203.592 34.656 203.096C35.552 202.6 36.192 201.888 36.576 200.96C36.976 200.032 37.176 198.92 37.176 197.624C37.176 196.328 36.976 195.208 36.576 194.264C36.192 193.32 35.552 192.6 34.656 192.104C33.776 191.592 32.576 191.336 31.056 191.336H28.248V203.84ZM46.851 206.288C45.683 206.288 44.643 206.032 43.731 205.52C42.835 204.992 42.131 204.264 41.619 203.336C41.107 202.408 40.851 201.328 40.851 200.096C40.851 198.848 41.099 197.752 41.595 196.808C42.107 195.864 42.811 195.128 43.707 194.6C44.619 194.072 45.675 193.808 46.875 193.808C48.043 193.808 49.059 194.072 49.923 194.6C50.787 195.112 51.459 195.8 51.939 196.664C52.419 197.528 52.659 198.48 52.659 199.52C52.659 199.68 52.651 199.856 52.635 200.048C52.635 200.224 52.627 200.424 52.611 200.648H43.347C43.427 201.8 43.803 202.68 44.475 203.288C45.163 203.88 45.955 204.176 46.851 204.176C47.571 204.176 48.171 204.016 48.651 203.696C49.147 203.36 49.515 202.912 49.755 202.352H52.299C51.979 203.472 51.339 204.408 50.379 205.16C49.435 205.912 48.259 206.288 46.851 206.288ZM46.851 195.896C46.003 195.896 45.251 196.152 44.595 196.664C43.939 197.16 43.539 197.912 43.395 198.92H50.115C50.067 197.992 49.739 197.256 49.131 196.712C48.523 196.168 47.763 195.896 46.851 195.896ZM58.1306 206.288C57.1226 206.288 56.2906 206.12 55.6346 205.784C54.9786 205.448 54.4906 205.008 54.1706 204.464C53.8506 203.904 53.6906 203.296 53.6906 202.64C53.6906 201.488 54.1386 200.576 55.0346 199.904C55.9306 199.232 57.2106 198.896 58.8746 198.896H61.9946V198.68C61.9946 197.752 61.7386 197.056 61.2266 196.592C60.7306 196.128 60.0826 195.896 59.2826 195.896C58.5786 195.896 57.9626 196.072 57.4346 196.424C56.9226 196.76 56.6106 197.264 56.4986 197.936H53.9546C54.0346 197.072 54.3226 196.336 54.8186 195.728C55.3306 195.104 55.9706 194.632 56.7386 194.312C57.5226 193.976 58.3786 193.808 59.3066 193.808C60.9706 193.808 62.2586 194.248 63.1706 195.128C64.0826 195.992 64.5386 197.176 64.5386 198.68V206H62.3306L62.1146 203.96C61.7786 204.616 61.2906 205.168 60.6506 205.616C60.0106 206.064 59.1706 206.288 58.1306 206.288ZM58.6346 204.224C59.3226 204.224 59.8986 204.064 60.3626 203.744C60.8426 203.408 61.2106 202.968 61.4666 202.424C61.7386 201.88 61.9066 201.28 61.9706 200.624H59.1386C58.1306 200.624 57.4106 200.8 56.9786 201.152C56.5626 201.504 56.3546 201.944 56.3546 202.472C56.3546 203.016 56.5546 203.448 56.9546 203.768C57.3706 204.072 57.9306 204.224 58.6346 204.224ZM66.3049 206V188.72H68.8489V206H66.3049ZM72.3105 191.84C71.8305 191.84 71.4305 191.696 71.1105 191.408C70.8065 191.104 70.6545 190.728 70.6545 190.28C70.6545 189.832 70.8065 189.464 71.1105 189.176C71.4305 188.872 71.8305 188.72 72.3105 188.72C72.7905 188.72 73.1825 188.872 73.4865 189.176C73.8065 189.464 73.9665 189.832 73.9665 190.28C73.9665 190.728 73.8065 191.104 73.4865 191.408C73.1825 191.696 72.7905 191.84 72.3105 191.84ZM71.0385 206V194.096H73.5825V206H71.0385ZM75.7408 206V194.096H77.9968L78.1888 196.184C78.5568 195.448 79.0928 194.872 79.7968 194.456C80.5168 194.024 81.3408 193.808 82.2688 193.808C83.7088 193.808 84.8368 194.256 85.6528 195.152C86.4848 196.048 86.9008 197.384 86.9008 199.16V206H84.3808V199.424C84.3808 197.12 83.4368 195.968 81.5488 195.968C80.6048 195.968 79.8208 196.304 79.1968 196.976C78.5888 197.648 78.2848 198.608 78.2848 199.856V206H75.7408ZM93.5691 202.352C92.9451 202.352 92.3691 202.28 91.8411 202.136L90.8091 203.144C90.9851 203.256 91.2011 203.352 91.4571 203.432C91.7131 203.512 92.0731 203.584 92.5371 203.648C93.0011 203.712 93.6331 203.776 94.4331 203.84C96.0171 203.984 97.1611 204.368 97.8651 204.992C98.5691 205.6 98.9211 206.416 98.9211 207.44C98.9211 208.144 98.7291 208.808 98.3451 209.432C97.9771 210.072 97.3931 210.584 96.5931 210.968C95.8091 211.368 94.8011 211.568 93.5691 211.568C91.9051 211.568 90.5531 211.248 89.5131 210.608C88.4891 209.984 87.9771 209.032 87.9771 207.752C87.9771 207.256 88.1051 206.76 88.3611 206.264C88.6331 205.784 89.0571 205.328 89.6331 204.896C89.2971 204.752 89.0011 204.6 88.7451 204.44C88.5051 204.264 88.2891 204.088 88.0971 203.912V203.336L90.1611 201.224C89.2331 200.424 88.7691 199.376 88.7691 198.08C88.7691 197.296 88.9531 196.584 89.3211 195.944C89.7051 195.288 90.2571 194.768 90.9771 194.384C91.6971 194 92.5611 193.808 93.5691 193.808C94.2411 193.808 94.8651 193.904 95.4411 194.096H99.8811V195.776L97.7691 195.896C98.1531 196.552 98.3451 197.28 98.3451 198.08C98.3451 198.88 98.1531 199.6 97.7691 200.24C97.4011 200.88 96.8571 201.392 96.1371 201.776C95.4331 202.16 94.5771 202.352 93.5691 202.352ZM93.5691 200.36C94.3051 200.36 94.8971 200.168 95.3451 199.784C95.8091 199.384 96.0411 198.824 96.0411 198.104C96.0411 197.368 95.8091 196.808 95.3451 196.424C94.8971 196.04 94.3051 195.848 93.5691 195.848C92.8171 195.848 92.2091 196.04 91.7451 196.424C91.2971 196.808 91.0731 197.368 91.0731 198.104C91.0731 198.824 91.2971 199.384 91.7451 199.784C92.2091 200.168 92.8171 200.36 93.5691 200.36ZM90.3771 207.512C90.3771 208.2 90.6811 208.712 91.2891 209.048C91.8971 209.4 92.6571 209.576 93.5691 209.576C94.4491 209.576 95.1611 209.384 95.7051 209C96.2491 208.632 96.5211 208.136 96.5211 207.512C96.5211 207.048 96.3371 206.648 95.9691 206.312C95.6011 205.992 94.9051 205.792 93.8811 205.712C93.1131 205.664 92.4331 205.592 91.8411 205.496C91.2811 205.8 90.8971 206.128 90.6891 206.48C90.4811 206.832 90.3771 207.176 90.3771 207.512ZM108.173 206L104.669 194.096H107.213L109.517 203.072L112.109 194.096H114.941L117.533 203.072L119.837 194.096H122.381L118.877 206H116.261L113.525 196.64L110.789 206H108.173ZM124.717 191.84C124.237 191.84 123.837 191.696 123.517 191.408C123.213 191.104 123.061 190.728 123.061 190.28C123.061 189.832 123.213 189.464 123.517 189.176C123.837 188.872 124.237 188.72 124.717 188.72C125.197 188.72 125.589 188.872 125.893 189.176C126.213 189.464 126.373 189.832 126.373 190.28C126.373 190.728 126.213 191.104 125.893 191.408C125.589 191.696 125.197 191.84 124.717 191.84ZM123.445 206V194.096H125.989V206H123.445ZM133.139 206C131.971 206 131.043 205.72 130.355 205.16C129.667 204.584 129.323 203.568 129.323 202.112V196.232H127.283V194.096H129.323L129.635 191.072H131.867V194.096H135.227V196.232H131.867V202.112C131.867 202.768 132.003 203.224 132.275 203.48C132.563 203.72 133.051 203.84 133.739 203.84H135.107V206H133.139ZM136.65 206V188.72H139.194V196.016C139.594 195.328 140.146 194.792 140.85 194.408C141.57 194.008 142.362 193.808 143.226 193.808C144.65 193.808 145.77 194.256 146.586 195.152C147.402 196.048 147.81 197.384 147.81 199.16V206H145.29V199.424C145.29 197.12 144.37 195.968 142.53 195.968C141.57 195.968 140.77 196.304 140.13 196.976C139.506 197.648 139.194 198.608 139.194 199.856V206H136.65ZM159.205 206.288C157.701 206.288 156.461 205.92 155.485 205.184C154.509 204.448 153.949 203.472 153.805 202.256H156.373C156.501 202.8 156.805 203.272 157.285 203.672C157.765 204.056 158.397 204.248 159.181 204.248C159.949 204.248 160.509 204.088 160.861 203.768C161.213 203.448 161.389 203.08 161.389 202.664C161.389 202.056 161.141 201.648 160.645 201.44C160.165 201.216 159.493 201.016 158.629 200.84C157.957 200.696 157.285 200.504 156.613 200.264C155.957 200.024 155.405 199.688 154.957 199.256C154.525 198.808 154.309 198.208 154.309 197.456C154.309 196.416 154.709 195.552 155.509 194.864C156.309 194.16 157.429 193.808 158.869 193.808C160.197 193.808 161.269 194.128 162.085 194.768C162.917 195.408 163.405 196.312 163.549 197.48H161.101C161.021 196.968 160.781 196.568 160.381 196.28C159.997 195.992 159.477 195.848 158.821 195.848C158.181 195.848 157.685 195.984 157.333 196.256C156.981 196.512 156.805 196.848 156.805 197.264C156.805 197.68 157.045 198.008 157.525 198.248C158.021 198.488 158.669 198.704 159.469 198.896C160.269 199.072 161.005 199.28 161.677 199.52C162.365 199.744 162.917 200.08 163.333 200.528C163.749 200.976 163.957 201.632 163.957 202.496C163.973 203.584 163.549 204.488 162.685 205.208C161.837 205.928 160.677 206.288 159.205 206.288ZM170.081 206C168.913 206 167.985 205.72 167.297 205.16C166.609 204.584 166.265 203.568 166.265 202.112V196.232H164.225V194.096H166.265L166.577 191.072H168.809V194.096H172.169V196.232H168.809V202.112C168.809 202.768 168.945 203.224 169.217 203.48C169.505 203.72 169.993 203.84 170.681 203.84H172.049V206H170.081ZM173.592 206V194.096H175.872L176.088 196.352C176.504 195.568 177.08 194.952 177.816 194.504C178.568 194.04 179.472 193.808 180.528 193.808V196.472H179.832C179.128 196.472 178.496 196.592 177.936 196.832C177.392 197.056 176.952 197.448 176.616 198.008C176.296 198.552 176.136 199.312 176.136 200.288V206H173.592ZM186.749 206.288C185.581 206.288 184.541 206.032 183.629 205.52C182.733 204.992 182.029 204.264 181.517 203.336C181.005 202.408 180.749 201.328 180.749 200.096C180.749 198.848 180.997 197.752 181.493 196.808C182.005 195.864 182.709 195.128 183.605 194.6C184.517 194.072 185.573 193.808 186.773 193.808C187.941 193.808 188.957 194.072 189.821 194.6C190.685 195.112 191.357 195.8 191.837 196.664C192.317 197.528 192.557 198.48 192.557 199.52C192.557 199.68 192.549 199.856 192.533 200.048C192.533 200.224 192.525 200.424 192.509 200.648H183.245C183.325 201.8 183.701 202.68 184.373 203.288C185.061 203.88 185.853 204.176 186.749 204.176C187.469 204.176 188.069 204.016 188.549 203.696C189.045 203.36 189.413 202.912 189.653 202.352H192.197C191.877 203.472 191.237 204.408 190.277 205.16C189.333 205.912 188.157 206.288 186.749 206.288ZM186.749 195.896C185.901 195.896 185.149 196.152 184.493 196.664C183.837 197.16 183.437 197.912 183.293 198.92H190.013C189.965 197.992 189.637 197.256 189.029 196.712C188.421 196.168 187.661 195.896 186.749 195.896ZM198.749 206.288C197.245 206.288 196.005 205.92 195.029 205.184C194.053 204.448 193.493 203.472 193.349 202.256H195.917C196.045 202.8 196.349 203.272 196.829 203.672C197.309 204.056 197.941 204.248 198.725 204.248C199.493 204.248 200.053 204.088 200.405 203.768C200.757 203.448 200.933 203.08 200.933 202.664C200.933 202.056 200.685 201.648 200.189 201.44C199.709 201.216 199.037 201.016 198.173 200.84C197.501 200.696 196.829 200.504 196.157 200.264C195.501 200.024 194.949 199.688 194.501 199.256C194.069 198.808 193.853 198.208 193.853 197.456C193.853 196.416 194.253 195.552 195.053 194.864C195.853 194.16 196.973 193.808 198.413 193.808C199.741 193.808 200.813 194.128 201.629 194.768C202.461 195.408 202.949 196.312 203.093 197.48H200.645C200.565 196.968 200.325 196.568 199.925 196.28C199.541 195.992 199.021 195.848 198.365 195.848C197.725 195.848 197.229 195.984 196.877 196.256C196.525 196.512 196.349 196.848 196.349 197.264C196.349 197.68 196.589 198.008 197.069 198.248C197.565 198.488 198.213 198.704 199.013 198.896C199.813 199.072 200.549 199.28 201.221 199.52C201.909 199.744 202.461 200.08 202.877 200.528C203.293 200.976 203.501 201.632 203.501 202.496C203.517 203.584 203.093 204.488 202.229 205.208C201.381 205.928 200.221 206.288 198.749 206.288ZM209.83 206.288C208.326 206.288 207.086 205.92 206.11 205.184C205.134 204.448 204.574 203.472 204.43 202.256H206.998C207.126 202.8 207.43 203.272 207.91 203.672C208.39 204.056 209.022 204.248 209.806 204.248C210.574 204.248 211.134 204.088 211.486 203.768C211.838 203.448 212.014 203.08 212.014 202.664C212.014 202.056 211.766 201.648 211.27 201.44C210.79 201.216 210.118 201.016 209.254 200.84C208.582 200.696 207.91 200.504 207.238 200.264C206.582 200.024 206.03 199.688 205.582 199.256C205.15 198.808 204.934 198.208 204.934 197.456C204.934 196.416 205.334 195.552 206.134 194.864C206.934 194.16 208.054 193.808 209.494 193.808C210.822 193.808 211.894 194.128 212.71 194.768C213.542 195.408 214.03 196.312 214.174 197.48H211.726C211.646 196.968 211.406 196.568 211.006 196.28C210.622 195.992 210.102 195.848 209.446 195.848C208.806 195.848 208.31 195.984 207.958 196.256C207.606 196.512 207.43 196.848 207.43 197.264C207.43 197.68 207.67 198.008 208.15 198.248C208.646 198.488 209.294 198.704 210.094 198.896C210.894 199.072 211.63 199.28 212.302 199.52C212.99 199.744 213.542 200.08 213.958 200.528C214.374 200.976 214.582 201.632 214.582 202.496C214.598 203.584 214.174 204.488 213.31 205.208C212.462 205.928 211.302 206.288 209.83 206.288Z" fill="#0EA9F1"/>
<rect x="264" y="168" width="180" height="60" rx="30" fill="#E7F6FE"/>
<path d="M297.456 206.288C295.792 206.288 294.336 205.92 293.088 205.184C291.84 204.448 290.864 203.432 290.16 202.136C289.456 200.824 289.104 199.312 289.104 197.6C289.104 195.888 289.456 194.384 290.16 193.088C290.864 191.776 291.84 190.752 293.088 190.016C294.336 189.28 295.792 188.912 297.456 188.912C299.12 188.912 300.576 189.28 301.824 190.016C303.072 190.752 304.04 191.776 304.728 193.088C305.432 194.384 305.784 195.888 305.784 197.6C305.784 199.312 305.432 200.824 304.728 202.136C304.04 203.432 303.072 204.448 301.824 205.184C300.576 205.92 299.12 206.288 297.456 206.288ZM297.456 204.008C298.608 204.008 299.608 203.752 300.456 203.24C301.32 202.728 301.992 201.992 302.472 201.032C302.952 200.072 303.192 198.928 303.192 197.6C303.192 196.272 302.952 195.128 302.472 194.168C301.992 193.208 301.32 192.472 300.456 191.96C299.608 191.448 298.608 191.192 297.456 191.192C296.304 191.192 295.296 191.448 294.432 191.96C293.568 192.472 292.896 193.208 292.416 194.168C291.952 195.128 291.72 196.272 291.72 197.6C291.72 198.928 291.952 200.072 292.416 201.032C292.896 201.992 293.568 202.728 294.432 203.24C295.296 203.752 296.304 204.008 297.456 204.008ZM307.322 206V194.096H309.602L309.818 196.352C310.234 195.568 310.81 194.952 311.546 194.504C312.298 194.04 313.202 193.808 314.258 193.808V196.472H313.562C312.858 196.472 312.226 196.592 311.666 196.832C311.122 197.056 310.682 197.448 310.346 198.008C310.026 198.552 309.866 199.312 309.866 200.288V206H307.322ZM319.83 202.352C319.206 202.352 318.63 202.28 318.102 202.136L317.07 203.144C317.246 203.256 317.462 203.352 317.718 203.432C317.974 203.512 318.334 203.584 318.798 203.648C319.262 203.712 319.894 203.776 320.694 203.84C322.278 203.984 323.422 204.368 324.126 204.992C324.83 205.6 325.182 206.416 325.182 207.44C325.182 208.144 324.99 208.808 324.606 209.432C324.238 210.072 323.654 210.584 322.854 210.968C322.07 211.368 321.062 211.568 319.83 211.568C318.166 211.568 316.814 211.248 315.774 210.608C314.75 209.984 314.238 209.032 314.238 207.752C314.238 207.256 314.366 206.76 314.622 206.264C314.894 205.784 315.318 205.328 315.894 204.896C315.558 204.752 315.262 204.6 315.006 204.44C314.766 204.264 314.55 204.088 314.358 203.912V203.336L316.422 201.224C315.494 200.424 315.03 199.376 315.03 198.08C315.03 197.296 315.214 196.584 315.582 195.944C315.966 195.288 316.518 194.768 317.238 194.384C317.958 194 318.822 193.808 319.83 193.808C320.502 193.808 321.126 193.904 321.702 194.096H326.142V195.776L324.03 195.896C324.414 196.552 324.606 197.28 324.606 198.08C324.606 198.88 324.414 199.6 324.03 200.24C323.662 200.88 323.118 201.392 322.398 201.776C321.694 202.16 320.838 202.352 319.83 202.352ZM319.83 200.36C320.566 200.36 321.158 200.168 321.606 199.784C322.07 199.384 322.302 198.824 322.302 198.104C322.302 197.368 322.07 196.808 321.606 196.424C321.158 196.04 320.566 195.848 319.83 195.848C319.078 195.848 318.47 196.04 318.006 196.424C317.558 196.808 317.334 197.368 317.334 198.104C317.334 198.824 317.558 199.384 318.006 199.784C318.47 200.168 319.078 200.36 319.83 200.36ZM316.638 207.512C316.638 208.2 316.942 208.712 317.55 209.048C318.158 209.4 318.918 209.576 319.83 209.576C320.71 209.576 321.422 209.384 321.966 209C322.51 208.632 322.782 208.136 322.782 207.512C322.782 207.048 322.598 206.648 322.23 206.312C321.862 205.992 321.166 205.792 320.142 205.712C319.374 205.664 318.694 205.592 318.102 205.496C317.542 205.8 317.158 206.128 316.95 206.48C316.742 206.832 316.638 207.176 316.638 207.512ZM331.243 206.288C330.235 206.288 329.403 206.12 328.747 205.784C328.091 205.448 327.603 205.008 327.283 204.464C326.963 203.904 326.803 203.296 326.803 202.64C326.803 201.488 327.251 200.576 328.147 199.904C329.043 199.232 330.323 198.896 331.987 198.896H335.107V198.68C335.107 197.752 334.851 197.056 334.339 196.592C333.843 196.128 333.195 195.896 332.395 195.896C331.691 195.896 331.075 196.072 330.547 196.424C330.035 196.76 329.723 197.264 329.611 197.936H327.067C327.147 197.072 327.435 196.336 327.931 195.728C328.443 195.104 329.083 194.632 329.851 194.312C330.635 193.976 331.491 193.808 332.419 193.808C334.083 193.808 335.371 194.248 336.283 195.128C337.195 195.992 337.651 197.176 337.651 198.68V206H335.443L335.227 203.96C334.891 204.616 334.403 205.168 333.763 205.616C333.123 206.064 332.283 206.288 331.243 206.288ZM331.747 204.224C332.435 204.224 333.011 204.064 333.475 203.744C333.955 203.408 334.323 202.968 334.579 202.424C334.851 201.88 335.019 201.28 335.083 200.624H332.251C331.243 200.624 330.523 200.8 330.091 201.152C329.675 201.504 329.467 201.944 329.467 202.472C329.467 203.016 329.667 203.448 330.067 203.768C330.483 204.072 331.043 204.224 331.747 204.224ZM339.417 206V194.096H341.673L341.865 196.184C342.233 195.448 342.769 194.872 343.473 194.456C344.193 194.024 345.017 193.808 345.945 193.808C347.385 193.808 348.513 194.256 349.329 195.152C350.161 196.048 350.577 197.384 350.577 199.16V206H348.057V199.424C348.057 197.12 347.113 195.968 345.225 195.968C344.281 195.968 343.497 196.304 342.873 196.976C342.265 197.648 341.961 198.608 341.961 199.856V206H339.417ZM353.814 191.84C353.334 191.84 352.934 191.696 352.614 191.408C352.31 191.104 352.158 190.728 352.158 190.28C352.158 189.832 352.31 189.464 352.614 189.176C352.934 188.872 353.334 188.72 353.814 188.72C354.294 188.72 354.686 188.872 354.99 189.176C355.31 189.464 355.47 189.832 355.47 190.28C355.47 190.728 355.31 191.104 354.99 191.408C354.686 191.696 354.294 191.84 353.814 191.84ZM352.542 206V194.096H355.086V206H352.542ZM356.452 206V203.936L362.812 196.208H356.548V194.096H365.692V196.16L359.284 203.888H365.812V206H356.452ZM371.256 206.288C370.248 206.288 369.416 206.12 368.76 205.784C368.104 205.448 367.616 205.008 367.296 204.464C366.976 203.904 366.816 203.296 366.816 202.64C366.816 201.488 367.264 200.576 368.16 199.904C369.056 199.232 370.336 198.896 372 198.896H375.12V198.68C375.12 197.752 374.864 197.056 374.352 196.592C373.856 196.128 373.208 195.896 372.408 195.896C371.704 195.896 371.088 196.072 370.56 196.424C370.048 196.76 369.736 197.264 369.624 197.936H367.08C367.16 197.072 367.448 196.336 367.944 195.728C368.456 195.104 369.096 194.632 369.864 194.312C370.648 193.976 371.504 193.808 372.432 193.808C374.096 193.808 375.384 194.248 376.296 195.128C377.208 195.992 377.664 197.176 377.664 198.68V206H375.456L375.24 203.96C374.904 204.616 374.416 205.168 373.776 205.616C373.136 206.064 372.296 206.288 371.256 206.288ZM371.76 204.224C372.448 204.224 373.024 204.064 373.488 203.744C373.968 203.408 374.336 202.968 374.592 202.424C374.864 201.88 375.032 201.28 375.096 200.624H372.264C371.256 200.624 370.536 200.8 370.104 201.152C369.688 201.504 369.48 201.944 369.48 202.472C369.48 203.016 369.68 203.448 370.08 203.768C370.496 204.072 371.056 204.224 371.76 204.224ZM384.188 206C383.02 206 382.092 205.72 381.404 205.16C380.716 204.584 380.372 203.568 380.372 202.112V196.232H378.332V194.096H380.372L380.684 191.072H382.916V194.096H386.276V196.232H382.916V202.112C382.916 202.768 383.052 203.224 383.324 203.48C383.612 203.72 384.1 203.84 384.788 203.84H386.156V206H384.188ZM389.139 191.84C388.659 191.84 388.259 191.696 387.939 191.408C387.635 191.104 387.483 190.728 387.483 190.28C387.483 189.832 387.635 189.464 387.939 189.176C388.259 188.872 388.659 188.72 389.139 188.72C389.619 188.72 390.011 188.872 390.315 189.176C390.635 189.464 390.795 189.832 390.795 190.28C390.795 190.728 390.635 191.104 390.315 191.408C390.011 191.696 389.619 191.84 389.139 191.84ZM387.867 206V194.096H390.411V206H387.867ZM398.137 206.288C397.001 206.288 395.977 206.032 395.065 205.52C394.169 204.992 393.457 204.264 392.929 203.336C392.401 202.392 392.137 201.296 392.137 200.048C392.137 198.8 392.401 197.712 392.929 196.784C393.473 195.84 394.201 195.112 395.113 194.6C396.025 194.072 397.041 193.808 398.161 193.808C399.297 193.808 400.313 194.072 401.209 194.6C402.121 195.112 402.841 195.84 403.369 196.784C403.913 197.712 404.185 198.8 404.185 200.048C404.185 201.296 403.913 202.392 403.369 203.336C402.841 204.264 402.121 204.992 401.209 205.52C400.297 206.032 399.273 206.288 398.137 206.288ZM398.137 204.104C398.745 204.104 399.305 203.952 399.817 203.648C400.345 203.344 400.769 202.896 401.089 202.304C401.409 201.696 401.569 200.944 401.569 200.048C401.569 199.152 401.409 198.408 401.089 197.816C400.785 197.208 400.369 196.752 399.841 196.448C399.329 196.144 398.769 195.992 398.161 195.992C397.553 195.992 396.985 196.144 396.457 196.448C395.945 196.752 395.529 197.208 395.209 197.816C394.889 198.408 394.729 199.152 394.729 200.048C394.729 200.944 394.889 201.696 395.209 202.304C395.529 202.896 395.945 203.344 396.457 203.648C396.969 203.952 397.529 204.104 398.137 204.104ZM405.736 206V194.096H407.992L408.184 196.184C408.552 195.448 409.088 194.872 409.792 194.456C410.512 194.024 411.336 193.808 412.264 193.808C413.704 193.808 414.832 194.256 415.648 195.152C416.48 196.048 416.896 197.384 416.896 199.16V206H414.376V199.424C414.376 197.12 413.432 195.968 411.544 195.968C410.6 195.968 409.816 196.304 409.192 196.976C408.584 197.648 408.28 198.608 408.28 199.856V206H405.736Z" fill="#0EA9F1"/>
<rect x="468" y="168" width="120" height="60" rx="30" fill="#E7F6FE"/>
<path d="M490.704 206V189.2H501.24V191.264H493.248V196.568H499.872V198.608H493.248V206H490.704ZM502.439 206V194.096H504.719L504.935 196.352C505.351 195.568 505.927 194.952 506.663 194.504C507.415 194.04 508.319 193.808 509.375 193.808V196.472H508.679C507.975 196.472 507.343 196.592 506.783 196.832C506.239 197.056 505.799 197.448 505.463 198.008C505.143 198.552 504.983 199.312 504.983 200.288V206H502.439ZM511.796 191.84C511.316 191.84 510.916 191.696 510.596 191.408C510.292 191.104 510.14 190.728 510.14 190.28C510.14 189.832 510.292 189.464 510.596 189.176C510.916 188.872 511.316 188.72 511.796 188.72C512.276 188.72 512.668 188.872 512.972 189.176C513.292 189.464 513.452 189.832 513.452 190.28C513.452 190.728 513.292 191.104 512.972 191.408C512.668 191.696 512.276 191.84 511.796 191.84ZM510.524 206V194.096H513.068V206H510.524ZM520.795 206.288C519.627 206.288 518.587 206.032 517.675 205.52C516.779 204.992 516.075 204.264 515.563 203.336C515.051 202.408 514.795 201.328 514.795 200.096C514.795 198.848 515.043 197.752 515.539 196.808C516.051 195.864 516.755 195.128 517.651 194.6C518.563 194.072 519.619 193.808 520.819 193.808C521.987 193.808 523.003 194.072 523.867 194.6C524.731 195.112 525.403 195.8 525.883 196.664C526.363 197.528 526.603 198.48 526.603 199.52C526.603 199.68 526.595 199.856 526.579 200.048C526.579 200.224 526.571 200.424 526.555 200.648H517.291C517.371 201.8 517.747 202.68 518.419 203.288C519.107 203.88 519.899 204.176 520.795 204.176C521.515 204.176 522.115 204.016 522.595 203.696C523.091 203.36 523.459 202.912 523.699 202.352H526.243C525.923 203.472 525.283 204.408 524.323 205.16C523.379 205.912 522.203 206.288 520.795 206.288ZM520.795 195.896C519.947 195.896 519.195 196.152 518.539 196.664C517.883 197.16 517.483 197.912 517.339 198.92H524.059C524.011 197.992 523.683 197.256 523.075 196.712C522.467 196.168 521.707 195.896 520.795 195.896ZM528.042 206V194.096H530.298L530.49 196.184C530.858 195.448 531.394 194.872 532.098 194.456C532.818 194.024 533.642 193.808 534.57 193.808C536.01 193.808 537.138 194.256 537.954 195.152C538.786 196.048 539.202 197.384 539.202 199.16V206H536.682V199.424C536.682 197.12 535.738 195.968 533.85 195.968C532.906 195.968 532.122 196.304 531.498 196.976C530.89 197.648 530.586 198.608 530.586 199.856V206H528.042ZM546.423 206.288C545.271 206.288 544.255 206.016 543.375 205.472C542.495 204.928 541.807 204.184 541.311 203.24C540.815 202.296 540.567 201.224 540.567 200.024C540.567 198.824 540.815 197.76 541.311 196.832C541.807 195.888 542.495 195.152 543.375 194.624C544.271 194.08 545.295 193.808 546.447 193.808C547.391 193.808 548.215 193.992 548.919 194.36C549.639 194.728 550.199 195.248 550.599 195.92V188.72H553.143V206H550.863L550.599 204.152C550.215 204.712 549.687 205.208 549.015 205.64C548.343 206.072 547.479 206.288 546.423 206.288ZM546.879 204.08C547.967 204.08 548.855 203.704 549.543 202.952C550.247 202.2 550.599 201.232 550.599 200.048C550.599 198.848 550.247 197.88 549.543 197.144C548.855 196.392 547.967 196.016 546.879 196.016C545.791 196.016 544.895 196.392 544.191 197.144C543.487 197.88 543.135 198.848 543.135 200.048C543.135 200.832 543.295 201.528 543.615 202.136C543.935 202.744 544.375 203.224 544.935 203.576C545.511 203.912 546.159 204.08 546.879 204.08ZM559.902 206.288C558.398 206.288 557.158 205.92 556.182 205.184C555.206 204.448 554.646 203.472 554.502 202.256H557.07C557.198 202.8 557.502 203.272 557.982 203.672C558.462 204.056 559.094 204.248 559.878 204.248C560.646 204.248 561.206 204.088 561.558 203.768C561.91 203.448 562.086 203.08 562.086 202.664C562.086 202.056 561.838 201.648 561.342 201.44C560.862 201.216 560.19 201.016 559.326 200.84C558.654 200.696 557.982 200.504 557.31 200.264C556.654 200.024 556.102 199.688 555.654 199.256C555.222 198.808 555.006 198.208 555.006 197.456C555.006 196.416 555.406 195.552 556.206 194.864C557.006 194.16 558.126 193.808 559.566 193.808C560.894 193.808 561.966 194.128 562.782 194.768C563.614 195.408 564.102 196.312 564.246 197.48H561.798C561.718 196.968 561.478 196.568 561.078 196.28C560.694 195.992 560.174 195.848 559.518 195.848C558.878 195.848 558.382 195.984 558.03 196.256C557.678 196.512 557.502 196.848 557.502 197.264C557.502 197.68 557.742 198.008 558.222 198.248C558.718 198.488 559.366 198.704 560.166 198.896C560.966 199.072 561.702 199.28 562.374 199.52C563.062 199.744 563.614 200.08 564.03 200.528C564.446 200.976 564.654 201.632 564.654 202.496C564.67 203.584 564.246 204.488 563.382 205.208C562.534 205.928 561.374 206.288 559.902 206.288Z" fill="#0EA9F1"/>
<rect x="612" y="168" width="150" height="60" rx="30" fill="#E7F6FE"/>
<path d="M634.704 206V189.2H640.584C641.896 189.2 642.984 189.424 643.848 189.872C644.712 190.304 645.352 190.904 645.768 191.672C646.2 192.424 646.416 193.28 646.416 194.24C646.416 195.152 646.208 195.992 645.792 196.76C645.392 197.512 644.76 198.112 643.896 198.56C643.032 199.008 641.928 199.232 640.584 199.232H637.248V206H634.704ZM637.248 197.144H640.464C641.664 197.144 642.52 196.888 643.032 196.376C643.56 195.848 643.824 195.136 643.824 194.24C643.824 193.312 643.56 192.592 643.032 192.08C642.52 191.552 641.664 191.288 640.464 191.288H637.248V197.144ZM647.635 206V194.096H649.915L650.131 196.352C650.547 195.568 651.123 194.952 651.859 194.504C652.611 194.04 653.515 193.808 654.571 193.808V196.472H653.875C653.171 196.472 652.539 196.592 651.979 196.832C651.435 197.056 650.995 197.448 650.659 198.008C650.339 198.552 650.179 199.312 650.179 200.288V206H647.635ZM656.992 191.84C656.512 191.84 656.112 191.696 655.792 191.408C655.488 191.104 655.336 190.728 655.336 190.28C655.336 189.832 655.488 189.464 655.792 189.176C656.112 188.872 656.512 188.72 656.992 188.72C657.472 188.72 657.864 188.872 658.168 189.176C658.488 189.464 658.648 189.832 658.648 190.28C658.648 190.728 658.488 191.104 658.168 191.408C657.864 191.696 657.472 191.84 656.992 191.84ZM655.72 206V194.096H658.264V206H655.72ZM665.99 206.288C664.854 206.288 663.83 206.032 662.918 205.52C662.022 204.992 661.31 204.264 660.782 203.336C660.254 202.392 659.99 201.296 659.99 200.048C659.99 198.8 660.254 197.712 660.782 196.784C661.326 195.84 662.054 195.112 662.966 194.6C663.878 194.072 664.894 193.808 666.014 193.808C667.15 193.808 668.166 194.072 669.062 194.6C669.974 195.112 670.694 195.84 671.222 196.784C671.766 197.712 672.038 198.8 672.038 200.048C672.038 201.296 671.766 202.392 671.222 203.336C670.694 204.264 669.974 204.992 669.062 205.52C668.15 206.032 667.126 206.288 665.99 206.288ZM665.99 204.104C666.598 204.104 667.158 203.952 667.67 203.648C668.198 203.344 668.622 202.896 668.942 202.304C669.262 201.696 669.422 200.944 669.422 200.048C669.422 199.152 669.262 198.408 668.942 197.816C668.638 197.208 668.222 196.752 667.694 196.448C667.182 196.144 666.622 195.992 666.014 195.992C665.406 195.992 664.838 196.144 664.31 196.448C663.798 196.752 663.382 197.208 663.062 197.816C662.742 198.408 662.582 199.152 662.582 200.048C662.582 200.944 662.742 201.696 663.062 202.304C663.382 202.896 663.798 203.344 664.31 203.648C664.822 203.952 665.382 204.104 665.99 204.104ZM673.589 206V194.096H675.869L676.085 196.352C676.501 195.568 677.077 194.952 677.813 194.504C678.565 194.04 679.469 193.808 680.525 193.808V196.472H679.829C679.125 196.472 678.493 196.592 677.933 196.832C677.389 197.056 676.949 197.448 676.613 198.008C676.293 198.552 676.133 199.312 676.133 200.288V206H673.589ZM682.946 191.84C682.466 191.84 682.066 191.696 681.746 191.408C681.442 191.104 681.29 190.728 681.29 190.28C681.29 189.832 681.442 189.464 681.746 189.176C682.066 188.872 682.466 188.72 682.946 188.72C683.426 188.72 683.818 188.872 684.122 189.176C684.442 189.464 684.602 189.832 684.602 190.28C684.602 190.728 684.442 191.104 684.122 191.408C683.818 191.696 683.426 191.84 682.946 191.84ZM681.674 206V194.096H684.218V206H681.674ZM691.369 206C690.201 206 689.273 205.72 688.585 205.16C687.897 204.584 687.553 203.568 687.553 202.112V196.232H685.513V194.096H687.553L687.865 191.072H690.097V194.096H693.457V196.232H690.097V202.112C690.097 202.768 690.233 203.224 690.505 203.48C690.793 203.72 691.281 203.84 691.969 203.84H693.337V206H691.369ZM696.32 191.84C695.84 191.84 695.44 191.696 695.12 191.408C694.816 191.104 694.664 190.728 694.664 190.28C694.664 189.832 694.816 189.464 695.12 189.176C695.44 188.872 695.84 188.72 696.32 188.72C696.8 188.72 697.192 188.872 697.496 189.176C697.816 189.464 697.976 189.832 697.976 190.28C697.976 190.728 697.816 191.104 697.496 191.408C697.192 191.696 696.8 191.84 696.32 191.84ZM695.048 206V194.096H697.592V206H695.048ZM698.958 206V203.936L705.318 196.208H699.054V194.096H708.198V196.16L701.79 203.888H708.318V206H698.958ZM711.17 191.84C710.69 191.84 710.29 191.696 709.97 191.408C709.666 191.104 709.514 190.728 709.514 190.28C709.514 189.832 709.666 189.464 709.97 189.176C710.29 188.872 710.69 188.72 711.17 188.72C711.65 188.72 712.042 188.872 712.346 189.176C712.666 189.464 712.826 189.832 712.826 190.28C712.826 190.728 712.666 191.104 712.346 191.408C712.042 191.696 711.65 191.84 711.17 191.84ZM709.898 206V194.096H712.442V206H709.898ZM714.6 206V194.096H716.856L717.048 196.184C717.416 195.448 717.952 194.872 718.656 194.456C719.376 194.024 720.2 193.808 721.128 193.808C722.568 193.808 723.696 194.256 724.512 195.152C725.344 196.048 725.76 197.384 725.76 199.16V206H723.24V199.424C723.24 197.12 722.296 195.968 720.408 195.968C719.464 195.968 718.68 196.304 718.056 196.976C717.448 197.648 717.144 198.608 717.144 199.856V206H714.6ZM732.428 202.352C731.804 202.352 731.228 202.28 730.7 202.136L729.668 203.144C729.844 203.256 730.06 203.352 730.316 203.432C730.572 203.512 730.932 203.584 731.396 203.648C731.86 203.712 732.492 203.776 733.292 203.84C734.876 203.984 736.02 204.368 736.724 204.992C737.428 205.6 737.78 206.416 737.78 207.44C737.78 208.144 737.588 208.808 737.204 209.432C736.836 210.072 736.252 210.584 735.452 210.968C734.668 211.368 733.66 211.568 732.428 211.568C730.764 211.568 729.412 211.248 728.372 210.608C727.348 209.984 726.836 209.032 726.836 207.752C726.836 207.256 726.964 206.76 727.22 206.264C727.492 205.784 727.916 205.328 728.492 204.896C728.156 204.752 727.86 204.6 727.604 204.44C727.364 204.264 727.148 204.088 726.956 203.912V203.336L729.02 201.224C728.092 200.424 727.628 199.376 727.628 198.08C727.628 197.296 727.812 196.584 728.18 195.944C728.564 195.288 729.116 194.768 729.836 194.384C730.556 194 731.42 193.808 732.428 193.808C733.1 193.808 733.724 193.904 734.3 194.096H738.74V195.776L736.628 195.896C737.012 196.552 737.204 197.28 737.204 198.08C737.204 198.88 737.012 199.6 736.628 200.24C736.26 200.88 735.716 201.392 734.996 201.776C734.292 202.16 733.436 202.352 732.428 202.352ZM732.428 200.36C733.164 200.36 733.756 200.168 734.204 199.784C734.668 199.384 734.9 198.824 734.9 198.104C734.9 197.368 734.668 196.808 734.204 196.424C733.756 196.04 733.164 195.848 732.428 195.848C731.676 195.848 731.068 196.04 730.604 196.424C730.156 196.808 729.932 197.368 729.932 198.104C729.932 198.824 730.156 199.384 730.604 199.784C731.068 200.168 731.676 200.36 732.428 200.36ZM729.236 207.512C729.236 208.2 729.54 208.712 730.148 209.048C730.756 209.4 731.516 209.576 732.428 209.576C733.308 209.576 734.02 209.384 734.564 209C735.108 208.632 735.38 208.136 735.38 207.512C735.38 207.048 735.196 206.648 734.828 206.312C734.46 205.992 733.764 205.792 732.74 205.712C731.972 205.664 731.292 205.592 730.7 205.496C730.14 205.8 729.756 206.128 729.548 206.48C729.34 206.832 729.236 207.176 729.236 207.512Z" fill="#0EA9F1"/>
<rect width="200" height="60" rx="30" fill="#E7F6FE"/>
<path d="M23.704 38V21.2H29.584C30.896 21.2 31.984 21.424 32.848 21.872C33.712 22.304 34.352 22.904 34.768 23.672C35.2 24.424 35.416 25.28 35.416 26.24C35.416 27.152 35.208 27.992 34.792 28.76C34.392 29.512 33.76 30.112 32.896 30.56C32.032 31.008 30.928 31.232 29.584 31.232H26.248V38H23.704ZM26.248 29.144H29.464C30.664 29.144 31.52 28.888 32.032 28.376C32.56 27.848 32.824 27.136 32.824 26.24C32.824 25.312 32.56 24.592 32.032 24.08C31.52 23.552 30.664 23.288 29.464 23.288H26.248V29.144ZM38.0746 23.84C37.5946 23.84 37.1946 23.696 36.8746 23.408C36.5706 23.104 36.4186 22.728 36.4186 22.28C36.4186 21.832 36.5706 21.464 36.8746 21.176C37.1946 20.872 37.5946 20.72 38.0746 20.72C38.5546 20.72 38.9466 20.872 39.2506 21.176C39.5706 21.464 39.7306 21.832 39.7306 22.28C39.7306 22.728 39.5706 23.104 39.2506 23.408C38.9466 23.696 38.5546 23.84 38.0746 23.84ZM36.8026 38V26.096H39.3466V38H36.8026ZM47.1449 38.288C45.9769 38.288 44.9289 38.024 44.0009 37.496C43.0889 36.968 42.3689 36.24 41.8409 35.312C41.3289 34.368 41.0729 33.28 41.0729 32.048C41.0729 30.816 41.3289 29.736 41.8409 28.808C42.3689 27.864 43.0889 27.128 44.0009 26.6C44.9289 26.072 45.9769 25.808 47.1449 25.808C48.6169 25.808 49.8489 26.192 50.8409 26.96C51.8489 27.728 52.4969 28.768 52.7849 30.08H50.1209C49.9609 29.424 49.6089 28.912 49.0649 28.544C48.5209 28.176 47.8809 27.992 47.1449 27.992C46.5209 27.992 45.9449 28.152 45.4169 28.472C44.8889 28.776 44.4649 29.232 44.1449 29.84C43.8249 30.432 43.6649 31.168 43.6649 32.048C43.6649 32.928 43.8249 33.672 44.1449 34.28C44.4649 34.872 44.8889 35.328 45.4169 35.648C45.9449 35.968 46.5209 36.128 47.1449 36.128C47.8809 36.128 48.5209 35.944 49.0649 35.576C49.6089 35.208 49.9609 34.688 50.1209 34.016H52.7849C52.5129 35.296 51.8729 36.328 50.8649 37.112C49.8569 37.896 48.6169 38.288 47.1449 38.288ZM54.3439 38V20.72H56.8879V31.016L61.4479 26.096H64.4959L59.4319 31.496L65.2399 38H62.0239L56.8879 31.904V38H54.3439ZM67.4511 23.84C66.9711 23.84 66.5711 23.696 66.2511 23.408C65.9471 23.104 65.7951 22.728 65.7951 22.28C65.7951 21.832 65.9471 21.464 66.2511 21.176C66.5711 20.872 66.9711 20.72 67.4511 20.72C67.9311 20.72 68.3231 20.872 68.6271 21.176C68.9471 21.464 69.1071 21.832 69.1071 22.28C69.1071 22.728 68.9471 23.104 68.6271 23.408C68.3231 23.696 67.9311 23.84 67.4511 23.84ZM66.1791 38V26.096H68.7231V38H66.1791ZM70.8814 38V26.096H73.1374L73.3294 28.184C73.6974 27.448 74.2334 26.872 74.9374 26.456C75.6574 26.024 76.4814 25.808 77.4094 25.808C78.8494 25.808 79.9774 26.256 80.7934 27.152C81.6254 28.048 82.0414 29.384 82.0414 31.16V38H79.5214V31.424C79.5214 29.12 78.5774 27.968 76.6894 27.968C75.7454 27.968 74.9614 28.304 74.3374 28.976C73.7294 29.648 73.4254 30.608 73.4254 31.856V38H70.8814ZM88.7097 34.352C88.0857 34.352 87.5097 34.28 86.9817 34.136L85.9497 35.144C86.1257 35.256 86.3417 35.352 86.5977 35.432C86.8537 35.512 87.2137 35.584 87.6777 35.648C88.1417 35.712 88.7737 35.776 89.5737 35.84C91.1577 35.984 92.3017 36.368 93.0057 36.992C93.7097 37.6 94.0617 38.416 94.0617 39.44C94.0617 40.144 93.8697 40.808 93.4857 41.432C93.1177 42.072 92.5337 42.584 91.7337 42.968C90.9497 43.368 89.9417 43.568 88.7097 43.568C87.0457 43.568 85.6937 43.248 84.6537 42.608C83.6297 41.984 83.1177 41.032 83.1177 39.752C83.1177 39.256 83.2457 38.76 83.5017 38.264C83.7737 37.784 84.1977 37.328 84.7737 36.896C84.4377 36.752 84.1417 36.6 83.8857 36.44C83.6457 36.264 83.4297 36.088 83.2377 35.912V35.336L85.3017 33.224C84.3737 32.424 83.9097 31.376 83.9097 30.08C83.9097 29.296 84.0937 28.584 84.4617 27.944C84.8457 27.288 85.3977 26.768 86.1177 26.384C86.8377 26 87.7017 25.808 88.7097 25.808C89.3817 25.808 90.0057 25.904 90.5817 26.096H95.0217V27.776L92.9097 27.896C93.2937 28.552 93.4857 29.28 93.4857 30.08C93.4857 30.88 93.2937 31.6 92.9097 32.24C92.5417 32.88 91.9977 33.392 91.2777 33.776C90.5737 34.16 89.7177 34.352 88.7097 34.352ZM88.7097 32.36C89.4457 32.36 90.0377 32.168 90.4857 31.784C90.9497 31.384 91.1817 30.824 91.1817 30.104C91.1817 29.368 90.9497 28.808 90.4857 28.424C90.0377 28.04 89.4457 27.848 88.7097 27.848C87.9577 27.848 87.3497 28.04 86.8857 28.424C86.4377 28.808 86.2137 29.368 86.2137 30.104C86.2137 30.824 86.4377 31.384 86.8857 31.784C87.3497 32.168 87.9577 32.36 88.7097 32.36ZM85.5177 39.512C85.5177 40.2 85.8217 40.712 86.4297 41.048C87.0377 41.4 87.7977 41.576 88.7097 41.576C89.5897 41.576 90.3017 41.384 90.8457 41C91.3897 40.632 91.6617 40.136 91.6617 39.512C91.6617 39.048 91.4777 38.648 91.1097 38.312C90.7417 37.992 90.0457 37.792 89.0217 37.712C88.2537 37.664 87.5737 37.592 86.9817 37.496C86.4217 37.8 86.0377 38.128 85.8297 38.48C85.6217 38.832 85.5177 39.176 85.5177 39.512ZM106.578 38.288C105.41 38.288 104.362 38.024 103.434 37.496C102.522 36.968 101.802 36.24 101.274 35.312C100.762 34.368 100.506 33.28 100.506 32.048C100.506 30.816 100.762 29.736 101.274 28.808C101.802 27.864 102.522 27.128 103.434 26.6C104.362 26.072 105.41 25.808 106.578 25.808C108.05 25.808 109.282 26.192 110.274 26.96C111.282 27.728 111.93 28.768 112.218 30.08H109.554C109.394 29.424 109.042 28.912 108.498 28.544C107.954 28.176 107.314 27.992 106.578 27.992C105.954 27.992 105.378 28.152 104.85 28.472C104.322 28.776 103.898 29.232 103.578 29.84C103.258 30.432 103.098 31.168 103.098 32.048C103.098 32.928 103.258 33.672 103.578 34.28C103.898 34.872 104.322 35.328 104.85 35.648C105.378 35.968 105.954 36.128 106.578 36.128C107.314 36.128 107.954 35.944 108.498 35.576C109.042 35.208 109.394 34.688 109.554 34.016H112.218C111.946 35.296 111.306 36.328 110.298 37.112C109.29 37.896 108.05 38.288 106.578 38.288ZM113.777 38V20.72H116.321V38H113.777ZM122.374 38.288C121.366 38.288 120.534 38.12 119.878 37.784C119.222 37.448 118.734 37.008 118.414 36.464C118.094 35.904 117.934 35.296 117.934 34.64C117.934 33.488 118.382 32.576 119.278 31.904C120.174 31.232 121.454 30.896 123.118 30.896H126.238V30.68C126.238 29.752 125.982 29.056 125.47 28.592C124.974 28.128 124.326 27.896 123.526 27.896C122.822 27.896 122.206 28.072 121.678 28.424C121.166 28.76 120.854 29.264 120.742 29.936H118.198C118.278 29.072 118.566 28.336 119.062 27.728C119.574 27.104 120.214 26.632 120.982 26.312C121.766 25.976 122.622 25.808 123.55 25.808C125.214 25.808 126.502 26.248 127.414 27.128C128.326 27.992 128.782 29.176 128.782 30.68V38H126.574L126.358 35.96C126.022 36.616 125.534 37.168 124.894 37.616C124.254 38.064 123.414 38.288 122.374 38.288ZM122.878 36.224C123.566 36.224 124.142 36.064 124.606 35.744C125.086 35.408 125.454 34.968 125.71 34.424C125.982 33.88 126.15 33.28 126.214 32.624H123.382C122.374 32.624 121.654 32.8 121.222 33.152C120.806 33.504 120.598 33.944 120.598 34.472C120.598 35.016 120.798 35.448 121.198 35.768C121.614 36.072 122.174 36.224 122.878 36.224ZM135.301 38.288C133.797 38.288 132.557 37.92 131.581 37.184C130.605 36.448 130.045 35.472 129.901 34.256H132.469C132.597 34.8 132.901 35.272 133.381 35.672C133.861 36.056 134.493 36.248 135.277 36.248C136.045 36.248 136.605 36.088 136.957 35.768C137.309 35.448 137.485 35.08 137.485 34.664C137.485 34.056 137.237 33.648 136.741 33.44C136.261 33.216 135.589 33.016 134.725 32.84C134.053 32.696 133.381 32.504 132.709 32.264C132.053 32.024 131.501 31.688 131.053 31.256C130.621 30.808 130.405 30.208 130.405 29.456C130.405 28.416 130.805 27.552 131.605 26.864C132.405 26.16 133.525 25.808 134.965 25.808C136.293 25.808 137.365 26.128 138.181 26.768C139.013 27.408 139.501 28.312 139.645 29.48H137.197C137.117 28.968 136.877 28.568 136.477 28.28C136.093 27.992 135.573 27.848 134.917 27.848C134.277 27.848 133.781 27.984 133.429 28.256C133.077 28.512 132.901 28.848 132.901 29.264C132.901 29.68 133.141 30.008 133.621 30.248C134.117 30.488 134.765 30.704 135.565 30.896C136.365 31.072 137.101 31.28 137.773 31.52C138.461 31.744 139.013 32.08 139.429 32.528C139.845 32.976 140.053 33.632 140.053 34.496C140.069 35.584 139.645 36.488 138.781 37.208C137.933 37.928 136.773 38.288 135.301 38.288ZM146.382 38.288C144.878 38.288 143.638 37.92 142.662 37.184C141.686 36.448 141.126 35.472 140.982 34.256H143.55C143.678 34.8 143.982 35.272 144.462 35.672C144.942 36.056 145.574 36.248 146.358 36.248C147.126 36.248 147.686 36.088 148.038 35.768C148.39 35.448 148.566 35.08 148.566 34.664C148.566 34.056 148.318 33.648 147.822 33.44C147.342 33.216 146.67 33.016 145.806 32.84C145.134 32.696 144.462 32.504 143.79 32.264C143.134 32.024 142.582 31.688 142.134 31.256C141.702 30.808 141.486 30.208 141.486 29.456C141.486 28.416 141.886 27.552 142.686 26.864C143.486 26.16 144.606 25.808 146.046 25.808C147.374 25.808 148.446 26.128 149.262 26.768C150.094 27.408 150.582 28.312 150.726 29.48H148.278C148.198 28.968 147.958 28.568 147.558 28.28C147.174 27.992 146.654 27.848 145.998 27.848C145.358 27.848 144.862 27.984 144.51 28.256C144.158 28.512 143.982 28.848 143.982 29.264C143.982 29.68 144.222 30.008 144.702 30.248C145.198 30.488 145.846 30.704 146.646 30.896C147.446 31.072 148.182 31.28 148.854 31.52C149.542 31.744 150.094 32.08 150.51 32.528C150.926 32.976 151.134 33.632 151.134 34.496C151.15 35.584 150.726 36.488 149.862 37.208C149.014 37.928 147.854 38.288 146.382 38.288ZM158.279 38.288C157.111 38.288 156.071 38.032 155.159 37.52C154.263 36.992 153.559 36.264 153.047 35.336C152.535 34.408 152.279 33.328 152.279 32.096C152.279 30.848 152.527 29.752 153.023 28.808C153.535 27.864 154.239 27.128 155.135 26.6C156.047 26.072 157.103 25.808 158.303 25.808C159.471 25.808 160.487 26.072 161.351 26.6C162.215 27.112 162.887 27.8 163.367 28.664C163.847 29.528 164.087 30.48 164.087 31.52C164.087 31.68 164.079 31.856 164.063 32.048C164.063 32.224 164.055 32.424 164.039 32.648H154.775C154.855 33.8 155.231 34.68 155.903 35.288C156.591 35.88 157.383 36.176 158.279 36.176C158.999 36.176 159.599 36.016 160.079 35.696C160.575 35.36 160.943 34.912 161.183 34.352H163.727C163.407 35.472 162.767 36.408 161.807 37.16C160.863 37.912 159.687 38.288 158.279 38.288ZM158.279 27.896C157.431 27.896 156.679 28.152 156.023 28.664C155.367 29.16 154.967 29.912 154.823 30.92H161.543C161.495 29.992 161.167 29.256 160.559 28.712C159.951 28.168 159.191 27.896 158.279 27.896ZM170.279 38.288C168.775 38.288 167.535 37.92 166.559 37.184C165.583 36.448 165.023 35.472 164.879 34.256H167.447C167.575 34.8 167.879 35.272 168.359 35.672C168.839 36.056 169.471 36.248 170.255 36.248C171.023 36.248 171.583 36.088 171.935 35.768C172.287 35.448 172.463 35.08 172.463 34.664C172.463 34.056 172.215 33.648 171.719 33.44C171.239 33.216 170.567 33.016 169.703 32.84C169.031 32.696 168.359 32.504 167.687 32.264C167.031 32.024 166.479 31.688 166.031 31.256C165.599 30.808 165.383 30.208 165.383 29.456C165.383 28.416 165.783 27.552 166.583 26.864C167.383 26.16 168.503 25.808 169.943 25.808C171.271 25.808 172.343 26.128 173.159 26.768C173.991 27.408 174.479 28.312 174.623 29.48H172.175C172.095 28.968 171.855 28.568 171.455 28.28C171.071 27.992 170.551 27.848 169.895 27.848C169.255 27.848 168.759 27.984 168.407 28.256C168.055 28.512 167.879 28.848 167.879 29.264C167.879 29.68 168.119 30.008 168.599 30.248C169.095 30.488 169.743 30.704 170.543 30.896C171.343 31.072 172.079 31.28 172.751 31.52C173.439 31.744 173.991 32.08 174.407 32.528C174.823 32.976 175.031 33.632 175.031 34.496C175.047 35.584 174.623 36.488 173.759 37.208C172.911 37.928 171.751 38.288 170.279 38.288Z" fill="#0EA9F1"/>
<rect x="224" width="240" height="60" rx="30" fill="#E7F6FE"/>
<path d="M251.64 38V23.264H246.672V21.2H259.128V23.264H254.184V38H251.64ZM261.653 23.84C261.173 23.84 260.773 23.696 260.453 23.408C260.149 23.104 259.997 22.728 259.997 22.28C259.997 21.832 260.149 21.464 260.453 21.176C260.773 20.872 261.173 20.72 261.653 20.72C262.133 20.72 262.525 20.872 262.829 21.176C263.149 21.464 263.309 21.832 263.309 22.28C263.309 22.728 263.149 23.104 262.829 23.408C262.525 23.696 262.133 23.84 261.653 23.84ZM260.381 38V26.096H262.925V38H260.381ZM265.083 38V26.096H267.339L267.555 27.776C267.939 27.168 268.443 26.688 269.067 26.336C269.707 25.984 270.443 25.808 271.275 25.808C273.163 25.808 274.475 26.552 275.211 28.04C275.643 27.352 276.219 26.808 276.939 26.408C277.675 26.008 278.467 25.808 279.315 25.808C280.803 25.808 281.971 26.256 282.819 27.152C283.667 28.048 284.091 29.384 284.091 31.16V38H281.547V31.424C281.547 29.12 280.667 27.968 278.907 27.968C278.011 27.968 277.275 28.304 276.699 28.976C276.139 29.648 275.859 30.608 275.859 31.856V38H273.315V31.424C273.315 29.12 272.427 27.968 270.651 27.968C269.771 27.968 269.043 28.304 268.467 28.976C267.907 29.648 267.627 30.608 267.627 31.856V38H265.083ZM291.435 38.288C290.267 38.288 289.227 38.032 288.315 37.52C287.419 36.992 286.715 36.264 286.203 35.336C285.691 34.408 285.435 33.328 285.435 32.096C285.435 30.848 285.683 29.752 286.179 28.808C286.691 27.864 287.395 27.128 288.291 26.6C289.203 26.072 290.259 25.808 291.459 25.808C292.627 25.808 293.643 26.072 294.507 26.6C295.371 27.112 296.043 27.8 296.523 28.664C297.003 29.528 297.243 30.48 297.243 31.52C297.243 31.68 297.235 31.856 297.219 32.048C297.219 32.224 297.211 32.424 297.195 32.648H287.931C288.011 33.8 288.387 34.68 289.059 35.288C289.747 35.88 290.539 36.176 291.435 36.176C292.155 36.176 292.755 36.016 293.235 35.696C293.731 35.36 294.099 34.912 294.339 34.352H296.883C296.563 35.472 295.923 36.408 294.963 37.16C294.019 37.912 292.843 38.288 291.435 38.288ZM291.435 27.896C290.587 27.896 289.835 28.152 289.179 28.664C288.523 29.16 288.123 29.912 287.979 30.92H294.699C294.651 29.992 294.323 29.256 293.715 28.712C293.107 28.168 292.347 27.896 291.435 27.896ZM303.53 38V26.096H305.786L306.002 27.776C306.386 27.168 306.89 26.688 307.514 26.336C308.154 25.984 308.89 25.808 309.722 25.808C311.61 25.808 312.922 26.552 313.658 28.04C314.09 27.352 314.666 26.808 315.386 26.408C316.122 26.008 316.914 25.808 317.762 25.808C319.25 25.808 320.418 26.256 321.266 27.152C322.114 28.048 322.538 29.384 322.538 31.16V38H319.994V31.424C319.994 29.12 319.114 27.968 317.354 27.968C316.458 27.968 315.722 28.304 315.146 28.976C314.586 29.648 314.306 30.608 314.306 31.856V38H311.762V31.424C311.762 29.12 310.874 27.968 309.098 27.968C308.218 27.968 307.49 28.304 306.914 28.976C306.354 29.648 306.074 30.608 306.074 31.856V38H303.53ZM328.346 38.288C327.338 38.288 326.506 38.12 325.85 37.784C325.194 37.448 324.706 37.008 324.386 36.464C324.066 35.904 323.906 35.296 323.906 34.64C323.906 33.488 324.354 32.576 325.25 31.904C326.146 31.232 327.426 30.896 329.09 30.896H332.21V30.68C332.21 29.752 331.954 29.056 331.442 28.592C330.946 28.128 330.298 27.896 329.498 27.896C328.794 27.896 328.178 28.072 327.65 28.424C327.138 28.76 326.826 29.264 326.714 29.936H324.17C324.25 29.072 324.538 28.336 325.034 27.728C325.546 27.104 326.186 26.632 326.954 26.312C327.738 25.976 328.594 25.808 329.522 25.808C331.186 25.808 332.474 26.248 333.386 27.128C334.298 27.992 334.754 29.176 334.754 30.68V38H332.546L332.33 35.96C331.994 36.616 331.506 37.168 330.866 37.616C330.226 38.064 329.386 38.288 328.346 38.288ZM328.85 36.224C329.538 36.224 330.114 36.064 330.578 35.744C331.058 35.408 331.426 34.968 331.682 34.424C331.954 33.88 332.122 33.28 332.186 32.624H329.354C328.346 32.624 327.626 32.8 327.194 33.152C326.778 33.504 326.57 33.944 326.57 34.472C326.57 35.016 326.77 35.448 327.17 35.768C327.586 36.072 328.146 36.224 328.85 36.224ZM336.52 38V26.096H338.776L338.968 28.184C339.336 27.448 339.872 26.872 340.576 26.456C341.296 26.024 342.12 25.808 343.048 25.808C344.488 25.808 345.616 26.256 346.432 27.152C347.264 28.048 347.68 29.384 347.68 31.16V38H345.16V31.424C345.16 29.12 344.216 27.968 342.328 27.968C341.384 27.968 340.6 28.304 339.976 28.976C339.368 29.648 339.064 30.608 339.064 31.856V38H336.52ZM353.509 38.288C352.501 38.288 351.669 38.12 351.013 37.784C350.357 37.448 349.869 37.008 349.549 36.464C349.229 35.904 349.069 35.296 349.069 34.64C349.069 33.488 349.517 32.576 350.413 31.904C351.309 31.232 352.589 30.896 354.253 30.896H357.373V30.68C357.373 29.752 357.117 29.056 356.605 28.592C356.109 28.128 355.461 27.896 354.661 27.896C353.957 27.896 353.341 28.072 352.813 28.424C352.301 28.76 351.989 29.264 351.877 29.936H349.333C349.413 29.072 349.701 28.336 350.197 27.728C350.709 27.104 351.349 26.632 352.117 26.312C352.901 25.976 353.757 25.808 354.685 25.808C356.349 25.808 357.637 26.248 358.549 27.128C359.461 27.992 359.917 29.176 359.917 30.68V38H357.709L357.493 35.96C357.157 36.616 356.669 37.168 356.029 37.616C355.389 38.064 354.549 38.288 353.509 38.288ZM354.013 36.224C354.701 36.224 355.277 36.064 355.741 35.744C356.221 35.408 356.589 34.968 356.845 34.424C357.117 33.88 357.285 33.28 357.349 32.624H354.517C353.509 32.624 352.789 32.8 352.357 33.152C351.941 33.504 351.733 33.944 351.733 34.472C351.733 35.016 351.933 35.448 352.333 35.768C352.749 36.072 353.309 36.224 354.013 36.224ZM366.555 34.352C365.931 34.352 365.355 34.28 364.827 34.136L363.795 35.144C363.971 35.256 364.187 35.352 364.443 35.432C364.699 35.512 365.059 35.584 365.523 35.648C365.987 35.712 366.619 35.776 367.419 35.84C369.003 35.984 370.147 36.368 370.851 36.992C371.555 37.6 371.907 38.416 371.907 39.44C371.907 40.144 371.715 40.808 371.331 41.432C370.963 42.072 370.379 42.584 369.579 42.968C368.795 43.368 367.787 43.568 366.555 43.568C364.891 43.568 363.539 43.248 362.499 42.608C361.475 41.984 360.963 41.032 360.963 39.752C360.963 39.256 361.091 38.76 361.347 38.264C361.619 37.784 362.043 37.328 362.619 36.896C362.283 36.752 361.987 36.6 361.731 36.44C361.491 36.264 361.275 36.088 361.083 35.912V35.336L363.147 33.224C362.219 32.424 361.755 31.376 361.755 30.08C361.755 29.296 361.939 28.584 362.307 27.944C362.691 27.288 363.243 26.768 363.963 26.384C364.683 26 365.547 25.808 366.555 25.808C367.227 25.808 367.851 25.904 368.427 26.096H372.867V27.776L370.755 27.896C371.139 28.552 371.331 29.28 371.331 30.08C371.331 30.88 371.139 31.6 370.755 32.24C370.387 32.88 369.843 33.392 369.123 33.776C368.419 34.16 367.563 34.352 366.555 34.352ZM366.555 32.36C367.291 32.36 367.883 32.168 368.331 31.784C368.795 31.384 369.027 30.824 369.027 30.104C369.027 29.368 368.795 28.808 368.331 28.424C367.883 28.04 367.291 27.848 366.555 27.848C365.803 27.848 365.195 28.04 364.731 28.424C364.283 28.808 364.059 29.368 364.059 30.104C364.059 30.824 364.283 31.384 364.731 31.784C365.195 32.168 365.803 32.36 366.555 32.36ZM363.363 39.512C363.363 40.2 363.667 40.712 364.275 41.048C364.883 41.4 365.643 41.576 366.555 41.576C367.435 41.576 368.147 41.384 368.691 41C369.235 40.632 369.507 40.136 369.507 39.512C369.507 39.048 369.323 38.648 368.955 38.312C368.587 37.992 367.891 37.792 366.867 37.712C366.099 37.664 365.419 37.592 364.827 37.496C364.267 37.8 363.883 38.128 363.675 38.48C363.467 38.832 363.363 39.176 363.363 39.512ZM379.035 38.288C377.867 38.288 376.827 38.032 375.915 37.52C375.019 36.992 374.315 36.264 373.803 35.336C373.291 34.408 373.035 33.328 373.035 32.096C373.035 30.848 373.283 29.752 373.779 28.808C374.291 27.864 374.995 27.128 375.891 26.6C376.803 26.072 377.859 25.808 379.059 25.808C380.227 25.808 381.243 26.072 382.107 26.6C382.971 27.112 383.643 27.8 384.123 28.664C384.603 29.528 384.843 30.48 384.843 31.52C384.843 31.68 384.835 31.856 384.819 32.048C384.819 32.224 384.811 32.424 384.795 32.648H375.531C375.611 33.8 375.987 34.68 376.659 35.288C377.347 35.88 378.139 36.176 379.035 36.176C379.755 36.176 380.355 36.016 380.835 35.696C381.331 35.36 381.699 34.912 381.939 34.352H384.483C384.163 35.472 383.523 36.408 382.563 37.16C381.619 37.912 380.443 38.288 379.035 38.288ZM379.035 27.896C378.187 27.896 377.435 28.152 376.779 28.664C376.123 29.16 375.723 29.912 375.579 30.92H382.299C382.251 29.992 381.923 29.256 381.315 28.712C380.707 28.168 379.947 27.896 379.035 27.896ZM386.283 38V26.096H388.539L388.755 27.776C389.139 27.168 389.643 26.688 390.267 26.336C390.907 25.984 391.643 25.808 392.475 25.808C394.363 25.808 395.675 26.552 396.411 28.04C396.843 27.352 397.419 26.808 398.139 26.408C398.875 26.008 399.667 25.808 400.515 25.808C402.003 25.808 403.171 26.256 404.019 27.152C404.867 28.048 405.291 29.384 405.291 31.16V38H402.747V31.424C402.747 29.12 401.867 27.968 400.107 27.968C399.211 27.968 398.475 28.304 397.899 28.976C397.339 29.648 397.059 30.608 397.059 31.856V38H394.515V31.424C394.515 29.12 393.627 27.968 391.851 27.968C390.971 27.968 390.243 28.304 389.667 28.976C389.107 29.648 388.827 30.608 388.827 31.856V38H386.283ZM412.635 38.288C411.467 38.288 410.427 38.032 409.515 37.52C408.619 36.992 407.915 36.264 407.403 35.336C406.891 34.408 406.635 33.328 406.635 32.096C406.635 30.848 406.883 29.752 407.379 28.808C407.891 27.864 408.595 27.128 409.491 26.6C410.403 26.072 411.459 25.808 412.659 25.808C413.827 25.808 414.843 26.072 415.707 26.6C416.571 27.112 417.243 27.8 417.723 28.664C418.203 29.528 418.443 30.48 418.443 31.52C418.443 31.68 418.435 31.856 418.419 32.048C418.419 32.224 418.411 32.424 418.395 32.648H409.131C409.211 33.8 409.587 34.68 410.259 35.288C410.947 35.88 411.739 36.176 412.635 36.176C413.355 36.176 413.955 36.016 414.435 35.696C414.931 35.36 415.299 34.912 415.539 34.352H418.083C417.763 35.472 417.123 36.408 416.163 37.16C415.219 37.912 414.043 38.288 412.635 38.288ZM412.635 27.896C411.787 27.896 411.035 28.152 410.379 28.664C409.723 29.16 409.323 29.912 409.179 30.92H415.899C415.851 29.992 415.523 29.256 414.915 28.712C414.307 28.168 413.547 27.896 412.635 27.896ZM419.883 38V26.096H422.139L422.331 28.184C422.699 27.448 423.235 26.872 423.939 26.456C424.659 26.024 425.483 25.808 426.411 25.808C427.851 25.808 428.979 26.256 429.795 27.152C430.627 28.048 431.043 29.384 431.043 31.16V38H428.523V31.424C428.523 29.12 427.579 27.968 425.691 27.968C424.747 27.968 423.963 28.304 423.339 28.976C422.731 29.648 422.427 30.608 422.427 31.856V38H419.883ZM437.831 38C436.663 38 435.735 37.72 435.047 37.16C434.359 36.584 434.015 35.568 434.015 34.112V28.232H431.975V26.096H434.015L434.327 23.072H436.559V26.096H439.919V28.232H436.559V34.112C436.559 34.768 436.695 35.224 436.967 35.48C437.255 35.72 437.743 35.84 438.431 35.84H439.799V38H437.831Z" fill="#0EA9F1"/>
<rect x="488" width="220" height="60" rx="30" fill="#E7F6FE"/>
<path d="M518.248 38.288C517.016 38.288 515.936 38.072 515.008 37.64C514.08 37.208 513.352 36.592 512.824 35.792C512.312 34.992 512.048 34.04 512.032 32.936H514.72C514.736 33.832 515.048 34.592 515.656 35.216C516.264 35.84 517.12 36.152 518.224 36.152C519.2 36.152 519.96 35.92 520.504 35.456C521.064 34.976 521.344 34.368 521.344 33.632C521.344 33.04 521.208 32.56 520.936 32.192C520.68 31.824 520.32 31.52 519.856 31.28C519.408 31.04 518.888 30.824 518.296 30.632C517.704 30.44 517.08 30.232 516.424 30.008C515.128 29.576 514.152 29.016 513.496 28.328C512.856 27.64 512.536 26.736 512.536 25.616C512.52 24.672 512.736 23.848 513.184 23.144C513.648 22.44 514.288 21.896 515.104 21.512C515.936 21.112 516.904 20.912 518.008 20.912C519.096 20.912 520.048 21.112 520.864 21.512C521.696 21.912 522.344 22.472 522.808 23.192C523.272 23.896 523.512 24.72 523.528 25.664H520.84C520.84 25.232 520.728 24.824 520.504 24.44C520.28 24.04 519.952 23.712 519.52 23.456C519.088 23.2 518.56 23.072 517.936 23.072C517.136 23.056 516.472 23.256 515.944 23.672C515.432 24.088 515.176 24.664 515.176 25.4C515.176 26.056 515.368 26.56 515.752 26.912C516.136 27.264 516.664 27.56 517.336 27.8C518.008 28.024 518.776 28.288 519.64 28.592C520.472 28.864 521.216 29.192 521.872 29.576C522.528 29.96 523.048 30.464 523.432 31.088C523.832 31.712 524.032 32.504 524.032 33.464C524.032 34.312 523.816 35.104 523.384 35.84C522.952 36.56 522.304 37.152 521.44 37.616C520.576 38.064 519.512 38.288 518.248 38.288ZM524.533 38L530.725 21.2H533.509L539.653 38H536.965L535.525 33.896H528.661L527.221 38H524.533ZM529.381 31.88H534.805L532.093 24.224L529.381 31.88ZM542.904 38V23.264H537.936V21.2H550.392V23.264H545.448V38H542.904ZM561.604 38.288C560.404 38.288 559.356 38.08 558.46 37.664C557.58 37.232 556.892 36.632 556.396 35.864C555.9 35.096 555.652 34.2 555.652 33.176C555.652 32.056 555.964 31.056 556.588 30.176C557.228 29.296 558.164 28.592 559.396 28.064C558.884 27.488 558.516 26.944 558.292 26.432C558.068 25.92 557.956 25.36 557.956 24.752C557.956 23.648 558.356 22.736 559.156 22.016C559.956 21.28 561.068 20.912 562.492 20.912C563.42 20.912 564.22 21.088 564.892 21.44C565.564 21.792 566.076 22.264 566.428 22.856C566.78 23.448 566.948 24.12 566.932 24.872H564.46C564.476 24.232 564.276 23.744 563.86 23.408C563.46 23.072 562.996 22.904 562.468 22.904C561.844 22.904 561.348 23.08 560.98 23.432C560.612 23.768 560.428 24.2 560.428 24.728C560.428 25.192 560.556 25.648 560.812 26.096C561.084 26.544 561.492 27.048 562.036 27.608L567.028 32.624C567.428 32.016 567.86 31.296 568.324 30.464L568.948 29.288H571.588L570.628 31.04C569.972 32.32 569.324 33.392 568.684 34.256L572.428 38H569.308L567.268 35.96C566.436 36.776 565.564 37.368 564.652 37.736C563.74 38.104 562.724 38.288 561.604 38.288ZM558.124 33.032C558.124 33.928 558.444 34.672 559.084 35.264C559.74 35.856 560.596 36.152 561.652 36.152C562.436 36.152 563.148 36.016 563.788 35.744C564.428 35.456 565.052 34.992 565.66 34.352L560.884 29.576C559.956 29.96 559.26 30.448 558.796 31.04C558.348 31.616 558.124 32.28 558.124 33.032ZM578.113 38V21.2H583.993C585.305 21.2 586.393 21.424 587.257 21.872C588.121 22.304 588.761 22.904 589.177 23.672C589.609 24.424 589.825 25.28 589.825 26.24C589.825 27.152 589.617 27.992 589.201 28.76C588.801 29.512 588.169 30.112 587.305 30.56C586.441 31.008 585.337 31.232 583.993 31.232H580.657V38H578.113ZM580.657 29.144H583.873C585.073 29.144 585.929 28.888 586.441 28.376C586.969 27.848 587.233 27.136 587.233 26.24C587.233 25.312 586.969 24.592 586.441 24.08C585.929 23.552 585.073 23.288 583.873 23.288H580.657V29.144ZM596.684 38.288C595.452 38.288 594.372 38.072 593.444 37.64C592.516 37.208 591.788 36.592 591.26 35.792C590.748 34.992 590.484 34.04 590.468 32.936H593.156C593.172 33.832 593.484 34.592 594.092 35.216C594.7 35.84 595.556 36.152 596.66 36.152C597.636 36.152 598.396 35.92 598.94 35.456C599.5 34.976 599.78 34.368 599.78 33.632C599.78 33.04 599.644 32.56 599.372 32.192C599.116 31.824 598.756 31.52 598.292 31.28C597.844 31.04 597.324 30.824 596.732 30.632C596.14 30.44 595.516 30.232 594.86 30.008C593.564 29.576 592.588 29.016 591.932 28.328C591.292 27.64 590.972 26.736 590.972 25.616C590.956 24.672 591.172 23.848 591.62 23.144C592.084 22.44 592.724 21.896 593.54 21.512C594.372 21.112 595.34 20.912 596.444 20.912C597.532 20.912 598.484 21.112 599.3 21.512C600.132 21.912 600.78 22.472 601.244 23.192C601.708 23.896 601.948 24.72 601.964 25.664H599.276C599.276 25.232 599.164 24.824 598.94 24.44C598.716 24.04 598.388 23.712 597.956 23.456C597.524 23.2 596.996 23.072 596.372 23.072C595.572 23.056 594.908 23.256 594.38 23.672C593.868 24.088 593.612 24.664 593.612 25.4C593.612 26.056 593.804 26.56 594.188 26.912C594.572 27.264 595.1 27.56 595.772 27.8C596.444 28.024 597.212 28.288 598.076 28.592C598.908 28.864 599.652 29.192 600.308 29.576C600.964 29.96 601.484 30.464 601.868 31.088C602.268 31.712 602.468 32.504 602.468 33.464C602.468 34.312 602.252 35.104 601.82 35.84C601.388 36.56 600.74 37.152 599.876 37.616C599.012 38.064 597.948 38.288 596.684 38.288ZM602.969 38L609.161 21.2H611.945L618.089 38H615.401L613.961 33.896H607.097L605.657 38H602.969ZM607.817 31.88H613.241L610.529 24.224L607.817 31.88ZM621.34 38V23.264H616.372V21.2H628.828V23.264H623.884V38H621.34ZM634.76 43.28V26.096H637.04L637.304 27.944C637.688 27.384 638.216 26.888 638.888 26.456C639.56 26.024 640.424 25.808 641.48 25.808C642.632 25.808 643.648 26.08 644.528 26.624C645.408 27.168 646.096 27.912 646.592 28.856C647.104 29.8 647.36 30.872 647.36 32.072C647.36 33.272 647.104 34.344 646.592 35.288C646.096 36.216 645.408 36.952 644.528 37.496C643.648 38.024 642.624 38.288 641.456 38.288C640.528 38.288 639.704 38.104 638.984 37.736C638.28 37.368 637.72 36.848 637.304 36.176V43.28H634.76ZM641.024 36.08C642.112 36.08 643.008 35.712 643.712 34.976C644.416 34.224 644.768 33.248 644.768 32.048C644.768 31.264 644.608 30.568 644.288 29.96C643.968 29.352 643.528 28.88 642.968 28.544C642.408 28.192 641.76 28.016 641.024 28.016C639.936 28.016 639.04 28.392 638.336 29.144C637.648 29.896 637.304 30.864 637.304 32.048C637.304 33.248 637.648 34.224 638.336 34.976C639.04 35.712 639.936 36.08 641.024 36.08ZM648.911 38V26.096H651.191L651.407 28.352C651.823 27.568 652.399 26.952 653.135 26.504C653.887 26.04 654.791 25.808 655.847 25.808V28.472H655.151C654.447 28.472 653.815 28.592 653.255 28.832C652.711 29.056 652.271 29.448 651.935 30.008C651.615 30.552 651.455 31.312 651.455 32.288V38H648.911ZM662.068 38.288C660.9 38.288 659.86 38.032 658.948 37.52C658.052 36.992 657.348 36.264 656.836 35.336C656.324 34.408 656.068 33.328 656.068 32.096C656.068 30.848 656.316 29.752 656.812 28.808C657.324 27.864 658.028 27.128 658.924 26.6C659.836 26.072 660.892 25.808 662.092 25.808C663.26 25.808 664.276 26.072 665.14 26.6C666.004 27.112 666.676 27.8 667.156 28.664C667.636 29.528 667.876 30.48 667.876 31.52C667.876 31.68 667.868 31.856 667.852 32.048C667.852 32.224 667.844 32.424 667.828 32.648H658.564C658.644 33.8 659.02 34.68 659.692 35.288C660.38 35.88 661.172 36.176 662.068 36.176C662.788 36.176 663.388 36.016 663.868 35.696C664.364 35.36 664.732 34.912 664.972 34.352H667.516C667.196 35.472 666.556 36.408 665.596 37.16C664.652 37.912 663.476 38.288 662.068 38.288ZM662.068 27.896C661.22 27.896 660.468 28.152 659.812 28.664C659.156 29.16 658.756 29.912 658.612 30.92H665.332C665.284 29.992 664.956 29.256 664.348 28.712C663.74 28.168 662.98 27.896 662.068 27.896ZM669.316 43.28V26.096H671.596L671.86 27.944C672.244 27.384 672.772 26.888 673.444 26.456C674.116 26.024 674.98 25.808 676.036 25.808C677.188 25.808 678.204 26.08 679.084 26.624C679.964 27.168 680.652 27.912 681.148 28.856C681.66 29.8 681.916 30.872 681.916 32.072C681.916 33.272 681.66 34.344 681.148 35.288C680.652 36.216 679.964 36.952 679.084 37.496C678.204 38.024 677.18 38.288 676.012 38.288C675.084 38.288 674.26 38.104 673.54 37.736C672.836 37.368 672.276 36.848 671.86 36.176V43.28H669.316ZM675.58 36.08C676.668 36.08 677.564 35.712 678.268 34.976C678.972 34.224 679.324 33.248 679.324 32.048C679.324 31.264 679.164 30.568 678.844 29.96C678.524 29.352 678.084 28.88 677.524 28.544C676.964 28.192 676.316 28.016 675.58 28.016C674.492 28.016 673.596 28.392 672.892 29.144C672.204 29.896 671.86 30.864 671.86 32.048C671.86 33.248 672.204 34.224 672.892 34.976C673.596 35.712 674.492 36.08 675.58 36.08Z" fill="#0EA9F1"/>
</svg>
